<?xml version="1.0" encoding="UTF-8"?>
<svg xmlns="http://www.w3.org/2000/svg" xmlns:xlink="http://www.w3.org/1999/xlink" width="756" height="432" viewBox="0 0 756 432">
<rect x="-75.6" y="-43.2" width="907.2" height="518.4" fill="rgb(100%, 100%, 100%)" fill-opacity="1"/>
<path fill="none" stroke-width="1.066978" stroke-linecap="butt" stroke-linejoin="round" stroke="rgb(100%, 91.372549%, 27.058824%)" stroke-opacity="0.8" stroke-miterlimit="10" d="M 300.535156 343.53125 L 300.535156 355.535156 "/>
<path fill="none" stroke-width="1.066978" stroke-linecap="butt" stroke-linejoin="round" stroke="rgb(98.039216%, 88.235294%, 28.627451%)" stroke-opacity="0.8" stroke-miterlimit="10" d="M 158.324219 339.246094 L 158.324219 385.792969 "/>
<path fill="none" stroke-width="1.066978" stroke-linecap="butt" stroke-linejoin="round" stroke="rgb(89.411765%, 81.176471%, 35.686275%)" stroke-opacity="0.8" stroke-miterlimit="10" d="M 363.039062 423.492188 L 363.039062 342.234375 "/>
<path fill="none" stroke-width="1.066978" stroke-linecap="butt" stroke-linejoin="round" stroke="rgb(100%, 90.980392%, 26.27451%)" stroke-opacity="0.8" stroke-miterlimit="10" d="M 318.261719 373.625 L 318.261719 351.761719 "/>
<path fill="none" stroke-width="1.066978" stroke-linecap="butt" stroke-linejoin="round" stroke="rgb(100%, 90.196078%, 25.882353%)" stroke-opacity="0.8" stroke-miterlimit="10" d="M 252.300781 335.039062 L 252.300781 365.796875 "/>
<path fill="none" stroke-width="1.066978" stroke-linecap="butt" stroke-linejoin="round" stroke="rgb(100%, 91.372549%, 26.666667%)" stroke-opacity="0.8" stroke-miterlimit="10" d="M 322.582031 364.640625 L 322.582031 350.84375 "/>
<path fill="none" stroke-width="1.066978" stroke-linecap="butt" stroke-linejoin="round" stroke="rgb(100%, 91.372549%, 26.666667%)" stroke-opacity="0.8" stroke-miterlimit="10" d="M 317.292969 335.660156 L 317.292969 351.96875 "/>
<path fill="none" stroke-width="1.066978" stroke-linecap="butt" stroke-linejoin="round" stroke="rgb(100%, 90.588235%, 25.882353%)" stroke-opacity="0.8" stroke-miterlimit="10" d="M 226.605469 396.527344 L 226.605469 371.265625 "/>
<path fill="none" stroke-width="1.066978" stroke-linecap="butt" stroke-linejoin="round" stroke="rgb(100%, 91.372549%, 26.666667%)" stroke-opacity="0.8" stroke-miterlimit="10" d="M 387.714844 353.613281 L 387.714844 336.984375 "/>
<path fill="none" stroke-width="1.066978" stroke-linecap="butt" stroke-linejoin="round" stroke="rgb(100%, 90.980392%, 26.27451%)" stroke-opacity="0.8" stroke-miterlimit="10" d="M 466.574219 301.234375 L 466.574219 320.207031 "/>
<path fill="none" stroke-width="1.066978" stroke-linecap="butt" stroke-linejoin="round" stroke="rgb(100%, 89.803922%, 26.666667%)" stroke-opacity="0.8" stroke-miterlimit="10" d="M 241.277344 403.945312 L 241.277344 368.144531 "/>
<path fill="none" stroke-width="1.066978" stroke-linecap="butt" stroke-linejoin="round" stroke="rgb(100%, 90.588235%, 25.882353%)" stroke-opacity="0.8" stroke-miterlimit="10" d="M 205.921875 351.292969 L 205.921875 375.664062 "/>
<path fill="none" stroke-width="1.066978" stroke-linecap="butt" stroke-linejoin="round" stroke="rgb(100%, 90.980392%, 26.27451%)" stroke-opacity="0.8" stroke-miterlimit="10" d="M 322.984375 372.671875 L 322.984375 350.757812 "/>
<path fill="none" stroke-width="1.066978" stroke-linecap="butt" stroke-linejoin="round" stroke="rgb(100%, 91.764706%, 27.45098%)" stroke-opacity="0.8" stroke-miterlimit="10" d="M 248.144531 369.789062 L 248.144531 366.683594 "/>
<path fill="none" stroke-width="1.066978" stroke-linecap="butt" stroke-linejoin="round" stroke="rgb(100%, 91.372549%, 26.666667%)" stroke-opacity="0.8" stroke-miterlimit="10" d="M 475.269531 336.617188 L 475.269531 318.355469 "/>
<path fill="none" stroke-width="1.066978" stroke-linecap="butt" stroke-linejoin="round" stroke="rgb(98.039216%, 88.235294%, 28.627451%)" stroke-opacity="0.8" stroke-miterlimit="10" d="M 239.207031 321.453125 L 239.207031 368.582031 "/>
<path fill="none" stroke-width="1.066978" stroke-linecap="butt" stroke-linejoin="round" stroke="rgb(100%, 91.764706%, 27.45098%)" stroke-opacity="0.8" stroke-miterlimit="10" d="M 377.40625 334.917969 L 377.40625 339.179688 "/>
<path fill="none" stroke-width="1.066978" stroke-linecap="butt" stroke-linejoin="round" stroke="rgb(98.431373%, 88.627451%, 28.235294%)" stroke-opacity="0.8" stroke-miterlimit="10" d="M 455.253906 366.289062 L 455.253906 322.613281 "/>
<path fill="none" stroke-width="1.066978" stroke-linecap="butt" stroke-linejoin="round" stroke="rgb(100%, 91.372549%, 27.058824%)" stroke-opacity="0.8" stroke-miterlimit="10" d="M 583.542969 307.878906 L 583.542969 295.320312 "/>
<path fill="none" stroke-width="1.066978" stroke-linecap="butt" stroke-linejoin="round" stroke="rgb(100%, 90.980392%, 26.27451%)" stroke-opacity="0.8" stroke-miterlimit="10" d="M 341.105469 368.386719 L 341.105469 346.902344 "/>
<path fill="none" stroke-width="1.066978" stroke-linecap="butt" stroke-linejoin="round" stroke="rgb(100%, 89.803922%, 26.666667%)" stroke-opacity="0.8" stroke-miterlimit="10" d="M 492.851562 348.339844 L 492.851562 314.617188 "/>
<path fill="none" stroke-width="1.066978" stroke-linecap="butt" stroke-linejoin="round" stroke="rgb(100%, 89.803922%, 26.27451%)" stroke-opacity="0.8" stroke-miterlimit="10" d="M 360.691406 375.675781 L 360.691406 342.734375 "/>
<path fill="none" stroke-width="1.066978" stroke-linecap="butt" stroke-linejoin="round" stroke="rgb(100%, 91.372549%, 26.666667%)" stroke-opacity="0.8" stroke-miterlimit="10" d="M 313.070312 369.21875 L 313.070312 352.867188 "/>
<path fill="none" stroke-width="1.066978" stroke-linecap="butt" stroke-linejoin="round" stroke="rgb(100%, 91.372549%, 26.666667%)" stroke-opacity="0.8" stroke-miterlimit="10" d="M 341.265625 361.683594 L 341.265625 346.867188 "/>
<path fill="none" stroke-width="1.066978" stroke-linecap="butt" stroke-linejoin="round" stroke="rgb(100%, 90.196078%, 25.882353%)" stroke-opacity="0.8" stroke-miterlimit="10" d="M 457.179688 351.640625 L 457.179688 322.207031 "/>
<path fill="none" stroke-width="1.066978" stroke-linecap="butt" stroke-linejoin="round" stroke="rgb(100%, 91.764706%, 27.058824%)" stroke-opacity="0.8" stroke-miterlimit="10" d="M 327.363281 358.261719 L 327.363281 349.828125 "/>
<path fill="none" stroke-width="1.066978" stroke-linecap="butt" stroke-linejoin="round" stroke="rgb(100%, 90.980392%, 26.27451%)" stroke-opacity="0.8" stroke-miterlimit="10" d="M 288.925781 334.382812 L 288.925781 358.003906 "/>
<path fill="none" stroke-width="1.066978" stroke-linecap="butt" stroke-linejoin="round" stroke="rgb(100%, 91.372549%, 27.058824%)" stroke-opacity="0.8" stroke-miterlimit="10" d="M 213.375 362.8125 L 213.375 374.078125 "/>
<path fill="none" stroke-width="1.066978" stroke-linecap="butt" stroke-linejoin="round" stroke="rgb(100%, 91.764706%, 27.058824%)" stroke-opacity="0.8" stroke-miterlimit="10" d="M 102.550781 405.949219 L 102.550781 397.660156 "/>
<path fill="none" stroke-width="1.066978" stroke-linecap="butt" stroke-linejoin="round" stroke="rgb(100%, 89.803922%, 26.666667%)" stroke-opacity="0.8" stroke-miterlimit="10" d="M 435.863281 292.945312 L 435.863281 326.742188 "/>
<path fill="none" stroke-width="1.066978" stroke-linecap="butt" stroke-linejoin="round" stroke="rgb(100%, 91.372549%, 27.058824%)" stroke-opacity="0.8" stroke-miterlimit="10" d="M 232.710938 356.957031 L 232.710938 369.964844 "/>
<path fill="none" stroke-width="1.066978" stroke-linecap="butt" stroke-linejoin="round" stroke="rgb(99.607843%, 89.411765%, 27.058824%)" stroke-opacity="0.8" stroke-miterlimit="10" d="M 351.992188 380.746094 L 351.992188 344.585938 "/>
<path fill="none" stroke-width="1.066978" stroke-linecap="butt" stroke-linejoin="round" stroke="rgb(100%, 91.764706%, 27.45098%)" stroke-opacity="0.8" stroke-miterlimit="10" d="M 389.40625 334.921875 L 389.40625 336.625 "/>
<path fill="none" stroke-width="1.066978" stroke-linecap="butt" stroke-linejoin="round" stroke="rgb(100%, 91.764706%, 27.45098%)" stroke-opacity="0.8" stroke-miterlimit="10" d="M 410.449219 335.460938 L 410.449219 332.148438 "/>
<path fill="none" stroke-width="1.066978" stroke-linecap="butt" stroke-linejoin="round" stroke="rgb(100%, 90.980392%, 26.27451%)" stroke-opacity="0.8" stroke-miterlimit="10" d="M 204.066406 396.523438 L 204.066406 376.058594 "/>
<path fill="none" stroke-width="1.066978" stroke-linecap="butt" stroke-linejoin="round" stroke="rgb(100%, 90.588235%, 25.882353%)" stroke-opacity="0.8" stroke-miterlimit="10" d="M 525.257812 279.007812 L 525.257812 307.71875 "/>
<path fill="none" stroke-width="1.066978" stroke-linecap="butt" stroke-linejoin="round" stroke="rgb(100%, 91.764706%, 27.058824%)" stroke-opacity="0.8" stroke-miterlimit="10" d="M 526.464844 318.316406 L 526.464844 307.464844 "/>
<path fill="none" stroke-width="1.066978" stroke-linecap="butt" stroke-linejoin="round" stroke="rgb(100%, 91.764706%, 27.45098%)" stroke-opacity="0.8" stroke-miterlimit="10" d="M 466.128906 321.761719 L 466.128906 320.300781 "/>
<path fill="none" stroke-width="1.066978" stroke-linecap="butt" stroke-linejoin="round" stroke="rgb(100%, 90.980392%, 26.27451%)" stroke-opacity="0.8" stroke-miterlimit="10" d="M 384.085938 358.15625 L 384.085938 337.757812 "/>
<path fill="none" stroke-width="1.066978" stroke-linecap="butt" stroke-linejoin="round" stroke="rgb(100%, 91.764706%, 27.45098%)" stroke-opacity="0.8" stroke-miterlimit="10" d="M 315.308594 347.929688 L 315.308594 352.390625 "/>
<path fill="none" stroke-width="1.066978" stroke-linecap="butt" stroke-linejoin="round" stroke="rgb(100%, 91.764706%, 27.45098%)" stroke-opacity="0.8" stroke-miterlimit="10" d="M 385.046875 337.125 L 385.046875 337.554688 "/>
<path fill="none" stroke-width="1.066978" stroke-linecap="butt" stroke-linejoin="round" stroke="rgb(100%, 91.764706%, 27.058824%)" stroke-opacity="0.8" stroke-miterlimit="10" d="M 409.597656 324.328125 L 409.597656 332.328125 "/>
<path fill="none" stroke-width="1.066978" stroke-linecap="butt" stroke-linejoin="round" stroke="rgb(100%, 89.803922%, 26.666667%)" stroke-opacity="0.8" stroke-miterlimit="10" d="M 445.261719 359.03125 L 445.261719 324.742188 "/>
<path fill="none" stroke-width="1.066978" stroke-linecap="butt" stroke-linejoin="round" stroke="rgb(100%, 91.764706%, 27.45098%)" stroke-opacity="0.8" stroke-miterlimit="10" d="M 265.664062 357.132812 L 265.664062 362.953125 "/>
<path fill="none" stroke-width="1.066978" stroke-linecap="butt" stroke-linejoin="round" stroke="rgb(100%, 91.764706%, 27.45098%)" stroke-opacity="0.8" stroke-miterlimit="10" d="M 273.378906 368.585938 L 273.378906 361.3125 "/>
<path fill="none" stroke-width="1.066978" stroke-linecap="butt" stroke-linejoin="round" stroke="rgb(100%, 91.372549%, 27.058824%)" stroke-opacity="0.8" stroke-miterlimit="10" d="M 288.671875 369.945312 L 288.671875 358.058594 "/>
<path fill="none" stroke-width="1.066978" stroke-linecap="butt" stroke-linejoin="round" stroke="rgb(100%, 90.980392%, 26.27451%)" stroke-opacity="0.8" stroke-miterlimit="10" d="M 194.042969 354.855469 L 194.042969 378.191406 "/>
<path fill="none" stroke-width="1.066978" stroke-linecap="butt" stroke-linejoin="round" stroke="rgb(100%, 90.980392%, 26.27451%)" stroke-opacity="0.8" stroke-miterlimit="10" d="M 374.640625 319.253906 L 374.640625 339.765625 "/>
<path fill="none" stroke-width="1.066978" stroke-linecap="butt" stroke-linejoin="round" stroke="rgb(100%, 91.372549%, 27.058824%)" stroke-opacity="0.8" stroke-miterlimit="10" d="M 380.675781 349.425781 L 380.675781 338.484375 "/>
<path fill="none" stroke-width="1.066978" stroke-linecap="butt" stroke-linejoin="round" stroke="rgb(100%, 90.196078%, 25.882353%)" stroke-opacity="0.8" stroke-miterlimit="10" d="M 498.007812 343.589844 L 498.007812 313.519531 "/>
<path fill="none" stroke-width="1.066978" stroke-linecap="butt" stroke-linejoin="round" stroke="rgb(100%, 91.764706%, 27.058824%)" stroke-opacity="0.8" stroke-miterlimit="10" d="M 250.515625 356.710938 L 250.515625 366.175781 "/>
<path fill="none" stroke-width="1.066978" stroke-linecap="butt" stroke-linejoin="round" stroke="rgb(100%, 91.764706%, 27.058824%)" stroke-opacity="0.8" stroke-miterlimit="10" d="M 191.457031 387.886719 L 191.457031 378.742188 "/>
<path fill="none" stroke-width="1.066978" stroke-linecap="butt" stroke-linejoin="round" stroke="rgb(100%, 90.980392%, 26.27451%)" stroke-opacity="0.8" stroke-miterlimit="10" d="M 439.28125 347.410156 L 439.28125 326.015625 "/>
<path fill="none" stroke-width="1.066978" stroke-linecap="butt" stroke-linejoin="round" stroke="rgb(100%, 89.803922%, 26.27451%)" stroke-opacity="0.8" stroke-miterlimit="10" d="M 379.480469 371.542969 L 379.480469 338.738281 "/>
<path fill="none" stroke-width="1.066978" stroke-linecap="butt" stroke-linejoin="round" stroke="rgb(100%, 91.372549%, 27.058824%)" stroke-opacity="0.8" stroke-miterlimit="10" d="M 242.910156 380.867188 L 242.910156 367.796875 "/>
<path fill="none" stroke-width="1.066978" stroke-linecap="butt" stroke-linejoin="round" stroke="rgb(100%, 91.372549%, 26.666667%)" stroke-opacity="0.8" stroke-miterlimit="10" d="M 366.472656 358.515625 L 366.472656 341.503906 "/>
<path fill="none" stroke-width="1.066978" stroke-linecap="butt" stroke-linejoin="round" stroke="rgb(100%, 91.372549%, 26.666667%)" stroke-opacity="0.8" stroke-miterlimit="10" d="M 428.65625 310.855469 L 428.65625 328.273438 "/>
<path fill="none" stroke-width="1.066978" stroke-linecap="butt" stroke-linejoin="round" stroke="rgb(100%, 89.803922%, 26.666667%)" stroke-opacity="0.8" stroke-miterlimit="10" d="M 250.390625 330.160156 L 250.390625 366.203125 "/>
<path fill="none" stroke-width="1.066978" stroke-linecap="butt" stroke-linejoin="round" stroke="rgb(100%, 91.372549%, 26.666667%)" stroke-opacity="0.8" stroke-miterlimit="10" d="M 477.796875 331.261719 L 477.796875 317.820312 "/>
<path fill="none" stroke-width="1.066978" stroke-linecap="butt" stroke-linejoin="round" stroke="rgb(100%, 91.372549%, 26.666667%)" stroke-opacity="0.8" stroke-miterlimit="10" d="M 348.328125 358.78125 L 348.328125 345.367188 "/>
<path fill="none" stroke-width="1.066978" stroke-linecap="butt" stroke-linejoin="round" stroke="rgb(100%, 91.764706%, 27.45098%)" stroke-opacity="0.8" stroke-miterlimit="10" d="M 36.863281 410.503906 L 36.863281 411.636719 "/>
<path fill="none" stroke-width="1.066978" stroke-linecap="butt" stroke-linejoin="round" stroke="rgb(100%, 91.764706%, 27.45098%)" stroke-opacity="0.8" stroke-miterlimit="10" d="M 63.65625 405.796875 L 63.65625 405.933594 "/>
<path fill="none" stroke-width="1.066978" stroke-linecap="butt" stroke-linejoin="round" stroke="rgb(100%, 91.764706%, 27.058824%)" stroke-opacity="0.8" stroke-miterlimit="10" d="M 356.316406 335.796875 L 356.316406 343.664062 "/>
<path fill="none" stroke-width="1.066978" stroke-linecap="butt" stroke-linejoin="round" stroke="rgb(100%, 90.588235%, 25.882353%)" stroke-opacity="0.8" stroke-miterlimit="10" d="M 238.5625 342.902344 L 238.5625 368.71875 "/>
<path fill="none" stroke-width="1.066978" stroke-linecap="butt" stroke-linejoin="round" stroke="rgb(100%, 91.764706%, 27.058824%)" stroke-opacity="0.8" stroke-miterlimit="10" d="M 272.332031 371.296875 L 272.332031 361.535156 "/>
<path fill="none" stroke-width="1.066978" stroke-linecap="butt" stroke-linejoin="round" stroke="rgb(100%, 90.980392%, 26.27451%)" stroke-opacity="0.8" stroke-miterlimit="10" d="M 332.882812 326.320312 L 332.882812 348.652344 "/>
<path fill="none" stroke-width="1.066978" stroke-linecap="butt" stroke-linejoin="round" stroke="rgb(100%, 91.764706%, 27.45098%)" stroke-opacity="0.8" stroke-miterlimit="10" d="M 304.140625 357.203125 L 304.140625 354.765625 "/>
<path fill="none" stroke-width="1.066978" stroke-linecap="butt" stroke-linejoin="round" stroke="rgb(100%, 90.588235%, 25.882353%)" stroke-opacity="0.8" stroke-miterlimit="10" d="M 230.234375 395.644531 L 230.234375 370.492188 "/>
<path fill="none" stroke-width="1.066978" stroke-linecap="butt" stroke-linejoin="round" stroke="rgb(100%, 91.764706%, 27.45098%)" stroke-opacity="0.8" stroke-miterlimit="10" d="M 197.976562 373.746094 L 197.976562 377.355469 "/>
<path fill="none" stroke-width="1.066978" stroke-linecap="butt" stroke-linejoin="round" stroke="rgb(100%, 91.764706%, 27.45098%)" stroke-opacity="0.8" stroke-miterlimit="10" d="M 280.183594 354.363281 L 280.183594 359.863281 "/>
<path fill="none" stroke-width="1.066978" stroke-linecap="butt" stroke-linejoin="round" stroke="rgb(99.607843%, 89.411765%, 27.058824%)" stroke-opacity="0.8" stroke-miterlimit="10" d="M 520.402344 345.578125 L 520.402344 308.753906 "/>
<path fill="none" stroke-width="1.066978" stroke-linecap="butt" stroke-linejoin="round" stroke="rgb(100%, 90.196078%, 25.882353%)" stroke-opacity="0.8" stroke-miterlimit="10" d="M 471.972656 349.03125 L 471.972656 319.058594 "/>
<path fill="none" stroke-width="1.066978" stroke-linecap="butt" stroke-linejoin="round" stroke="rgb(100%, 90.980392%, 26.27451%)" stroke-opacity="0.8" stroke-miterlimit="10" d="M 310.957031 330.121094 L 310.957031 353.316406 "/>
<path fill="none" stroke-width="1.066978" stroke-linecap="butt" stroke-linejoin="round" stroke="rgb(100%, 90.588235%, 25.882353%)" stroke-opacity="0.8" stroke-miterlimit="10" d="M 279.148438 332.789062 L 279.148438 360.085938 "/>
<path fill="none" stroke-width="1.066978" stroke-linecap="butt" stroke-linejoin="round" stroke="rgb(96.078431%, 86.666667%, 30.196078%)" stroke-opacity="0.8" stroke-miterlimit="10" d="M 95.324219 342.695312 L 95.324219 399.195312 "/>
<path fill="none" stroke-width="1.066978" stroke-linecap="butt" stroke-linejoin="round" stroke="rgb(100%, 90.588235%, 25.882353%)" stroke-opacity="0.8" stroke-miterlimit="10" d="M 288.996094 382.613281 L 288.996094 357.988281 "/>
<path fill="none" stroke-width="1.066978" stroke-linecap="butt" stroke-linejoin="round" stroke="rgb(100%, 91.764706%, 27.45098%)" stroke-opacity="0.8" stroke-miterlimit="10" d="M 380.167969 345.902344 L 380.167969 338.589844 "/>
<path fill="none" stroke-width="1.066978" stroke-linecap="butt" stroke-linejoin="round" stroke="rgb(100%, 90.588235%, 25.882353%)" stroke-opacity="0.8" stroke-miterlimit="10" d="M 162.882812 356.523438 L 162.882812 384.824219 "/>
<path fill="none" stroke-width="1.066978" stroke-linecap="butt" stroke-linejoin="round" stroke="rgb(100%, 91.764706%, 27.058824%)" stroke-opacity="0.8" stroke-miterlimit="10" d="M 400.410156 324.734375 L 400.410156 334.285156 "/>
<path fill="none" stroke-width="1.066978" stroke-linecap="butt" stroke-linejoin="round" stroke="rgb(100%, 91.372549%, 27.058824%)" stroke-opacity="0.8" stroke-miterlimit="10" d="M 407.347656 345.042969 L 407.347656 332.808594 "/>
<path fill="none" stroke-width="1.066978" stroke-linecap="butt" stroke-linejoin="round" stroke="rgb(98.431373%, 88.627451%, 28.235294%)" stroke-opacity="0.8" stroke-miterlimit="10" d="M 169.988281 338.613281 L 169.988281 383.308594 "/>
<path fill="none" stroke-width="1.066978" stroke-linecap="butt" stroke-linejoin="round" stroke="rgb(98.039216%, 88.235294%, 28.627451%)" stroke-opacity="0.8" stroke-miterlimit="10" d="M 433.320312 282.019531 L 433.320312 327.28125 "/>
<path fill="none" stroke-width="1.066978" stroke-linecap="butt" stroke-linejoin="round" stroke="rgb(100%, 91.764706%, 27.45098%)" stroke-opacity="0.8" stroke-miterlimit="10" d="M 264.839844 362.398438 L 264.839844 363.128906 "/>
<path fill="none" stroke-width="1.066978" stroke-linecap="butt" stroke-linejoin="round" stroke="rgb(100%, 90.980392%, 26.27451%)" stroke-opacity="0.8" stroke-miterlimit="10" d="M 246.425781 389.070312 L 246.425781 367.046875 "/>
<path fill="none" stroke-width="1.066978" stroke-linecap="butt" stroke-linejoin="round" stroke="rgb(100%, 91.764706%, 27.058824%)" stroke-opacity="0.8" stroke-miterlimit="10" d="M 408.035156 341.128906 L 408.035156 332.660156 "/>
<path fill="none" stroke-width="1.066978" stroke-linecap="butt" stroke-linejoin="round" stroke="rgb(99.215686%, 89.019608%, 27.45098%)" stroke-opacity="0.8" stroke-miterlimit="10" d="M 347.902344 386.484375 L 347.902344 345.457031 "/>
<path fill="none" stroke-width="1.066978" stroke-linecap="butt" stroke-linejoin="round" stroke="rgb(100%, 90.980392%, 26.27451%)" stroke-opacity="0.8" stroke-miterlimit="10" d="M 257.550781 344.921875 L 257.550781 364.679688 "/>
<path fill="none" stroke-width="1.066978" stroke-linecap="butt" stroke-linejoin="round" stroke="rgb(100%, 91.372549%, 27.058824%)" stroke-opacity="0.8" stroke-miterlimit="10" d="M 159.953125 398.375 L 159.953125 385.445312 "/>
<path fill="none" stroke-width="1.066978" stroke-linecap="butt" stroke-linejoin="round" stroke="rgb(100%, 91.764706%, 27.058824%)" stroke-opacity="0.8" stroke-miterlimit="10" d="M 414.710938 321.03125 L 414.710938 331.242188 "/>
<path fill="none" stroke-width="1.066978" stroke-linecap="butt" stroke-linejoin="round" stroke="rgb(100%, 91.764706%, 27.45098%)" stroke-opacity="0.8" stroke-miterlimit="10" d="M 170.773438 380.707031 L 170.773438 383.144531 "/>
<path fill="none" stroke-width="1.066978" stroke-linecap="butt" stroke-linejoin="round" stroke="rgb(100%, 91.372549%, 26.666667%)" stroke-opacity="0.8" stroke-miterlimit="10" d="M 74.828125 386.855469 L 74.828125 403.558594 "/>
<path fill="none" stroke-width="1.066978" stroke-linecap="butt" stroke-linejoin="round" stroke="rgb(100%, 90.196078%, 25.882353%)" stroke-opacity="0.8" stroke-miterlimit="10" d="M 419.113281 360.5 L 419.113281 330.304688 "/>
<path fill="none" stroke-width="1.066978" stroke-linecap="butt" stroke-linejoin="round" stroke="rgb(100%, 91.764706%, 27.45098%)" stroke-opacity="0.8" stroke-miterlimit="10" d="M 406.894531 333.507812 L 406.894531 332.90625 "/>
<path fill="none" stroke-width="1.066978" stroke-linecap="butt" stroke-linejoin="round" stroke="rgb(100%, 91.372549%, 27.058824%)" stroke-opacity="0.8" stroke-miterlimit="10" d="M 371.339844 352.460938 L 371.339844 340.46875 "/>
<path fill="none" stroke-width="1.066978" stroke-linecap="butt" stroke-linejoin="round" stroke="rgb(100%, 91.372549%, 26.666667%)" stroke-opacity="0.8" stroke-miterlimit="10" d="M 23.234375 397.671875 L 23.234375 414.535156 "/>
<path fill="none" stroke-width="1.066978" stroke-linecap="butt" stroke-linejoin="round" stroke="rgb(100%, 91.764706%, 27.45098%)" stroke-opacity="0.8" stroke-miterlimit="10" d="M 269.859375 361.488281 L 269.859375 362.0625 "/>
<path fill="none" stroke-width="1.066978" stroke-linecap="butt" stroke-linejoin="round" stroke="rgb(100%, 90.980392%, 26.27451%)" stroke-opacity="0.8" stroke-miterlimit="10" d="M 312.925781 330.550781 L 312.925781 352.898438 "/>
<path fill="none" stroke-width="1.066978" stroke-linecap="butt" stroke-linejoin="round" stroke="rgb(99.607843%, 89.411765%, 27.058824%)" stroke-opacity="0.8" stroke-miterlimit="10" d="M 446.277344 361.132812 L 446.277344 324.523438 "/>
<path fill="none" stroke-width="1.066978" stroke-linecap="butt" stroke-linejoin="round" stroke="rgb(100%, 91.764706%, 27.45098%)" stroke-opacity="0.8" stroke-miterlimit="10" d="M 339.292969 351.957031 L 339.292969 347.289062 "/>
<path fill="none" stroke-width="1.066978" stroke-linecap="butt" stroke-linejoin="round" stroke="rgb(100%, 91.764706%, 27.058824%)" stroke-opacity="0.8" stroke-miterlimit="10" d="M 149.890625 378.402344 L 149.890625 387.585938 "/>
<path fill="none" stroke-width="1.066978" stroke-linecap="butt" stroke-linejoin="round" stroke="rgb(0%, 12.54902%, 30.196078%)" stroke-opacity="0.8" stroke-miterlimit="10" d="M 721.105469 20.167969 L 721.105469 266.050781 "/>
<path fill="none" stroke-width="1.066978" stroke-linecap="butt" stroke-linejoin="round" stroke="rgb(0%, 12.54902%, 30.196078%)" stroke-opacity="0.8" stroke-miterlimit="10" d="M 721.105469 20.167969 L 721.105469 266.050781 "/>
<path fill-rule="nonzero" fill="rgb(18.431373%, 30.980392%, 30.980392%)" fill-opacity="0.901961" stroke-width="0.708661" stroke-linecap="round" stroke-linejoin="round" stroke="rgb(18.431373%, 30.980392%, 30.980392%)" stroke-opacity="0.901961" stroke-miterlimit="10" d="M 306.226562 343.53125 C 306.226562 346.671875 303.679688 349.21875 300.535156 349.21875 C 297.394531 349.21875 294.847656 346.671875 294.847656 343.53125 C 294.847656 340.386719 297.394531 337.839844 300.535156 337.839844 C 303.679688 337.839844 306.226562 340.386719 306.226562 343.53125 "/>
<path fill-rule="nonzero" fill="rgb(18.431373%, 30.980392%, 30.980392%)" fill-opacity="0.901961" stroke-width="0.708661" stroke-linecap="round" stroke-linejoin="round" stroke="rgb(18.431373%, 30.980392%, 30.980392%)" stroke-opacity="0.901961" stroke-miterlimit="10" d="M 164.011719 339.246094 C 164.011719 342.386719 161.464844 344.933594 158.324219 344.933594 C 155.179688 344.933594 152.632812 342.386719 152.632812 339.246094 C 152.632812 336.101562 155.179688 333.554688 158.324219 333.554688 C 161.464844 333.554688 164.011719 336.101562 164.011719 339.246094 "/>
<path fill-rule="nonzero" fill="rgb(18.431373%, 30.980392%, 30.980392%)" fill-opacity="0.901961" stroke-width="0.708661" stroke-linecap="round" stroke-linejoin="round" stroke="rgb(18.431373%, 30.980392%, 30.980392%)" stroke-opacity="0.901961" stroke-miterlimit="10" d="M 368.726562 423.492188 C 368.726562 426.636719 366.179688 429.183594 363.039062 429.183594 C 359.894531 429.183594 357.347656 426.636719 357.347656 423.492188 C 357.347656 420.351562 359.894531 417.804688 363.039062 417.804688 C 366.179688 417.804688 368.726562 420.351562 368.726562 423.492188 "/>
<path fill-rule="nonzero" fill="rgb(18.431373%, 30.980392%, 30.980392%)" fill-opacity="0.901961" stroke-width="0.708661" stroke-linecap="round" stroke-linejoin="round" stroke="rgb(18.431373%, 30.980392%, 30.980392%)" stroke-opacity="0.901961" stroke-miterlimit="10" d="M 323.949219 373.625 C 323.949219 376.765625 321.402344 379.3125 318.261719 379.3125 C 315.117188 379.3125 312.570312 376.765625 312.570312 373.625 C 312.570312 370.480469 315.117188 367.933594 318.261719 367.933594 C 321.402344 367.933594 323.949219 370.480469 323.949219 373.625 "/>
<path fill-rule="nonzero" fill="rgb(18.431373%, 30.980392%, 30.980392%)" fill-opacity="0.901961" stroke-width="0.708661" stroke-linecap="round" stroke-linejoin="round" stroke="rgb(18.431373%, 30.980392%, 30.980392%)" stroke-opacity="0.901961" stroke-miterlimit="10" d="M 257.988281 335.039062 C 257.988281 338.183594 255.441406 340.730469 252.300781 340.730469 C 249.15625 340.730469 246.609375 338.183594 246.609375 335.039062 C 246.609375 331.898438 249.15625 329.351562 252.300781 329.351562 C 255.441406 329.351562 257.988281 331.898438 257.988281 335.039062 "/>
<path fill-rule="nonzero" fill="rgb(18.431373%, 30.980392%, 30.980392%)" fill-opacity="0.901961" stroke-width="0.708661" stroke-linecap="round" stroke-linejoin="round" stroke="rgb(18.431373%, 30.980392%, 30.980392%)" stroke-opacity="0.901961" stroke-miterlimit="10" d="M 328.273438 364.640625 C 328.273438 367.78125 325.722656 370.328125 322.582031 370.328125 C 319.441406 370.328125 316.894531 367.78125 316.894531 364.640625 C 316.894531 361.5 319.441406 358.953125 322.582031 358.953125 C 325.722656 358.953125 328.273438 361.5 328.273438 364.640625 "/>
<path fill-rule="nonzero" fill="rgb(18.431373%, 30.980392%, 30.980392%)" fill-opacity="0.901961" stroke-width="0.708661" stroke-linecap="round" stroke-linejoin="round" stroke="rgb(18.431373%, 30.980392%, 30.980392%)" stroke-opacity="0.901961" stroke-miterlimit="10" d="M 322.980469 335.660156 C 322.980469 338.804688 320.433594 341.351562 317.292969 341.351562 C 314.148438 341.351562 311.601562 338.804688 311.601562 335.660156 C 311.601562 332.519531 314.148438 329.972656 317.292969 329.972656 C 320.433594 329.972656 322.980469 332.519531 322.980469 335.660156 "/>
<path fill-rule="nonzero" fill="rgb(18.431373%, 30.980392%, 30.980392%)" fill-opacity="0.901961" stroke-width="0.708661" stroke-linecap="round" stroke-linejoin="round" stroke="rgb(18.431373%, 30.980392%, 30.980392%)" stroke-opacity="0.901961" stroke-miterlimit="10" d="M 232.292969 396.527344 C 232.292969 399.671875 229.746094 402.21875 226.605469 402.21875 C 223.464844 402.21875 220.914062 399.671875 220.914062 396.527344 C 220.914062 393.386719 223.464844 390.839844 226.605469 390.839844 C 229.746094 390.839844 232.292969 393.386719 232.292969 396.527344 "/>
<path fill-rule="nonzero" fill="rgb(18.431373%, 30.980392%, 30.980392%)" fill-opacity="0.901961" stroke-width="0.708661" stroke-linecap="round" stroke-linejoin="round" stroke="rgb(18.431373%, 30.980392%, 30.980392%)" stroke-opacity="0.901961" stroke-miterlimit="10" d="M 393.402344 353.613281 C 393.402344 356.757812 390.855469 359.304688 387.714844 359.304688 C 384.570312 359.304688 382.023438 356.757812 382.023438 353.613281 C 382.023438 350.472656 384.570312 347.925781 387.714844 347.925781 C 390.855469 347.925781 393.402344 350.472656 393.402344 353.613281 "/>
<path fill-rule="nonzero" fill="rgb(18.431373%, 30.980392%, 30.980392%)" fill-opacity="0.901961" stroke-width="0.708661" stroke-linecap="round" stroke-linejoin="round" stroke="rgb(18.431373%, 30.980392%, 30.980392%)" stroke-opacity="0.901961" stroke-miterlimit="10" d="M 472.265625 301.234375 C 472.265625 304.375 469.71875 306.921875 466.574219 306.921875 C 463.433594 306.921875 460.886719 304.375 460.886719 301.234375 C 460.886719 298.089844 463.433594 295.542969 466.574219 295.542969 C 469.71875 295.542969 472.265625 298.089844 472.265625 301.234375 "/>
<path fill-rule="nonzero" fill="rgb(18.431373%, 30.980392%, 30.980392%)" fill-opacity="0.901961" stroke-width="0.708661" stroke-linecap="round" stroke-linejoin="round" stroke="rgb(18.431373%, 30.980392%, 30.980392%)" stroke-opacity="0.901961" stroke-miterlimit="10" d="M 246.964844 403.945312 C 246.964844 407.089844 244.417969 409.636719 241.277344 409.636719 C 238.136719 409.636719 235.585938 407.089844 235.585938 403.945312 C 235.585938 400.804688 238.136719 398.257812 241.277344 398.257812 C 244.417969 398.257812 246.964844 400.804688 246.964844 403.945312 "/>
<path fill-rule="nonzero" fill="rgb(18.431373%, 30.980392%, 30.980392%)" fill-opacity="0.901961" stroke-width="0.708661" stroke-linecap="round" stroke-linejoin="round" stroke="rgb(18.431373%, 30.980392%, 30.980392%)" stroke-opacity="0.901961" stroke-miterlimit="10" d="M 211.613281 351.292969 C 211.613281 354.433594 209.0625 356.980469 205.921875 356.980469 C 202.78125 356.980469 200.234375 354.433594 200.234375 351.292969 C 200.234375 348.148438 202.78125 345.601562 205.921875 345.601562 C 209.0625 345.601562 211.613281 348.148438 211.613281 351.292969 "/>
<path fill-rule="nonzero" fill="rgb(18.431373%, 30.980392%, 30.980392%)" fill-opacity="0.901961" stroke-width="0.708661" stroke-linecap="round" stroke-linejoin="round" stroke="rgb(18.431373%, 30.980392%, 30.980392%)" stroke-opacity="0.901961" stroke-miterlimit="10" d="M 328.671875 372.671875 C 328.671875 375.8125 326.125 378.359375 322.984375 378.359375 C 319.839844 378.359375 317.292969 375.8125 317.292969 372.671875 C 317.292969 369.53125 319.839844 366.984375 322.984375 366.984375 C 326.125 366.984375 328.671875 369.53125 328.671875 372.671875 "/>
<path fill-rule="nonzero" fill="rgb(18.431373%, 30.980392%, 30.980392%)" fill-opacity="0.901961" stroke-width="0.708661" stroke-linecap="round" stroke-linejoin="round" stroke="rgb(18.431373%, 30.980392%, 30.980392%)" stroke-opacity="0.901961" stroke-miterlimit="10" d="M 253.832031 369.789062 C 253.832031 372.929688 251.285156 375.476562 248.144531 375.476562 C 245 375.476562 242.453125 372.929688 242.453125 369.789062 C 242.453125 366.644531 245 364.097656 248.144531 364.097656 C 251.285156 364.097656 253.832031 366.644531 253.832031 369.789062 "/>
<path fill-rule="nonzero" fill="rgb(18.431373%, 30.980392%, 30.980392%)" fill-opacity="0.901961" stroke-width="0.708661" stroke-linecap="round" stroke-linejoin="round" stroke="rgb(18.431373%, 30.980392%, 30.980392%)" stroke-opacity="0.901961" stroke-miterlimit="10" d="M 480.957031 336.617188 C 480.957031 339.757812 478.410156 342.304688 475.269531 342.304688 C 472.125 342.304688 469.578125 339.757812 469.578125 336.617188 C 469.578125 333.472656 472.125 330.925781 475.269531 330.925781 C 478.410156 330.925781 480.957031 333.472656 480.957031 336.617188 "/>
<path fill-rule="nonzero" fill="rgb(18.431373%, 30.980392%, 30.980392%)" fill-opacity="0.901961" stroke-width="0.708661" stroke-linecap="round" stroke-linejoin="round" stroke="rgb(18.431373%, 30.980392%, 30.980392%)" stroke-opacity="0.901961" stroke-miterlimit="10" d="M 244.894531 321.453125 C 244.894531 324.59375 242.347656 327.140625 239.207031 327.140625 C 236.066406 327.140625 233.519531 324.59375 233.519531 321.453125 C 233.519531 318.3125 236.066406 315.761719 239.207031 315.761719 C 242.347656 315.761719 244.894531 318.3125 244.894531 321.453125 "/>
<path fill-rule="nonzero" fill="rgb(18.431373%, 30.980392%, 30.980392%)" fill-opacity="0.901961" stroke-width="0.708661" stroke-linecap="round" stroke-linejoin="round" stroke="rgb(18.431373%, 30.980392%, 30.980392%)" stroke-opacity="0.901961" stroke-miterlimit="10" d="M 383.097656 334.917969 C 383.097656 338.0625 380.550781 340.609375 377.40625 340.609375 C 374.265625 340.609375 371.71875 338.0625 371.71875 334.917969 C 371.71875 331.777344 374.265625 329.230469 377.40625 329.230469 C 380.550781 329.230469 383.097656 331.777344 383.097656 334.917969 "/>
<path fill-rule="nonzero" fill="rgb(18.431373%, 30.980392%, 30.980392%)" fill-opacity="0.901961" stroke-width="0.708661" stroke-linecap="round" stroke-linejoin="round" stroke="rgb(18.431373%, 30.980392%, 30.980392%)" stroke-opacity="0.901961" stroke-miterlimit="10" d="M 460.945312 366.289062 C 460.945312 369.429688 458.398438 371.976562 455.253906 371.976562 C 452.113281 371.976562 449.566406 369.429688 449.566406 366.289062 C 449.566406 363.148438 452.113281 360.601562 455.253906 360.601562 C 458.398438 360.601562 460.945312 363.148438 460.945312 366.289062 "/>
<path fill-rule="nonzero" fill="rgb(18.431373%, 30.980392%, 30.980392%)" fill-opacity="0.901961" stroke-width="0.708661" stroke-linecap="round" stroke-linejoin="round" stroke="rgb(18.431373%, 30.980392%, 30.980392%)" stroke-opacity="0.901961" stroke-miterlimit="10" d="M 589.230469 307.878906 C 589.230469 311.019531 586.683594 313.566406 583.542969 313.566406 C 580.398438 313.566406 577.851562 311.019531 577.851562 307.878906 C 577.851562 304.738281 580.398438 302.1875 583.542969 302.1875 C 586.683594 302.1875 589.230469 304.738281 589.230469 307.878906 "/>
<path fill-rule="nonzero" fill="rgb(18.431373%, 30.980392%, 30.980392%)" fill-opacity="0.901961" stroke-width="0.708661" stroke-linecap="round" stroke-linejoin="round" stroke="rgb(18.431373%, 30.980392%, 30.980392%)" stroke-opacity="0.901961" stroke-miterlimit="10" d="M 346.796875 368.386719 C 346.796875 371.527344 344.25 374.074219 341.105469 374.074219 C 337.964844 374.074219 335.417969 371.527344 335.417969 368.386719 C 335.417969 365.246094 337.964844 362.699219 341.105469 362.699219 C 344.25 362.699219 346.796875 365.246094 346.796875 368.386719 "/>
<path fill-rule="nonzero" fill="rgb(18.431373%, 30.980392%, 30.980392%)" fill-opacity="0.901961" stroke-width="0.708661" stroke-linecap="round" stroke-linejoin="round" stroke="rgb(18.431373%, 30.980392%, 30.980392%)" stroke-opacity="0.901961" stroke-miterlimit="10" d="M 498.539062 348.339844 C 498.539062 351.480469 495.992188 354.027344 492.851562 354.027344 C 489.707031 354.027344 487.160156 351.480469 487.160156 348.339844 C 487.160156 345.199219 489.707031 342.652344 492.851562 342.652344 C 495.992188 342.652344 498.539062 345.199219 498.539062 348.339844 "/>
<path fill-rule="nonzero" fill="rgb(18.431373%, 30.980392%, 30.980392%)" fill-opacity="0.901961" stroke-width="0.708661" stroke-linecap="round" stroke-linejoin="round" stroke="rgb(18.431373%, 30.980392%, 30.980392%)" stroke-opacity="0.901961" stroke-miterlimit="10" d="M 366.378906 375.675781 C 366.378906 378.820312 363.832031 381.367188 360.691406 381.367188 C 357.546875 381.367188 355 378.820312 355 375.675781 C 355 372.535156 357.546875 369.988281 360.691406 369.988281 C 363.832031 369.988281 366.378906 372.535156 366.378906 375.675781 "/>
<path fill-rule="nonzero" fill="rgb(18.431373%, 30.980392%, 30.980392%)" fill-opacity="0.901961" stroke-width="0.708661" stroke-linecap="round" stroke-linejoin="round" stroke="rgb(18.431373%, 30.980392%, 30.980392%)" stroke-opacity="0.901961" stroke-miterlimit="10" d="M 318.757812 369.21875 C 318.757812 372.359375 316.210938 374.90625 313.070312 374.90625 C 309.925781 374.90625 307.378906 372.359375 307.378906 369.21875 C 307.378906 366.074219 309.925781 363.527344 313.070312 363.527344 C 316.210938 363.527344 318.757812 366.074219 318.757812 369.21875 "/>
<path fill-rule="nonzero" fill="rgb(18.431373%, 30.980392%, 30.980392%)" fill-opacity="0.901961" stroke-width="0.708661" stroke-linecap="round" stroke-linejoin="round" stroke="rgb(18.431373%, 30.980392%, 30.980392%)" stroke-opacity="0.901961" stroke-miterlimit="10" d="M 346.957031 361.683594 C 346.957031 364.824219 344.410156 367.371094 341.265625 367.371094 C 338.125 367.371094 335.578125 364.824219 335.578125 361.683594 C 335.578125 358.539062 338.125 355.992188 341.265625 355.992188 C 344.410156 355.992188 346.957031 358.539062 346.957031 361.683594 "/>
<path fill-rule="nonzero" fill="rgb(18.431373%, 30.980392%, 30.980392%)" fill-opacity="0.901961" stroke-width="0.708661" stroke-linecap="round" stroke-linejoin="round" stroke="rgb(18.431373%, 30.980392%, 30.980392%)" stroke-opacity="0.901961" stroke-miterlimit="10" d="M 462.867188 351.640625 C 462.867188 354.785156 460.320312 357.332031 457.179688 357.332031 C 454.039062 357.332031 451.488281 354.785156 451.488281 351.640625 C 451.488281 348.5 454.039062 345.953125 457.179688 345.953125 C 460.320312 345.953125 462.867188 348.5 462.867188 351.640625 "/>
<path fill-rule="nonzero" fill="rgb(18.431373%, 30.980392%, 30.980392%)" fill-opacity="0.901961" stroke-width="0.708661" stroke-linecap="round" stroke-linejoin="round" stroke="rgb(18.431373%, 30.980392%, 30.980392%)" stroke-opacity="0.901961" stroke-miterlimit="10" d="M 333.050781 358.261719 C 333.050781 361.402344 330.503906 363.949219 327.363281 363.949219 C 324.21875 363.949219 321.671875 361.402344 321.671875 358.261719 C 321.671875 355.117188 324.21875 352.570312 327.363281 352.570312 C 330.503906 352.570312 333.050781 355.117188 333.050781 358.261719 "/>
<path fill-rule="nonzero" fill="rgb(18.431373%, 30.980392%, 30.980392%)" fill-opacity="0.901961" stroke-width="0.708661" stroke-linecap="round" stroke-linejoin="round" stroke="rgb(18.431373%, 30.980392%, 30.980392%)" stroke-opacity="0.901961" stroke-miterlimit="10" d="M 294.617188 334.382812 C 294.617188 337.523438 292.070312 340.070312 288.925781 340.070312 C 285.785156 340.070312 283.238281 337.523438 283.238281 334.382812 C 283.238281 331.242188 285.785156 328.695312 288.925781 328.695312 C 292.070312 328.695312 294.617188 331.242188 294.617188 334.382812 "/>
<path fill-rule="nonzero" fill="rgb(18.431373%, 30.980392%, 30.980392%)" fill-opacity="0.901961" stroke-width="0.708661" stroke-linecap="round" stroke-linejoin="round" stroke="rgb(18.431373%, 30.980392%, 30.980392%)" stroke-opacity="0.901961" stroke-miterlimit="10" d="M 219.066406 362.8125 C 219.066406 365.957031 216.519531 368.503906 213.375 368.503906 C 210.234375 368.503906 207.6875 365.957031 207.6875 362.8125 C 207.6875 359.671875 210.234375 357.125 213.375 357.125 C 216.519531 357.125 219.066406 359.671875 219.066406 362.8125 "/>
<path fill-rule="nonzero" fill="rgb(18.431373%, 30.980392%, 30.980392%)" fill-opacity="0.901961" stroke-width="0.708661" stroke-linecap="round" stroke-linejoin="round" stroke="rgb(18.431373%, 30.980392%, 30.980392%)" stroke-opacity="0.901961" stroke-miterlimit="10" d="M 108.242188 405.949219 C 108.242188 409.089844 105.695312 411.636719 102.550781 411.636719 C 99.410156 411.636719 96.863281 409.089844 96.863281 405.949219 C 96.863281 402.804688 99.410156 400.257812 102.550781 400.257812 C 105.695312 400.257812 108.242188 402.804688 108.242188 405.949219 "/>
<path fill-rule="nonzero" fill="rgb(18.431373%, 30.980392%, 30.980392%)" fill-opacity="0.901961" stroke-width="0.708661" stroke-linecap="round" stroke-linejoin="round" stroke="rgb(18.431373%, 30.980392%, 30.980392%)" stroke-opacity="0.901961" stroke-miterlimit="10" d="M 441.550781 292.945312 C 441.550781 296.089844 439.003906 298.636719 435.863281 298.636719 C 432.722656 298.636719 430.175781 296.089844 430.175781 292.945312 C 430.175781 289.804688 432.722656 287.257812 435.863281 287.257812 C 439.003906 287.257812 441.550781 289.804688 441.550781 292.945312 "/>
<path fill-rule="nonzero" fill="rgb(18.431373%, 30.980392%, 30.980392%)" fill-opacity="0.901961" stroke-width="0.708661" stroke-linecap="round" stroke-linejoin="round" stroke="rgb(18.431373%, 30.980392%, 30.980392%)" stroke-opacity="0.901961" stroke-miterlimit="10" d="M 238.402344 356.957031 C 238.402344 360.101562 235.855469 362.648438 232.710938 362.648438 C 229.570312 362.648438 227.023438 360.101562 227.023438 356.957031 C 227.023438 353.816406 229.570312 351.269531 232.710938 351.269531 C 235.855469 351.269531 238.402344 353.816406 238.402344 356.957031 "/>
<path fill-rule="nonzero" fill="rgb(18.431373%, 30.980392%, 30.980392%)" fill-opacity="0.901961" stroke-width="0.708661" stroke-linecap="round" stroke-linejoin="round" stroke="rgb(18.431373%, 30.980392%, 30.980392%)" stroke-opacity="0.901961" stroke-miterlimit="10" d="M 357.683594 380.746094 C 357.683594 383.890625 355.136719 386.4375 351.992188 386.4375 C 348.851562 386.4375 346.304688 383.890625 346.304688 380.746094 C 346.304688 377.605469 348.851562 375.058594 351.992188 375.058594 C 355.136719 375.058594 357.683594 377.605469 357.683594 380.746094 "/>
<path fill-rule="nonzero" fill="rgb(18.431373%, 30.980392%, 30.980392%)" fill-opacity="0.901961" stroke-width="0.708661" stroke-linecap="round" stroke-linejoin="round" stroke="rgb(18.431373%, 30.980392%, 30.980392%)" stroke-opacity="0.901961" stroke-miterlimit="10" d="M 395.09375 334.921875 C 395.09375 338.0625 392.546875 340.609375 389.40625 340.609375 C 386.265625 340.609375 383.71875 338.0625 383.71875 334.921875 C 383.71875 331.777344 386.265625 329.230469 389.40625 329.230469 C 392.546875 329.230469 395.09375 331.777344 395.09375 334.921875 "/>
<path fill-rule="nonzero" fill="rgb(18.431373%, 30.980392%, 30.980392%)" fill-opacity="0.901961" stroke-width="0.708661" stroke-linecap="round" stroke-linejoin="round" stroke="rgb(18.431373%, 30.980392%, 30.980392%)" stroke-opacity="0.901961" stroke-miterlimit="10" d="M 416.136719 335.460938 C 416.136719 338.605469 413.589844 341.152344 410.449219 341.152344 C 407.304688 341.152344 404.757812 338.605469 404.757812 335.460938 C 404.757812 332.320312 407.304688 329.773438 410.449219 329.773438 C 413.589844 329.773438 416.136719 332.320312 416.136719 335.460938 "/>
<path fill-rule="nonzero" fill="rgb(18.431373%, 30.980392%, 30.980392%)" fill-opacity="0.901961" stroke-width="0.708661" stroke-linecap="round" stroke-linejoin="round" stroke="rgb(18.431373%, 30.980392%, 30.980392%)" stroke-opacity="0.901961" stroke-miterlimit="10" d="M 209.757812 396.523438 C 209.757812 399.664062 207.210938 402.210938 204.066406 402.210938 C 200.925781 402.210938 198.378906 399.664062 198.378906 396.523438 C 198.378906 393.378906 200.925781 390.832031 204.066406 390.832031 C 207.210938 390.832031 209.757812 393.378906 209.757812 396.523438 "/>
<path fill-rule="nonzero" fill="rgb(18.431373%, 30.980392%, 30.980392%)" fill-opacity="0.901961" stroke-width="0.708661" stroke-linecap="round" stroke-linejoin="round" stroke="rgb(18.431373%, 30.980392%, 30.980392%)" stroke-opacity="0.901961" stroke-miterlimit="10" d="M 530.949219 279.007812 C 530.949219 282.152344 528.402344 284.699219 525.257812 284.699219 C 522.117188 284.699219 519.570312 282.152344 519.570312 279.007812 C 519.570312 275.867188 522.117188 273.320312 525.257812 273.320312 C 528.402344 273.320312 530.949219 275.867188 530.949219 279.007812 "/>
<path fill-rule="nonzero" fill="rgb(18.431373%, 30.980392%, 30.980392%)" fill-opacity="0.901961" stroke-width="0.708661" stroke-linecap="round" stroke-linejoin="round" stroke="rgb(18.431373%, 30.980392%, 30.980392%)" stroke-opacity="0.901961" stroke-miterlimit="10" d="M 532.152344 318.316406 C 532.152344 321.460938 529.605469 324.007812 526.464844 324.007812 C 523.324219 324.007812 520.777344 321.460938 520.777344 318.316406 C 520.777344 315.175781 523.324219 312.628906 526.464844 312.628906 C 529.605469 312.628906 532.152344 315.175781 532.152344 318.316406 "/>
<path fill-rule="nonzero" fill="rgb(18.431373%, 30.980392%, 30.980392%)" fill-opacity="0.901961" stroke-width="0.708661" stroke-linecap="round" stroke-linejoin="round" stroke="rgb(18.431373%, 30.980392%, 30.980392%)" stroke-opacity="0.901961" stroke-miterlimit="10" d="M 471.816406 321.761719 C 471.816406 324.902344 469.269531 327.449219 466.128906 327.449219 C 462.988281 327.449219 460.441406 324.902344 460.441406 321.761719 C 460.441406 318.617188 462.988281 316.070312 466.128906 316.070312 C 469.269531 316.070312 471.816406 318.617188 471.816406 321.761719 "/>
<path fill-rule="nonzero" fill="rgb(18.431373%, 30.980392%, 30.980392%)" fill-opacity="0.901961" stroke-width="0.708661" stroke-linecap="round" stroke-linejoin="round" stroke="rgb(18.431373%, 30.980392%, 30.980392%)" stroke-opacity="0.901961" stroke-miterlimit="10" d="M 389.773438 358.15625 C 389.773438 361.296875 387.226562 363.84375 384.085938 363.84375 C 380.945312 363.84375 378.398438 361.296875 378.398438 358.15625 C 378.398438 355.015625 380.945312 352.46875 384.085938 352.46875 C 387.226562 352.46875 389.773438 355.015625 389.773438 358.15625 "/>
<path fill-rule="nonzero" fill="rgb(18.431373%, 30.980392%, 30.980392%)" fill-opacity="0.901961" stroke-width="0.708661" stroke-linecap="round" stroke-linejoin="round" stroke="rgb(18.431373%, 30.980392%, 30.980392%)" stroke-opacity="0.901961" stroke-miterlimit="10" d="M 321 347.929688 C 321 351.070312 318.453125 353.617188 315.308594 353.617188 C 312.167969 353.617188 309.621094 351.070312 309.621094 347.929688 C 309.621094 344.785156 312.167969 342.238281 315.308594 342.238281 C 318.453125 342.238281 321 344.785156 321 347.929688 "/>
<path fill-rule="nonzero" fill="rgb(18.431373%, 30.980392%, 30.980392%)" fill-opacity="0.901961" stroke-width="0.708661" stroke-linecap="round" stroke-linejoin="round" stroke="rgb(18.431373%, 30.980392%, 30.980392%)" stroke-opacity="0.901961" stroke-miterlimit="10" d="M 390.738281 337.125 C 390.738281 340.269531 388.191406 342.816406 385.046875 342.816406 C 381.90625 342.816406 379.359375 340.269531 379.359375 337.125 C 379.359375 333.984375 381.90625 331.4375 385.046875 331.4375 C 388.191406 331.4375 390.738281 333.984375 390.738281 337.125 "/>
<path fill-rule="nonzero" fill="rgb(18.431373%, 30.980392%, 30.980392%)" fill-opacity="0.901961" stroke-width="0.708661" stroke-linecap="round" stroke-linejoin="round" stroke="rgb(18.431373%, 30.980392%, 30.980392%)" stroke-opacity="0.901961" stroke-miterlimit="10" d="M 415.285156 324.328125 C 415.285156 327.46875 412.738281 330.015625 409.597656 330.015625 C 406.453125 330.015625 403.90625 327.46875 403.90625 324.328125 C 403.90625 321.1875 406.453125 318.636719 409.597656 318.636719 C 412.738281 318.636719 415.285156 321.1875 415.285156 324.328125 "/>
<path fill-rule="nonzero" fill="rgb(18.431373%, 30.980392%, 30.980392%)" fill-opacity="0.901961" stroke-width="0.708661" stroke-linecap="round" stroke-linejoin="round" stroke="rgb(18.431373%, 30.980392%, 30.980392%)" stroke-opacity="0.901961" stroke-miterlimit="10" d="M 450.949219 359.03125 C 450.949219 362.175781 448.402344 364.722656 445.261719 364.722656 C 442.117188 364.722656 439.570312 362.175781 439.570312 359.03125 C 439.570312 355.890625 442.117188 353.34375 445.261719 353.34375 C 448.402344 353.34375 450.949219 355.890625 450.949219 359.03125 "/>
<path fill-rule="nonzero" fill="rgb(18.431373%, 30.980392%, 30.980392%)" fill-opacity="0.901961" stroke-width="0.708661" stroke-linecap="round" stroke-linejoin="round" stroke="rgb(18.431373%, 30.980392%, 30.980392%)" stroke-opacity="0.901961" stroke-miterlimit="10" d="M 271.355469 357.132812 C 271.355469 360.273438 268.808594 362.820312 265.664062 362.820312 C 262.523438 362.820312 259.976562 360.273438 259.976562 357.132812 C 259.976562 353.988281 262.523438 351.441406 265.664062 351.441406 C 268.808594 351.441406 271.355469 353.988281 271.355469 357.132812 "/>
<path fill-rule="nonzero" fill="rgb(18.431373%, 30.980392%, 30.980392%)" fill-opacity="0.901961" stroke-width="0.708661" stroke-linecap="round" stroke-linejoin="round" stroke="rgb(18.431373%, 30.980392%, 30.980392%)" stroke-opacity="0.901961" stroke-miterlimit="10" d="M 279.070312 368.585938 C 279.070312 371.730469 276.523438 374.277344 273.378906 374.277344 C 270.238281 374.277344 267.691406 371.730469 267.691406 368.585938 C 267.691406 365.445312 270.238281 362.898438 273.378906 362.898438 C 276.523438 362.898438 279.070312 365.445312 279.070312 368.585938 "/>
<path fill-rule="nonzero" fill="rgb(18.431373%, 30.980392%, 30.980392%)" fill-opacity="0.901961" stroke-width="0.708661" stroke-linecap="round" stroke-linejoin="round" stroke="rgb(18.431373%, 30.980392%, 30.980392%)" stroke-opacity="0.901961" stroke-miterlimit="10" d="M 294.359375 369.945312 C 294.359375 373.085938 291.8125 375.632812 288.671875 375.632812 C 285.527344 375.632812 282.980469 373.085938 282.980469 369.945312 C 282.980469 366.800781 285.527344 364.253906 288.671875 364.253906 C 291.8125 364.253906 294.359375 366.800781 294.359375 369.945312 "/>
<path fill-rule="nonzero" fill="rgb(18.431373%, 30.980392%, 30.980392%)" fill-opacity="0.901961" stroke-width="0.708661" stroke-linecap="round" stroke-linejoin="round" stroke="rgb(18.431373%, 30.980392%, 30.980392%)" stroke-opacity="0.901961" stroke-miterlimit="10" d="M 199.734375 354.855469 C 199.734375 358 197.1875 360.546875 194.042969 360.546875 C 190.902344 360.546875 188.355469 358 188.355469 354.855469 C 188.355469 351.714844 190.902344 349.167969 194.042969 349.167969 C 197.1875 349.167969 199.734375 351.714844 199.734375 354.855469 "/>
<path fill-rule="nonzero" fill="rgb(18.431373%, 30.980392%, 30.980392%)" fill-opacity="0.901961" stroke-width="0.708661" stroke-linecap="round" stroke-linejoin="round" stroke="rgb(18.431373%, 30.980392%, 30.980392%)" stroke-opacity="0.901961" stroke-miterlimit="10" d="M 380.328125 319.253906 C 380.328125 322.398438 377.78125 324.945312 374.640625 324.945312 C 371.5 324.945312 368.953125 322.398438 368.953125 319.253906 C 368.953125 316.113281 371.5 313.566406 374.640625 313.566406 C 377.78125 313.566406 380.328125 316.113281 380.328125 319.253906 "/>
<path fill-rule="nonzero" fill="rgb(18.431373%, 30.980392%, 30.980392%)" fill-opacity="0.901961" stroke-width="0.708661" stroke-linecap="round" stroke-linejoin="round" stroke="rgb(18.431373%, 30.980392%, 30.980392%)" stroke-opacity="0.901961" stroke-miterlimit="10" d="M 386.363281 349.425781 C 386.363281 352.566406 383.816406 355.113281 380.675781 355.113281 C 377.535156 355.113281 374.984375 352.566406 374.984375 349.425781 C 374.984375 346.28125 377.535156 343.734375 380.675781 343.734375 C 383.816406 343.734375 386.363281 346.28125 386.363281 349.425781 "/>
<path fill-rule="nonzero" fill="rgb(18.431373%, 30.980392%, 30.980392%)" fill-opacity="0.901961" stroke-width="0.708661" stroke-linecap="round" stroke-linejoin="round" stroke="rgb(18.431373%, 30.980392%, 30.980392%)" stroke-opacity="0.901961" stroke-miterlimit="10" d="M 503.695312 343.589844 C 503.695312 346.734375 501.148438 349.28125 498.007812 349.28125 C 494.867188 349.28125 492.320312 346.734375 492.320312 343.589844 C 492.320312 340.449219 494.867188 337.902344 498.007812 337.902344 C 501.148438 337.902344 503.695312 340.449219 503.695312 343.589844 "/>
<path fill-rule="nonzero" fill="rgb(18.431373%, 30.980392%, 30.980392%)" fill-opacity="0.901961" stroke-width="0.708661" stroke-linecap="round" stroke-linejoin="round" stroke="rgb(18.431373%, 30.980392%, 30.980392%)" stroke-opacity="0.901961" stroke-miterlimit="10" d="M 256.203125 356.710938 C 256.203125 359.855469 253.65625 362.402344 250.515625 362.402344 C 247.371094 362.402344 244.824219 359.855469 244.824219 356.710938 C 244.824219 353.570312 247.371094 351.023438 250.515625 351.023438 C 253.65625 351.023438 256.203125 353.570312 256.203125 356.710938 "/>
<path fill-rule="nonzero" fill="rgb(18.431373%, 30.980392%, 30.980392%)" fill-opacity="0.901961" stroke-width="0.708661" stroke-linecap="round" stroke-linejoin="round" stroke="rgb(18.431373%, 30.980392%, 30.980392%)" stroke-opacity="0.901961" stroke-miterlimit="10" d="M 197.148438 387.886719 C 197.148438 391.027344 194.601562 393.578125 191.457031 393.578125 C 188.316406 393.578125 185.769531 391.027344 185.769531 387.886719 C 185.769531 384.746094 188.316406 382.199219 191.457031 382.199219 C 194.601562 382.199219 197.148438 384.746094 197.148438 387.886719 "/>
<path fill-rule="nonzero" fill="rgb(18.431373%, 30.980392%, 30.980392%)" fill-opacity="0.901961" stroke-width="0.708661" stroke-linecap="round" stroke-linejoin="round" stroke="rgb(18.431373%, 30.980392%, 30.980392%)" stroke-opacity="0.901961" stroke-miterlimit="10" d="M 444.96875 347.410156 C 444.96875 350.554688 442.421875 353.101562 439.28125 353.101562 C 436.136719 353.101562 433.589844 350.554688 433.589844 347.410156 C 433.589844 344.269531 436.136719 341.722656 439.28125 341.722656 C 442.421875 341.722656 444.96875 344.269531 444.96875 347.410156 "/>
<path fill-rule="nonzero" fill="rgb(18.431373%, 30.980392%, 30.980392%)" fill-opacity="0.901961" stroke-width="0.708661" stroke-linecap="round" stroke-linejoin="round" stroke="rgb(18.431373%, 30.980392%, 30.980392%)" stroke-opacity="0.901961" stroke-miterlimit="10" d="M 385.171875 371.542969 C 385.171875 374.6875 382.625 377.234375 379.480469 377.234375 C 376.339844 377.234375 373.792969 374.6875 373.792969 371.542969 C 373.792969 368.402344 376.339844 365.855469 379.480469 365.855469 C 382.625 365.855469 385.171875 368.402344 385.171875 371.542969 "/>
<path fill-rule="nonzero" fill="rgb(18.431373%, 30.980392%, 30.980392%)" fill-opacity="0.901961" stroke-width="0.708661" stroke-linecap="round" stroke-linejoin="round" stroke="rgb(18.431373%, 30.980392%, 30.980392%)" stroke-opacity="0.901961" stroke-miterlimit="10" d="M 248.601562 380.867188 C 248.601562 384.007812 246.050781 386.554688 242.910156 386.554688 C 239.769531 386.554688 237.222656 384.007812 237.222656 380.867188 C 237.222656 377.726562 239.769531 375.179688 242.910156 375.179688 C 246.050781 375.179688 248.601562 377.726562 248.601562 380.867188 "/>
<path fill-rule="nonzero" fill="rgb(18.431373%, 30.980392%, 30.980392%)" fill-opacity="0.901961" stroke-width="0.708661" stroke-linecap="round" stroke-linejoin="round" stroke="rgb(18.431373%, 30.980392%, 30.980392%)" stroke-opacity="0.901961" stroke-miterlimit="10" d="M 372.160156 358.515625 C 372.160156 361.660156 369.613281 364.207031 366.472656 364.207031 C 363.328125 364.207031 360.78125 361.660156 360.78125 358.515625 C 360.78125 355.375 363.328125 352.828125 366.472656 352.828125 C 369.613281 352.828125 372.160156 355.375 372.160156 358.515625 "/>
<path fill-rule="nonzero" fill="rgb(18.431373%, 30.980392%, 30.980392%)" fill-opacity="0.901961" stroke-width="0.708661" stroke-linecap="round" stroke-linejoin="round" stroke="rgb(18.431373%, 30.980392%, 30.980392%)" stroke-opacity="0.901961" stroke-miterlimit="10" d="M 434.347656 310.855469 C 434.347656 313.996094 431.800781 316.542969 428.65625 316.542969 C 425.515625 316.542969 422.96875 313.996094 422.96875 310.855469 C 422.96875 307.710938 425.515625 305.164062 428.65625 305.164062 C 431.800781 305.164062 434.347656 307.710938 434.347656 310.855469 "/>
<path fill-rule="nonzero" fill="rgb(18.431373%, 30.980392%, 30.980392%)" fill-opacity="0.901961" stroke-width="0.708661" stroke-linecap="round" stroke-linejoin="round" stroke="rgb(18.431373%, 30.980392%, 30.980392%)" stroke-opacity="0.901961" stroke-miterlimit="10" d="M 256.078125 330.160156 C 256.078125 333.304688 253.53125 335.851562 250.390625 335.851562 C 247.246094 335.851562 244.699219 333.304688 244.699219 330.160156 C 244.699219 327.019531 247.246094 324.472656 250.390625 324.472656 C 253.53125 324.472656 256.078125 327.019531 256.078125 330.160156 "/>
<path fill-rule="nonzero" fill="rgb(18.431373%, 30.980392%, 30.980392%)" fill-opacity="0.901961" stroke-width="0.708661" stroke-linecap="round" stroke-linejoin="round" stroke="rgb(18.431373%, 30.980392%, 30.980392%)" stroke-opacity="0.901961" stroke-miterlimit="10" d="M 483.488281 331.261719 C 483.488281 334.402344 480.941406 336.949219 477.796875 336.949219 C 474.65625 336.949219 472.109375 334.402344 472.109375 331.261719 C 472.109375 328.117188 474.65625 325.570312 477.796875 325.570312 C 480.941406 325.570312 483.488281 328.117188 483.488281 331.261719 "/>
<path fill-rule="nonzero" fill="rgb(18.431373%, 30.980392%, 30.980392%)" fill-opacity="0.901961" stroke-width="0.708661" stroke-linecap="round" stroke-linejoin="round" stroke="rgb(18.431373%, 30.980392%, 30.980392%)" stroke-opacity="0.901961" stroke-miterlimit="10" d="M 354.015625 358.78125 C 354.015625 361.921875 351.46875 364.46875 348.328125 364.46875 C 345.183594 364.46875 342.636719 361.921875 342.636719 358.78125 C 342.636719 355.636719 345.183594 353.089844 348.328125 353.089844 C 351.46875 353.089844 354.015625 355.636719 354.015625 358.78125 "/>
<path fill-rule="nonzero" fill="rgb(18.431373%, 30.980392%, 30.980392%)" fill-opacity="0.901961" stroke-width="0.708661" stroke-linecap="round" stroke-linejoin="round" stroke="rgb(18.431373%, 30.980392%, 30.980392%)" stroke-opacity="0.901961" stroke-miterlimit="10" d="M 42.550781 410.503906 C 42.550781 413.648438 40.003906 416.195312 36.863281 416.195312 C 33.71875 416.195312 31.171875 413.648438 31.171875 410.503906 C 31.171875 407.363281 33.71875 404.816406 36.863281 404.816406 C 40.003906 404.816406 42.550781 407.363281 42.550781 410.503906 "/>
<path fill-rule="nonzero" fill="rgb(18.431373%, 30.980392%, 30.980392%)" fill-opacity="0.901961" stroke-width="0.708661" stroke-linecap="round" stroke-linejoin="round" stroke="rgb(18.431373%, 30.980392%, 30.980392%)" stroke-opacity="0.901961" stroke-miterlimit="10" d="M 69.34375 405.796875 C 69.34375 408.9375 66.796875 411.484375 63.65625 411.484375 C 60.515625 411.484375 57.96875 408.9375 57.96875 405.796875 C 57.96875 402.652344 60.515625 400.105469 63.65625 400.105469 C 66.796875 400.105469 69.34375 402.652344 69.34375 405.796875 "/>
<path fill-rule="nonzero" fill="rgb(18.431373%, 30.980392%, 30.980392%)" fill-opacity="0.901961" stroke-width="0.708661" stroke-linecap="round" stroke-linejoin="round" stroke="rgb(18.431373%, 30.980392%, 30.980392%)" stroke-opacity="0.901961" stroke-miterlimit="10" d="M 362.007812 335.796875 C 362.007812 338.941406 359.460938 341.488281 356.316406 341.488281 C 353.175781 341.488281 350.628906 338.941406 350.628906 335.796875 C 350.628906 332.65625 353.175781 330.109375 356.316406 330.109375 C 359.460938 330.109375 362.007812 332.65625 362.007812 335.796875 "/>
<path fill-rule="nonzero" fill="rgb(18.431373%, 30.980392%, 30.980392%)" fill-opacity="0.901961" stroke-width="0.708661" stroke-linecap="round" stroke-linejoin="round" stroke="rgb(18.431373%, 30.980392%, 30.980392%)" stroke-opacity="0.901961" stroke-miterlimit="10" d="M 244.25 342.902344 C 244.25 346.046875 241.703125 348.59375 238.5625 348.59375 C 235.421875 348.59375 232.871094 346.046875 232.871094 342.902344 C 232.871094 339.761719 235.421875 337.214844 238.5625 337.214844 C 241.703125 337.214844 244.25 339.761719 244.25 342.902344 "/>
<path fill-rule="nonzero" fill="rgb(18.431373%, 30.980392%, 30.980392%)" fill-opacity="0.901961" stroke-width="0.708661" stroke-linecap="round" stroke-linejoin="round" stroke="rgb(18.431373%, 30.980392%, 30.980392%)" stroke-opacity="0.901961" stroke-miterlimit="10" d="M 278.019531 371.296875 C 278.019531 374.441406 275.472656 376.988281 272.332031 376.988281 C 269.1875 376.988281 266.640625 374.441406 266.640625 371.296875 C 266.640625 368.15625 269.1875 365.609375 272.332031 365.609375 C 275.472656 365.609375 278.019531 368.15625 278.019531 371.296875 "/>
<path fill-rule="nonzero" fill="rgb(18.431373%, 30.980392%, 30.980392%)" fill-opacity="0.901961" stroke-width="0.708661" stroke-linecap="round" stroke-linejoin="round" stroke="rgb(18.431373%, 30.980392%, 30.980392%)" stroke-opacity="0.901961" stroke-miterlimit="10" d="M 338.570312 326.320312 C 338.570312 329.460938 336.023438 332.007812 332.882812 332.007812 C 329.738281 332.007812 327.191406 329.460938 327.191406 326.320312 C 327.191406 323.179688 329.738281 320.632812 332.882812 320.632812 C 336.023438 320.632812 338.570312 323.179688 338.570312 326.320312 "/>
<path fill-rule="nonzero" fill="rgb(18.431373%, 30.980392%, 30.980392%)" fill-opacity="0.901961" stroke-width="0.708661" stroke-linecap="round" stroke-linejoin="round" stroke="rgb(18.431373%, 30.980392%, 30.980392%)" stroke-opacity="0.901961" stroke-miterlimit="10" d="M 309.832031 357.203125 C 309.832031 360.34375 307.285156 362.890625 304.140625 362.890625 C 301 362.890625 298.453125 360.34375 298.453125 357.203125 C 298.453125 354.058594 301 351.511719 304.140625 351.511719 C 307.285156 351.511719 309.832031 354.058594 309.832031 357.203125 "/>
<path fill-rule="nonzero" fill="rgb(18.431373%, 30.980392%, 30.980392%)" fill-opacity="0.901961" stroke-width="0.708661" stroke-linecap="round" stroke-linejoin="round" stroke="rgb(18.431373%, 30.980392%, 30.980392%)" stroke-opacity="0.901961" stroke-miterlimit="10" d="M 235.921875 395.644531 C 235.921875 398.789062 233.375 401.335938 230.234375 401.335938 C 227.09375 401.335938 224.542969 398.789062 224.542969 395.644531 C 224.542969 392.503906 227.09375 389.957031 230.234375 389.957031 C 233.375 389.957031 235.921875 392.503906 235.921875 395.644531 "/>
<path fill-rule="nonzero" fill="rgb(18.431373%, 30.980392%, 30.980392%)" fill-opacity="0.901961" stroke-width="0.708661" stroke-linecap="round" stroke-linejoin="round" stroke="rgb(18.431373%, 30.980392%, 30.980392%)" stroke-opacity="0.901961" stroke-miterlimit="10" d="M 203.667969 373.746094 C 203.667969 376.890625 201.121094 379.4375 197.976562 379.4375 C 194.835938 379.4375 192.289062 376.890625 192.289062 373.746094 C 192.289062 370.605469 194.835938 368.058594 197.976562 368.058594 C 201.121094 368.058594 203.667969 370.605469 203.667969 373.746094 "/>
<path fill-rule="nonzero" fill="rgb(18.431373%, 30.980392%, 30.980392%)" fill-opacity="0.901961" stroke-width="0.708661" stroke-linecap="round" stroke-linejoin="round" stroke="rgb(18.431373%, 30.980392%, 30.980392%)" stroke-opacity="0.901961" stroke-miterlimit="10" d="M 285.871094 354.363281 C 285.871094 357.507812 283.324219 360.054688 280.183594 360.054688 C 277.039062 360.054688 274.492188 357.507812 274.492188 354.363281 C 274.492188 351.222656 277.039062 348.675781 280.183594 348.675781 C 283.324219 348.675781 285.871094 351.222656 285.871094 354.363281 "/>
<path fill-rule="nonzero" fill="rgb(18.431373%, 30.980392%, 30.980392%)" fill-opacity="0.901961" stroke-width="0.708661" stroke-linecap="round" stroke-linejoin="round" stroke="rgb(18.431373%, 30.980392%, 30.980392%)" stroke-opacity="0.901961" stroke-miterlimit="10" d="M 526.089844 345.578125 C 526.089844 348.71875 523.542969 351.269531 520.402344 351.269531 C 517.257812 351.269531 514.710938 348.71875 514.710938 345.578125 C 514.710938 342.4375 517.257812 339.890625 520.402344 339.890625 C 523.542969 339.890625 526.089844 342.4375 526.089844 345.578125 "/>
<path fill-rule="nonzero" fill="rgb(18.431373%, 30.980392%, 30.980392%)" fill-opacity="0.901961" stroke-width="0.708661" stroke-linecap="round" stroke-linejoin="round" stroke="rgb(18.431373%, 30.980392%, 30.980392%)" stroke-opacity="0.901961" stroke-miterlimit="10" d="M 477.660156 349.03125 C 477.660156 352.175781 475.113281 354.722656 471.972656 354.722656 C 468.832031 354.722656 466.28125 352.175781 466.28125 349.03125 C 466.28125 345.890625 468.832031 343.34375 471.972656 343.34375 C 475.113281 343.34375 477.660156 345.890625 477.660156 349.03125 "/>
<path fill-rule="nonzero" fill="rgb(18.431373%, 30.980392%, 30.980392%)" fill-opacity="0.901961" stroke-width="0.708661" stroke-linecap="round" stroke-linejoin="round" stroke="rgb(18.431373%, 30.980392%, 30.980392%)" stroke-opacity="0.901961" stroke-miterlimit="10" d="M 316.648438 330.121094 C 316.648438 333.261719 314.101562 335.808594 310.957031 335.808594 C 307.816406 335.808594 305.269531 333.261719 305.269531 330.121094 C 305.269531 326.976562 307.816406 324.429688 310.957031 324.429688 C 314.101562 324.429688 316.648438 326.976562 316.648438 330.121094 "/>
<path fill-rule="nonzero" fill="rgb(18.431373%, 30.980392%, 30.980392%)" fill-opacity="0.901961" stroke-width="0.708661" stroke-linecap="round" stroke-linejoin="round" stroke="rgb(18.431373%, 30.980392%, 30.980392%)" stroke-opacity="0.901961" stroke-miterlimit="10" d="M 284.835938 332.789062 C 284.835938 335.929688 282.289062 338.476562 279.148438 338.476562 C 276.007812 338.476562 273.460938 335.929688 273.460938 332.789062 C 273.460938 329.648438 276.007812 327.097656 279.148438 327.097656 C 282.289062 327.097656 284.835938 329.648438 284.835938 332.789062 "/>
<path fill-rule="nonzero" fill="rgb(18.431373%, 30.980392%, 30.980392%)" fill-opacity="0.901961" stroke-width="0.708661" stroke-linecap="round" stroke-linejoin="round" stroke="rgb(18.431373%, 30.980392%, 30.980392%)" stroke-opacity="0.901961" stroke-miterlimit="10" d="M 101.015625 342.695312 C 101.015625 345.835938 98.46875 348.382812 95.324219 348.382812 C 92.183594 348.382812 89.636719 345.835938 89.636719 342.695312 C 89.636719 339.550781 92.183594 337.003906 95.324219 337.003906 C 98.46875 337.003906 101.015625 339.550781 101.015625 342.695312 "/>
<path fill-rule="nonzero" fill="rgb(18.431373%, 30.980392%, 30.980392%)" fill-opacity="0.901961" stroke-width="0.708661" stroke-linecap="round" stroke-linejoin="round" stroke="rgb(18.431373%, 30.980392%, 30.980392%)" stroke-opacity="0.901961" stroke-miterlimit="10" d="M 294.683594 382.613281 C 294.683594 385.753906 292.136719 388.304688 288.996094 388.304688 C 285.855469 388.304688 283.308594 385.753906 283.308594 382.613281 C 283.308594 379.472656 285.855469 376.925781 288.996094 376.925781 C 292.136719 376.925781 294.683594 379.472656 294.683594 382.613281 "/>
<path fill-rule="nonzero" fill="rgb(18.431373%, 30.980392%, 30.980392%)" fill-opacity="0.901961" stroke-width="0.708661" stroke-linecap="round" stroke-linejoin="round" stroke="rgb(18.431373%, 30.980392%, 30.980392%)" stroke-opacity="0.901961" stroke-miterlimit="10" d="M 385.859375 345.902344 C 385.859375 349.042969 383.3125 351.589844 380.167969 351.589844 C 377.027344 351.589844 374.480469 349.042969 374.480469 345.902344 C 374.480469 342.761719 377.027344 340.210938 380.167969 340.210938 C 383.3125 340.210938 385.859375 342.761719 385.859375 345.902344 "/>
<path fill-rule="nonzero" fill="rgb(18.431373%, 30.980392%, 30.980392%)" fill-opacity="0.901961" stroke-width="0.708661" stroke-linecap="round" stroke-linejoin="round" stroke="rgb(18.431373%, 30.980392%, 30.980392%)" stroke-opacity="0.901961" stroke-miterlimit="10" d="M 168.570312 356.523438 C 168.570312 359.664062 166.023438 362.214844 162.882812 362.214844 C 159.738281 362.214844 157.191406 359.664062 157.191406 356.523438 C 157.191406 353.382812 159.738281 350.835938 162.882812 350.835938 C 166.023438 350.835938 168.570312 353.382812 168.570312 356.523438 "/>
<path fill-rule="nonzero" fill="rgb(18.431373%, 30.980392%, 30.980392%)" fill-opacity="0.901961" stroke-width="0.708661" stroke-linecap="round" stroke-linejoin="round" stroke="rgb(18.431373%, 30.980392%, 30.980392%)" stroke-opacity="0.901961" stroke-miterlimit="10" d="M 406.097656 324.734375 C 406.097656 327.878906 403.550781 330.425781 400.410156 330.425781 C 397.269531 330.425781 394.71875 327.878906 394.71875 324.734375 C 394.71875 321.59375 397.269531 319.046875 400.410156 319.046875 C 403.550781 319.046875 406.097656 321.59375 406.097656 324.734375 "/>
<path fill-rule="nonzero" fill="rgb(18.431373%, 30.980392%, 30.980392%)" fill-opacity="0.901961" stroke-width="0.708661" stroke-linecap="round" stroke-linejoin="round" stroke="rgb(18.431373%, 30.980392%, 30.980392%)" stroke-opacity="0.901961" stroke-miterlimit="10" d="M 413.035156 345.042969 C 413.035156 348.183594 410.488281 350.730469 407.347656 350.730469 C 404.207031 350.730469 401.660156 348.183594 401.660156 345.042969 C 401.660156 341.898438 404.207031 339.351562 407.347656 339.351562 C 410.488281 339.351562 413.035156 341.898438 413.035156 345.042969 "/>
<path fill-rule="nonzero" fill="rgb(18.431373%, 30.980392%, 30.980392%)" fill-opacity="0.901961" stroke-width="0.708661" stroke-linecap="round" stroke-linejoin="round" stroke="rgb(18.431373%, 30.980392%, 30.980392%)" stroke-opacity="0.901961" stroke-miterlimit="10" d="M 175.679688 338.613281 C 175.679688 341.753906 173.132812 344.300781 169.988281 344.300781 C 166.847656 344.300781 164.300781 341.753906 164.300781 338.613281 C 164.300781 335.46875 166.847656 332.921875 169.988281 332.921875 C 173.132812 332.921875 175.679688 335.46875 175.679688 338.613281 "/>
<path fill-rule="nonzero" fill="rgb(18.431373%, 30.980392%, 30.980392%)" fill-opacity="0.901961" stroke-width="0.708661" stroke-linecap="round" stroke-linejoin="round" stroke="rgb(18.431373%, 30.980392%, 30.980392%)" stroke-opacity="0.901961" stroke-miterlimit="10" d="M 439.007812 282.019531 C 439.007812 285.160156 436.460938 287.707031 433.320312 287.707031 C 430.179688 287.707031 427.632812 285.160156 427.632812 282.019531 C 427.632812 278.875 430.179688 276.328125 433.320312 276.328125 C 436.460938 276.328125 439.007812 278.875 439.007812 282.019531 "/>
<path fill-rule="nonzero" fill="rgb(18.431373%, 30.980392%, 30.980392%)" fill-opacity="0.901961" stroke-width="0.708661" stroke-linecap="round" stroke-linejoin="round" stroke="rgb(18.431373%, 30.980392%, 30.980392%)" stroke-opacity="0.901961" stroke-miterlimit="10" d="M 270.53125 362.398438 C 270.53125 365.539062 267.984375 368.089844 264.839844 368.089844 C 261.699219 368.089844 259.152344 365.539062 259.152344 362.398438 C 259.152344 359.257812 261.699219 356.710938 264.839844 356.710938 C 267.984375 356.710938 270.53125 359.257812 270.53125 362.398438 "/>
<path fill-rule="nonzero" fill="rgb(18.431373%, 30.980392%, 30.980392%)" fill-opacity="0.901961" stroke-width="0.708661" stroke-linecap="round" stroke-linejoin="round" stroke="rgb(18.431373%, 30.980392%, 30.980392%)" stroke-opacity="0.901961" stroke-miterlimit="10" d="M 252.117188 389.070312 C 252.117188 392.214844 249.570312 394.761719 246.425781 394.761719 C 243.285156 394.761719 240.738281 392.214844 240.738281 389.070312 C 240.738281 385.929688 243.285156 383.382812 246.425781 383.382812 C 249.570312 383.382812 252.117188 385.929688 252.117188 389.070312 "/>
<path fill-rule="nonzero" fill="rgb(18.431373%, 30.980392%, 30.980392%)" fill-opacity="0.901961" stroke-width="0.708661" stroke-linecap="round" stroke-linejoin="round" stroke="rgb(18.431373%, 30.980392%, 30.980392%)" stroke-opacity="0.901961" stroke-miterlimit="10" d="M 413.726562 341.128906 C 413.726562 344.273438 411.179688 346.820312 408.035156 346.820312 C 404.894531 346.820312 402.347656 344.273438 402.347656 341.128906 C 402.347656 337.988281 404.894531 335.441406 408.035156 335.441406 C 411.179688 335.441406 413.726562 337.988281 413.726562 341.128906 "/>
<path fill-rule="nonzero" fill="rgb(18.431373%, 30.980392%, 30.980392%)" fill-opacity="0.901961" stroke-width="0.708661" stroke-linecap="round" stroke-linejoin="round" stroke="rgb(18.431373%, 30.980392%, 30.980392%)" stroke-opacity="0.901961" stroke-miterlimit="10" d="M 353.59375 386.484375 C 353.59375 389.625 351.046875 392.171875 347.902344 392.171875 C 344.761719 392.171875 342.214844 389.625 342.214844 386.484375 C 342.214844 383.339844 344.761719 380.792969 347.902344 380.792969 C 351.046875 380.792969 353.59375 383.339844 353.59375 386.484375 "/>
<path fill-rule="nonzero" fill="rgb(18.431373%, 30.980392%, 30.980392%)" fill-opacity="0.901961" stroke-width="0.708661" stroke-linecap="round" stroke-linejoin="round" stroke="rgb(18.431373%, 30.980392%, 30.980392%)" stroke-opacity="0.901961" stroke-miterlimit="10" d="M 263.238281 344.921875 C 263.238281 348.066406 260.691406 350.613281 257.550781 350.613281 C 254.40625 350.613281 251.859375 348.066406 251.859375 344.921875 C 251.859375 341.78125 254.40625 339.234375 257.550781 339.234375 C 260.691406 339.234375 263.238281 341.78125 263.238281 344.921875 "/>
<path fill-rule="nonzero" fill="rgb(18.431373%, 30.980392%, 30.980392%)" fill-opacity="0.901961" stroke-width="0.708661" stroke-linecap="round" stroke-linejoin="round" stroke="rgb(18.431373%, 30.980392%, 30.980392%)" stroke-opacity="0.901961" stroke-miterlimit="10" d="M 165.640625 398.375 C 165.640625 401.515625 163.09375 404.066406 159.953125 404.066406 C 156.8125 404.066406 154.265625 401.515625 154.265625 398.375 C 154.265625 395.234375 156.8125 392.6875 159.953125 392.6875 C 163.09375 392.6875 165.640625 395.234375 165.640625 398.375 "/>
<path fill-rule="nonzero" fill="rgb(18.431373%, 30.980392%, 30.980392%)" fill-opacity="0.901961" stroke-width="0.708661" stroke-linecap="round" stroke-linejoin="round" stroke="rgb(18.431373%, 30.980392%, 30.980392%)" stroke-opacity="0.901961" stroke-miterlimit="10" d="M 420.402344 321.03125 C 420.402344 324.171875 417.855469 326.71875 414.710938 326.71875 C 411.570312 326.71875 409.023438 324.171875 409.023438 321.03125 C 409.023438 317.886719 411.570312 315.339844 414.710938 315.339844 C 417.855469 315.339844 420.402344 317.886719 420.402344 321.03125 "/>
<path fill-rule="nonzero" fill="rgb(18.431373%, 30.980392%, 30.980392%)" fill-opacity="0.901961" stroke-width="0.708661" stroke-linecap="round" stroke-linejoin="round" stroke="rgb(18.431373%, 30.980392%, 30.980392%)" stroke-opacity="0.901961" stroke-miterlimit="10" d="M 176.460938 380.707031 C 176.460938 383.847656 173.914062 386.394531 170.773438 386.394531 C 167.628906 386.394531 165.082031 383.847656 165.082031 380.707031 C 165.082031 377.566406 167.628906 375.019531 170.773438 375.019531 C 173.914062 375.019531 176.460938 377.566406 176.460938 380.707031 "/>
<path fill-rule="nonzero" fill="rgb(18.431373%, 30.980392%, 30.980392%)" fill-opacity="0.901961" stroke-width="0.708661" stroke-linecap="round" stroke-linejoin="round" stroke="rgb(18.431373%, 30.980392%, 30.980392%)" stroke-opacity="0.901961" stroke-miterlimit="10" d="M 80.519531 386.855469 C 80.519531 389.996094 77.972656 392.546875 74.828125 392.546875 C 71.6875 392.546875 69.140625 389.996094 69.140625 386.855469 C 69.140625 383.714844 71.6875 381.167969 74.828125 381.167969 C 77.972656 381.167969 80.519531 383.714844 80.519531 386.855469 "/>
<path fill-rule="nonzero" fill="rgb(18.431373%, 30.980392%, 30.980392%)" fill-opacity="0.901961" stroke-width="0.708661" stroke-linecap="round" stroke-linejoin="round" stroke="rgb(18.431373%, 30.980392%, 30.980392%)" stroke-opacity="0.901961" stroke-miterlimit="10" d="M 424.804688 360.5 C 424.804688 363.644531 422.257812 366.191406 419.113281 366.191406 C 415.972656 366.191406 413.425781 363.644531 413.425781 360.5 C 413.425781 357.359375 415.972656 354.8125 419.113281 354.8125 C 422.257812 354.8125 424.804688 357.359375 424.804688 360.5 "/>
<path fill-rule="nonzero" fill="rgb(18.431373%, 30.980392%, 30.980392%)" fill-opacity="0.901961" stroke-width="0.708661" stroke-linecap="round" stroke-linejoin="round" stroke="rgb(18.431373%, 30.980392%, 30.980392%)" stroke-opacity="0.901961" stroke-miterlimit="10" d="M 412.582031 333.507812 C 412.582031 336.648438 410.035156 339.195312 406.894531 339.195312 C 403.75 339.195312 401.203125 336.648438 401.203125 333.507812 C 401.203125 330.367188 403.75 327.820312 406.894531 327.820312 C 410.035156 327.820312 412.582031 330.367188 412.582031 333.507812 "/>
<path fill-rule="nonzero" fill="rgb(18.431373%, 30.980392%, 30.980392%)" fill-opacity="0.901961" stroke-width="0.708661" stroke-linecap="round" stroke-linejoin="round" stroke="rgb(18.431373%, 30.980392%, 30.980392%)" stroke-opacity="0.901961" stroke-miterlimit="10" d="M 377.027344 352.460938 C 377.027344 355.601562 374.480469 358.148438 371.339844 358.148438 C 368.195312 358.148438 365.648438 355.601562 365.648438 352.460938 C 365.648438 349.316406 368.195312 346.769531 371.339844 346.769531 C 374.480469 346.769531 377.027344 349.316406 377.027344 352.460938 "/>
<path fill-rule="nonzero" fill="rgb(18.431373%, 30.980392%, 30.980392%)" fill-opacity="0.901961" stroke-width="0.708661" stroke-linecap="round" stroke-linejoin="round" stroke="rgb(18.431373%, 30.980392%, 30.980392%)" stroke-opacity="0.901961" stroke-miterlimit="10" d="M 28.921875 397.671875 C 28.921875 400.8125 26.375 403.359375 23.234375 403.359375 C 20.089844 403.359375 17.542969 400.8125 17.542969 397.671875 C 17.542969 394.527344 20.089844 391.980469 23.234375 391.980469 C 26.375 391.980469 28.921875 394.527344 28.921875 397.671875 "/>
<path fill-rule="nonzero" fill="rgb(18.431373%, 30.980392%, 30.980392%)" fill-opacity="0.901961" stroke-width="0.708661" stroke-linecap="round" stroke-linejoin="round" stroke="rgb(18.431373%, 30.980392%, 30.980392%)" stroke-opacity="0.901961" stroke-miterlimit="10" d="M 275.550781 361.488281 C 275.550781 364.632812 273.003906 367.179688 269.859375 367.179688 C 266.71875 367.179688 264.171875 364.632812 264.171875 361.488281 C 264.171875 358.347656 266.71875 355.800781 269.859375 355.800781 C 273.003906 355.800781 275.550781 358.347656 275.550781 361.488281 "/>
<path fill-rule="nonzero" fill="rgb(18.431373%, 30.980392%, 30.980392%)" fill-opacity="0.901961" stroke-width="0.708661" stroke-linecap="round" stroke-linejoin="round" stroke="rgb(18.431373%, 30.980392%, 30.980392%)" stroke-opacity="0.901961" stroke-miterlimit="10" d="M 318.617188 330.550781 C 318.617188 333.691406 316.070312 336.238281 312.925781 336.238281 C 309.785156 336.238281 307.238281 333.691406 307.238281 330.550781 C 307.238281 327.40625 309.785156 324.859375 312.925781 324.859375 C 316.070312 324.859375 318.617188 327.40625 318.617188 330.550781 "/>
<path fill-rule="nonzero" fill="rgb(18.431373%, 30.980392%, 30.980392%)" fill-opacity="0.901961" stroke-width="0.708661" stroke-linecap="round" stroke-linejoin="round" stroke="rgb(18.431373%, 30.980392%, 30.980392%)" stroke-opacity="0.901961" stroke-miterlimit="10" d="M 451.96875 361.132812 C 451.96875 364.273438 449.421875 366.820312 446.277344 366.820312 C 443.136719 366.820312 440.589844 364.273438 440.589844 361.132812 C 440.589844 357.988281 443.136719 355.441406 446.277344 355.441406 C 449.421875 355.441406 451.96875 357.988281 451.96875 361.132812 "/>
<path fill-rule="nonzero" fill="rgb(18.431373%, 30.980392%, 30.980392%)" fill-opacity="0.901961" stroke-width="0.708661" stroke-linecap="round" stroke-linejoin="round" stroke="rgb(18.431373%, 30.980392%, 30.980392%)" stroke-opacity="0.901961" stroke-miterlimit="10" d="M 344.980469 351.957031 C 344.980469 355.097656 342.433594 357.644531 339.292969 357.644531 C 336.148438 357.644531 333.601562 355.097656 333.601562 351.957031 C 333.601562 348.816406 336.148438 346.269531 339.292969 346.269531 C 342.433594 346.269531 344.980469 348.816406 344.980469 351.957031 "/>
<path fill-rule="nonzero" fill="rgb(18.431373%, 30.980392%, 30.980392%)" fill-opacity="0.901961" stroke-width="0.708661" stroke-linecap="round" stroke-linejoin="round" stroke="rgb(18.431373%, 30.980392%, 30.980392%)" stroke-opacity="0.901961" stroke-miterlimit="10" d="M 155.582031 378.402344 C 155.582031 381.542969 153.035156 384.089844 149.890625 384.089844 C 146.75 384.089844 144.203125 381.542969 144.203125 378.402344 C 144.203125 375.261719 146.75 372.714844 149.890625 372.714844 C 153.035156 372.714844 155.582031 375.261719 155.582031 378.402344 "/>
<path fill-rule="nonzero" fill="rgb(18.431373%, 30.980392%, 30.980392%)" fill-opacity="0.901961" stroke-width="0.708661" stroke-linecap="round" stroke-linejoin="round" stroke="rgb(18.431373%, 30.980392%, 30.980392%)" stroke-opacity="0.901961" stroke-miterlimit="10" d="M 726.796875 20.167969 C 726.796875 23.308594 724.25 25.855469 721.105469 25.855469 C 717.964844 25.855469 715.417969 23.308594 715.417969 20.167969 C 715.417969 17.023438 717.964844 14.476562 721.105469 14.476562 C 724.25 14.476562 726.796875 17.023438 726.796875 20.167969 "/>
<path fill-rule="nonzero" fill="rgb(18.431373%, 30.980392%, 30.980392%)" fill-opacity="0.901961" stroke-width="0.708661" stroke-linecap="round" stroke-linejoin="round" stroke="rgb(18.431373%, 30.980392%, 30.980392%)" stroke-opacity="0.901961" stroke-miterlimit="10" d="M 726.796875 20.167969 C 726.796875 23.308594 724.25 25.855469 721.105469 25.855469 C 717.964844 25.855469 715.417969 23.308594 715.417969 20.167969 C 715.417969 17.023438 717.964844 14.476562 721.105469 14.476562 C 724.25 14.476562 726.796875 17.023438 726.796875 20.167969 "/>
<path fill="none" stroke-width="4.267913" stroke-linecap="butt" stroke-linejoin="round" stroke="rgb(90.196078%, 25.490196%, 45.098039%)" stroke-opacity="0.901961" stroke-miterlimit="10" d="M -779.320312 585.292969 L 1523.660156 95.289062 "/>
</svg>
