<?xml version="1.0" encoding="UTF-8"?>
<svg xmlns="http://www.w3.org/2000/svg" xmlns:xlink="http://www.w3.org/1999/xlink" width="756" height="504" viewBox="0 0 756 504">
<rect x="-75.6" y="-50.4" width="907.2" height="604.8" fill="rgb(100%, 100%, 100%)" fill-opacity="1"/>
<path fill="none" stroke-width="6.40187" stroke-linecap="butt" stroke-linejoin="round" stroke="rgb(90.196078%, 25.490196%, 45.098039%)" stroke-opacity="0.298039" stroke-miterlimit="10" d="M -779.320312 680.28125 L 1523.660156 110.753906 "/>
<path fill="none" stroke-width="0.708661" stroke-linecap="round" stroke-linejoin="round" stroke="rgb(18.431373%, 30.980392%, 30.980392%)" stroke-opacity="1" stroke-miterlimit="10" d="M 307.292969 399.28125 C 307.292969 403.011719 304.265625 406.035156 300.535156 406.035156 C 296.804688 406.035156 293.78125 403.011719 293.78125 399.28125 C 293.78125 395.546875 296.804688 392.523438 300.535156 392.523438 C 304.265625 392.523438 307.292969 395.546875 307.292969 399.28125 "/>
<path fill-rule="nonzero" fill="rgb(18.431373%, 30.980392%, 30.980392%)" fill-opacity="1" stroke-width="0.708661" stroke-linecap="round" stroke-linejoin="round" stroke="rgb(18.431373%, 30.980392%, 30.980392%)" stroke-opacity="1" stroke-miterlimit="10" d="M 165.078125 394.300781 C 165.078125 398.03125 162.054688 401.054688 158.324219 401.054688 C 154.589844 401.054688 151.566406 398.03125 151.566406 394.300781 C 151.566406 390.566406 154.589844 387.542969 158.324219 387.542969 C 162.054688 387.542969 165.078125 390.566406 165.078125 394.300781 "/>
<path fill="none" stroke-width="0.708661" stroke-linecap="round" stroke-linejoin="round" stroke="rgb(18.431373%, 30.980392%, 30.980392%)" stroke-opacity="1" stroke-miterlimit="10" d="M 369.792969 492.222656 C 369.792969 495.953125 366.769531 498.976562 363.039062 498.976562 C 359.308594 498.976562 356.28125 495.953125 356.28125 492.222656 C 356.28125 488.488281 359.308594 485.464844 363.039062 485.464844 C 366.769531 485.464844 369.792969 488.488281 369.792969 492.222656 "/>
<path fill="none" stroke-width="0.708661" stroke-linecap="round" stroke-linejoin="round" stroke="rgb(18.431373%, 30.980392%, 30.980392%)" stroke-opacity="1" stroke-miterlimit="10" d="M 325.015625 434.257812 C 325.015625 437.988281 321.992188 441.015625 318.261719 441.015625 C 314.527344 441.015625 311.503906 437.988281 311.503906 434.257812 C 311.503906 430.527344 314.527344 427.5 318.261719 427.5 C 321.992188 427.5 325.015625 430.527344 325.015625 434.257812 "/>
<path fill="none" stroke-width="0.708661" stroke-linecap="round" stroke-linejoin="round" stroke="rgb(18.431373%, 30.980392%, 30.980392%)" stroke-opacity="1" stroke-miterlimit="10" d="M 259.054688 389.414062 C 259.054688 393.144531 256.03125 396.167969 252.300781 396.167969 C 248.566406 396.167969 245.542969 393.144531 245.542969 389.414062 C 245.542969 385.679688 248.566406 382.65625 252.300781 382.65625 C 256.03125 382.65625 259.054688 385.679688 259.054688 389.414062 "/>
<path fill="none" stroke-width="0.708661" stroke-linecap="round" stroke-linejoin="round" stroke="rgb(18.431373%, 30.980392%, 30.980392%)" stroke-opacity="1" stroke-miterlimit="10" d="M 329.339844 423.816406 C 329.339844 427.546875 326.3125 430.574219 322.582031 430.574219 C 318.851562 430.574219 315.828125 427.546875 315.828125 423.816406 C 315.828125 420.085938 318.851562 417.058594 322.582031 417.058594 C 326.3125 417.058594 329.339844 420.085938 329.339844 423.816406 "/>
<path fill="none" stroke-width="0.708661" stroke-linecap="round" stroke-linejoin="round" stroke="rgb(18.431373%, 30.980392%, 30.980392%)" stroke-opacity="1" stroke-miterlimit="10" d="M 324.046875 390.132812 C 324.046875 393.867188 321.023438 396.890625 317.292969 396.890625 C 313.5625 396.890625 310.535156 393.867188 310.535156 390.132812 C 310.535156 386.402344 313.5625 383.378906 317.292969 383.378906 C 321.023438 383.378906 324.046875 386.402344 324.046875 390.132812 "/>
<path fill="none" stroke-width="0.708661" stroke-linecap="round" stroke-linejoin="round" stroke="rgb(18.431373%, 30.980392%, 30.980392%)" stroke-opacity="1" stroke-miterlimit="10" d="M 233.363281 460.878906 C 233.363281 464.609375 230.335938 467.636719 226.605469 467.636719 C 222.875 467.636719 219.847656 464.609375 219.847656 460.878906 C 219.847656 457.148438 222.875 454.125 226.605469 454.125 C 230.335938 454.125 233.363281 457.148438 233.363281 460.878906 "/>
<path fill-rule="nonzero" fill="rgb(18.431373%, 30.980392%, 30.980392%)" fill-opacity="1" stroke-width="0.708661" stroke-linecap="round" stroke-linejoin="round" stroke="rgb(18.431373%, 30.980392%, 30.980392%)" stroke-opacity="1" stroke-miterlimit="10" d="M 394.46875 411 C 394.46875 414.730469 391.445312 417.757812 387.714844 417.757812 C 383.980469 417.757812 380.957031 414.730469 380.957031 411 C 380.957031 407.269531 383.980469 404.246094 387.714844 404.246094 C 391.445312 404.246094 394.46875 407.269531 394.46875 411 "/>
<path fill-rule="nonzero" fill="rgb(18.431373%, 30.980392%, 30.980392%)" fill-opacity="1" stroke-width="0.708661" stroke-linecap="round" stroke-linejoin="round" stroke="rgb(18.431373%, 30.980392%, 30.980392%)" stroke-opacity="1" stroke-miterlimit="10" d="M 473.332031 350.117188 C 473.332031 353.851562 470.308594 356.875 466.574219 356.875 C 462.84375 356.875 459.820312 353.851562 459.820312 350.117188 C 459.820312 346.386719 462.84375 343.363281 466.574219 343.363281 C 470.308594 343.363281 473.332031 346.386719 473.332031 350.117188 "/>
<path fill="none" stroke-width="0.708661" stroke-linecap="round" stroke-linejoin="round" stroke="rgb(18.431373%, 30.980392%, 30.980392%)" stroke-opacity="1" stroke-miterlimit="10" d="M 248.035156 469.503906 C 248.035156 473.234375 245.007812 476.257812 241.277344 476.257812 C 237.546875 476.257812 234.519531 473.234375 234.519531 469.503906 C 234.519531 465.769531 237.546875 462.746094 241.277344 462.746094 C 245.007812 462.746094 248.035156 465.769531 248.035156 469.503906 "/>
<path fill="none" stroke-width="0.708661" stroke-linecap="round" stroke-linejoin="round" stroke="rgb(18.431373%, 30.980392%, 30.980392%)" stroke-opacity="1" stroke-miterlimit="10" d="M 212.679688 408.300781 C 212.679688 412.035156 209.652344 415.058594 205.921875 415.058594 C 202.191406 415.058594 199.167969 412.035156 199.167969 408.300781 C 199.167969 404.570312 202.191406 401.546875 205.921875 401.546875 C 209.652344 401.546875 212.679688 404.570312 212.679688 408.300781 "/>
<path fill-rule="nonzero" fill="rgb(18.431373%, 30.980392%, 30.980392%)" fill-opacity="1" stroke-width="0.708661" stroke-linecap="round" stroke-linejoin="round" stroke="rgb(18.431373%, 30.980392%, 30.980392%)" stroke-opacity="1" stroke-miterlimit="10" d="M 329.738281 433.152344 C 329.738281 436.882812 326.714844 439.90625 322.984375 439.90625 C 319.25 439.90625 316.226562 436.882812 316.226562 433.152344 C 316.226562 429.421875 319.25 426.394531 322.984375 426.394531 C 326.714844 426.394531 329.738281 429.421875 329.738281 433.152344 "/>
<path fill="none" stroke-width="0.708661" stroke-linecap="round" stroke-linejoin="round" stroke="rgb(18.431373%, 30.980392%, 30.980392%)" stroke-opacity="1" stroke-miterlimit="10" d="M 254.898438 429.800781 C 254.898438 433.53125 251.875 436.554688 248.144531 436.554688 C 244.414062 436.554688 241.386719 433.53125 241.386719 429.800781 C 241.386719 426.066406 244.414062 423.042969 248.144531 423.042969 C 251.875 423.042969 254.898438 426.066406 254.898438 429.800781 "/>
<path fill-rule="nonzero" fill="rgb(18.431373%, 30.980392%, 30.980392%)" fill-opacity="1" stroke-width="0.708661" stroke-linecap="round" stroke-linejoin="round" stroke="rgb(18.431373%, 30.980392%, 30.980392%)" stroke-opacity="1" stroke-miterlimit="10" d="M 482.023438 391.246094 C 482.023438 394.976562 479 398 475.269531 398 C 471.535156 398 468.511719 394.976562 468.511719 391.246094 C 468.511719 387.511719 471.535156 384.488281 475.269531 384.488281 C 479 384.488281 482.023438 387.511719 482.023438 391.246094 "/>
<path fill-rule="nonzero" fill="rgb(18.431373%, 30.980392%, 30.980392%)" fill-opacity="1" stroke-width="0.708661" stroke-linecap="round" stroke-linejoin="round" stroke="rgb(18.431373%, 30.980392%, 30.980392%)" stroke-opacity="1" stroke-miterlimit="10" d="M 245.964844 373.621094 C 245.964844 377.351562 242.9375 380.375 239.207031 380.375 C 235.476562 380.375 232.449219 377.351562 232.449219 373.621094 C 232.449219 369.890625 235.476562 366.863281 239.207031 366.863281 C 242.9375 366.863281 245.964844 369.890625 245.964844 373.621094 "/>
<path fill="none" stroke-width="0.708661" stroke-linecap="round" stroke-linejoin="round" stroke="rgb(18.431373%, 30.980392%, 30.980392%)" stroke-opacity="1" stroke-miterlimit="10" d="M 384.164062 389.273438 C 384.164062 393.003906 381.136719 396.027344 377.40625 396.027344 C 373.675781 396.027344 370.652344 393.003906 370.652344 389.273438 C 370.652344 385.539062 373.675781 382.515625 377.40625 382.515625 C 381.136719 382.515625 384.164062 385.539062 384.164062 389.273438 "/>
<path fill-rule="nonzero" fill="rgb(18.431373%, 30.980392%, 30.980392%)" fill-opacity="1" stroke-width="0.708661" stroke-linecap="round" stroke-linejoin="round" stroke="rgb(18.431373%, 30.980392%, 30.980392%)" stroke-opacity="1" stroke-miterlimit="10" d="M 462.011719 425.734375 C 462.011719 429.464844 458.984375 432.488281 455.253906 432.488281 C 451.523438 432.488281 448.5 429.464844 448.5 425.734375 C 448.5 422 451.523438 418.976562 455.253906 418.976562 C 458.984375 418.976562 462.011719 422 462.011719 425.734375 "/>
<path fill="none" stroke-width="0.708661" stroke-linecap="round" stroke-linejoin="round" stroke="rgb(18.431373%, 30.980392%, 30.980392%)" stroke-opacity="1" stroke-miterlimit="10" d="M 590.296875 357.84375 C 590.296875 361.574219 587.273438 364.597656 583.542969 364.597656 C 579.8125 364.597656 576.785156 361.574219 576.785156 357.84375 C 576.785156 354.113281 579.8125 351.085938 583.542969 351.085938 C 587.273438 351.085938 590.296875 354.113281 590.296875 357.84375 "/>
<path fill="none" stroke-width="0.708661" stroke-linecap="round" stroke-linejoin="round" stroke="rgb(18.431373%, 30.980392%, 30.980392%)" stroke-opacity="1" stroke-miterlimit="10" d="M 347.863281 428.171875 C 347.863281 431.902344 344.835938 434.925781 341.105469 434.925781 C 337.375 434.925781 334.351562 431.902344 334.351562 428.171875 C 334.351562 424.4375 337.375 421.414062 341.105469 421.414062 C 344.835938 421.414062 347.863281 424.4375 347.863281 428.171875 "/>
<path fill="none" stroke-width="0.708661" stroke-linecap="round" stroke-linejoin="round" stroke="rgb(18.431373%, 30.980392%, 30.980392%)" stroke-opacity="1" stroke-miterlimit="10" d="M 499.605469 404.871094 C 499.605469 408.601562 496.582031 411.628906 492.851562 411.628906 C 489.117188 411.628906 486.09375 408.601562 486.09375 404.871094 C 486.09375 401.140625 489.117188 398.113281 492.851562 398.113281 C 496.582031 398.113281 499.605469 401.140625 499.605469 404.871094 "/>
<path fill-rule="nonzero" fill="rgb(18.431373%, 30.980392%, 30.980392%)" fill-opacity="1" stroke-width="0.708661" stroke-linecap="round" stroke-linejoin="round" stroke="rgb(18.431373%, 30.980392%, 30.980392%)" stroke-opacity="1" stroke-miterlimit="10" d="M 367.445312 436.644531 C 367.445312 440.375 364.421875 443.402344 360.691406 443.402344 C 356.957031 443.402344 353.933594 440.375 353.933594 436.644531 C 353.933594 432.914062 356.957031 429.886719 360.691406 429.886719 C 364.421875 429.886719 367.445312 432.914062 367.445312 436.644531 "/>
<path fill-rule="nonzero" fill="rgb(18.431373%, 30.980392%, 30.980392%)" fill-opacity="1" stroke-width="0.708661" stroke-linecap="round" stroke-linejoin="round" stroke="rgb(18.431373%, 30.980392%, 30.980392%)" stroke-opacity="1" stroke-miterlimit="10" d="M 319.824219 429.136719 C 319.824219 432.867188 316.800781 435.894531 313.070312 435.894531 C 309.335938 435.894531 306.3125 432.867188 306.3125 429.136719 C 306.3125 425.40625 309.335938 422.382812 313.070312 422.382812 C 316.800781 422.382812 319.824219 425.40625 319.824219 429.136719 "/>
<path fill="none" stroke-width="0.708661" stroke-linecap="round" stroke-linejoin="round" stroke="rgb(18.431373%, 30.980392%, 30.980392%)" stroke-opacity="1" stroke-miterlimit="10" d="M 348.023438 420.378906 C 348.023438 424.109375 344.996094 427.136719 341.265625 427.136719 C 337.535156 427.136719 334.511719 424.109375 334.511719 420.378906 C 334.511719 416.648438 337.535156 413.621094 341.265625 413.621094 C 344.996094 413.621094 348.023438 416.648438 348.023438 420.378906 "/>
<path fill="none" stroke-width="0.708661" stroke-linecap="round" stroke-linejoin="round" stroke="rgb(18.431373%, 30.980392%, 30.980392%)" stroke-opacity="1" stroke-miterlimit="10" d="M 463.9375 408.707031 C 463.9375 412.4375 460.910156 415.464844 457.179688 415.464844 C 453.449219 415.464844 450.421875 412.4375 450.421875 408.707031 C 450.421875 404.976562 453.449219 401.953125 457.179688 401.953125 C 460.910156 401.953125 463.9375 404.976562 463.9375 408.707031 "/>
<path fill-rule="nonzero" fill="rgb(18.431373%, 30.980392%, 30.980392%)" fill-opacity="1" stroke-width="0.708661" stroke-linecap="round" stroke-linejoin="round" stroke="rgb(18.431373%, 30.980392%, 30.980392%)" stroke-opacity="1" stroke-miterlimit="10" d="M 334.117188 416.402344 C 334.117188 420.132812 331.09375 423.15625 327.363281 423.15625 C 323.632812 423.15625 320.605469 420.132812 320.605469 416.402344 C 320.605469 412.671875 323.632812 409.644531 327.363281 409.644531 C 331.09375 409.644531 334.117188 412.671875 334.117188 416.402344 "/>
<path fill="none" stroke-width="0.708661" stroke-linecap="round" stroke-linejoin="round" stroke="rgb(18.431373%, 30.980392%, 30.980392%)" stroke-opacity="1" stroke-miterlimit="10" d="M 295.683594 388.648438 C 295.683594 392.378906 292.660156 395.40625 288.925781 395.40625 C 285.195312 395.40625 282.171875 392.378906 282.171875 388.648438 C 282.171875 384.917969 285.195312 381.890625 288.925781 381.890625 C 292.660156 381.890625 295.683594 384.917969 295.683594 388.648438 "/>
<path fill="none" stroke-width="0.708661" stroke-linecap="round" stroke-linejoin="round" stroke="rgb(18.431373%, 30.980392%, 30.980392%)" stroke-opacity="1" stroke-miterlimit="10" d="M 220.132812 421.695312 C 220.132812 425.425781 217.109375 428.449219 213.375 428.449219 C 209.644531 428.449219 206.621094 425.425781 206.621094 421.695312 C 206.621094 417.960938 209.644531 414.9375 213.375 414.9375 C 217.109375 414.9375 220.132812 417.960938 220.132812 421.695312 "/>
<path fill="none" stroke-width="0.708661" stroke-linecap="round" stroke-linejoin="round" stroke="rgb(18.431373%, 30.980392%, 30.980392%)" stroke-opacity="1" stroke-miterlimit="10" d="M 109.308594 471.828125 C 109.308594 475.558594 106.285156 478.585938 102.550781 478.585938 C 98.820312 478.585938 95.796875 475.558594 95.796875 471.828125 C 95.796875 468.097656 98.820312 465.074219 102.550781 465.074219 C 106.285156 465.074219 109.308594 468.097656 109.308594 471.828125 "/>
<path fill="none" stroke-width="0.708661" stroke-linecap="round" stroke-linejoin="round" stroke="rgb(18.431373%, 30.980392%, 30.980392%)" stroke-opacity="1" stroke-miterlimit="10" d="M 442.621094 340.488281 C 442.621094 344.21875 439.59375 347.242188 435.863281 347.242188 C 432.132812 347.242188 429.105469 344.21875 429.105469 340.488281 C 429.105469 336.753906 432.132812 333.730469 435.863281 333.730469 C 439.59375 333.730469 442.621094 336.753906 442.621094 340.488281 "/>
<path fill="none" stroke-width="0.708661" stroke-linecap="round" stroke-linejoin="round" stroke="rgb(18.431373%, 30.980392%, 30.980392%)" stroke-opacity="1" stroke-miterlimit="10" d="M 239.46875 414.886719 C 239.46875 418.617188 236.445312 421.644531 232.710938 421.644531 C 228.980469 421.644531 225.957031 418.617188 225.957031 414.886719 C 225.957031 411.15625 228.980469 408.132812 232.710938 408.132812 C 236.445312 408.132812 239.46875 411.15625 239.46875 414.886719 "/>
<path fill="none" stroke-width="0.708661" stroke-linecap="round" stroke-linejoin="round" stroke="rgb(18.431373%, 30.980392%, 30.980392%)" stroke-opacity="1" stroke-miterlimit="10" d="M 358.75 442.539062 C 358.75 446.269531 355.726562 449.292969 351.992188 449.292969 C 348.261719 449.292969 345.238281 446.269531 345.238281 442.539062 C 345.238281 438.804688 348.261719 435.78125 351.992188 435.78125 C 355.726562 435.78125 358.75 438.804688 358.75 442.539062 "/>
<path fill-rule="nonzero" fill="rgb(18.431373%, 30.980392%, 30.980392%)" fill-opacity="1" stroke-width="0.708661" stroke-linecap="round" stroke-linejoin="round" stroke="rgb(18.431373%, 30.980392%, 30.980392%)" stroke-opacity="1" stroke-miterlimit="10" d="M 396.164062 389.273438 C 396.164062 393.003906 393.136719 396.03125 389.40625 396.03125 C 385.675781 396.03125 382.648438 393.003906 382.648438 389.273438 C 382.648438 385.542969 385.675781 382.519531 389.40625 382.519531 C 393.136719 382.519531 396.164062 385.542969 396.164062 389.273438 "/>
<path fill-rule="nonzero" fill="rgb(18.431373%, 30.980392%, 30.980392%)" fill-opacity="1" stroke-width="0.708661" stroke-linecap="round" stroke-linejoin="round" stroke="rgb(18.431373%, 30.980392%, 30.980392%)" stroke-opacity="1" stroke-miterlimit="10" d="M 417.203125 389.902344 C 417.203125 393.636719 414.179688 396.660156 410.449219 396.660156 C 406.71875 396.660156 403.691406 393.636719 403.691406 389.902344 C 403.691406 386.171875 406.71875 383.148438 410.449219 383.148438 C 414.179688 383.148438 417.203125 386.171875 417.203125 389.902344 "/>
<path fill="none" stroke-width="0.708661" stroke-linecap="round" stroke-linejoin="round" stroke="rgb(18.431373%, 30.980392%, 30.980392%)" stroke-opacity="1" stroke-miterlimit="10" d="M 210.824219 460.871094 C 210.824219 464.601562 207.796875 467.628906 204.066406 467.628906 C 200.335938 467.628906 197.3125 464.601562 197.3125 460.871094 C 197.3125 457.140625 200.335938 454.117188 204.066406 454.117188 C 207.796875 454.117188 210.824219 457.140625 210.824219 460.871094 "/>
<path fill="none" stroke-width="0.708661" stroke-linecap="round" stroke-linejoin="round" stroke="rgb(18.431373%, 30.980392%, 30.980392%)" stroke-opacity="1" stroke-miterlimit="10" d="M 532.015625 324.289062 C 532.015625 328.019531 528.992188 331.042969 525.257812 331.042969 C 521.527344 331.042969 518.503906 328.019531 518.503906 324.289062 C 518.503906 320.558594 521.527344 317.53125 525.257812 317.53125 C 528.992188 317.53125 532.015625 320.558594 532.015625 324.289062 "/>
<path fill="none" stroke-width="0.708661" stroke-linecap="round" stroke-linejoin="round" stroke="rgb(18.431373%, 30.980392%, 30.980392%)" stroke-opacity="1" stroke-miterlimit="10" d="M 533.222656 369.976562 C 533.222656 373.707031 530.195312 376.730469 526.464844 376.730469 C 522.734375 376.730469 519.707031 373.707031 519.707031 369.976562 C 519.707031 366.246094 522.734375 363.21875 526.464844 363.21875 C 530.195312 363.21875 533.222656 366.246094 533.222656 369.976562 "/>
<path fill="none" stroke-width="0.708661" stroke-linecap="round" stroke-linejoin="round" stroke="rgb(18.431373%, 30.980392%, 30.980392%)" stroke-opacity="1" stroke-miterlimit="10" d="M 472.886719 373.976562 C 472.886719 377.710938 469.859375 380.734375 466.128906 380.734375 C 462.398438 380.734375 459.371094 377.710938 459.371094 373.976562 C 459.371094 370.246094 462.398438 367.222656 466.128906 367.222656 C 469.859375 367.222656 472.886719 370.246094 472.886719 373.976562 "/>
<path fill-rule="nonzero" fill="rgb(18.431373%, 30.980392%, 30.980392%)" fill-opacity="1" stroke-width="0.708661" stroke-linecap="round" stroke-linejoin="round" stroke="rgb(18.431373%, 30.980392%, 30.980392%)" stroke-opacity="1" stroke-miterlimit="10" d="M 390.84375 416.28125 C 390.84375 420.011719 387.816406 423.035156 384.085938 423.035156 C 380.355469 423.035156 377.328125 420.011719 377.328125 416.28125 C 377.328125 412.550781 380.355469 409.523438 384.085938 409.523438 C 387.816406 409.523438 390.84375 412.550781 390.84375 416.28125 "/>
<path fill="none" stroke-width="0.708661" stroke-linecap="round" stroke-linejoin="round" stroke="rgb(18.431373%, 30.980392%, 30.980392%)" stroke-opacity="1" stroke-miterlimit="10" d="M 322.066406 404.390625 C 322.066406 408.125 319.042969 411.148438 315.308594 411.148438 C 311.578125 411.148438 308.554688 408.125 308.554688 404.390625 C 308.554688 400.660156 311.578125 397.636719 315.308594 397.636719 C 319.042969 397.636719 322.066406 400.660156 322.066406 404.390625 "/>
<path fill-rule="nonzero" fill="rgb(18.431373%, 30.980392%, 30.980392%)" fill-opacity="1" stroke-width="0.708661" stroke-linecap="round" stroke-linejoin="round" stroke="rgb(18.431373%, 30.980392%, 30.980392%)" stroke-opacity="1" stroke-miterlimit="10" d="M 391.804688 391.835938 C 391.804688 395.566406 388.777344 398.59375 385.046875 398.59375 C 381.316406 398.59375 378.292969 395.566406 378.292969 391.835938 C 378.292969 388.105469 381.316406 385.082031 385.046875 385.082031 C 388.777344 385.082031 391.804688 388.105469 391.804688 391.835938 "/>
<path fill="none" stroke-width="0.708661" stroke-linecap="round" stroke-linejoin="round" stroke="rgb(18.431373%, 30.980392%, 30.980392%)" stroke-opacity="1" stroke-miterlimit="10" d="M 416.351562 376.960938 C 416.351562 380.691406 413.328125 383.71875 409.597656 383.71875 C 405.863281 383.71875 402.839844 380.691406 402.839844 376.960938 C 402.839844 373.230469 405.863281 370.207031 409.597656 370.207031 C 413.328125 370.207031 416.351562 373.230469 416.351562 376.960938 "/>
<path fill-rule="nonzero" fill="rgb(18.431373%, 30.980392%, 30.980392%)" fill-opacity="1" stroke-width="0.708661" stroke-linecap="round" stroke-linejoin="round" stroke="rgb(18.431373%, 30.980392%, 30.980392%)" stroke-opacity="1" stroke-miterlimit="10" d="M 452.015625 417.296875 C 452.015625 421.03125 448.992188 424.054688 445.261719 424.054688 C 441.53125 424.054688 438.503906 421.03125 438.503906 417.296875 C 438.503906 413.566406 441.53125 410.542969 445.261719 410.542969 C 448.992188 410.542969 452.015625 413.566406 452.015625 417.296875 "/>
<path fill-rule="nonzero" fill="rgb(18.431373%, 30.980392%, 30.980392%)" fill-opacity="1" stroke-width="0.708661" stroke-linecap="round" stroke-linejoin="round" stroke="rgb(18.431373%, 30.980392%, 30.980392%)" stroke-opacity="1" stroke-miterlimit="10" d="M 272.421875 415.089844 C 272.421875 418.820312 269.398438 421.84375 265.664062 421.84375 C 261.933594 421.84375 258.910156 418.820312 258.910156 415.089844 C 258.910156 411.359375 261.933594 408.332031 265.664062 408.332031 C 269.398438 408.332031 272.421875 411.359375 272.421875 415.089844 "/>
<path fill="none" stroke-width="0.708661" stroke-linecap="round" stroke-linejoin="round" stroke="rgb(18.431373%, 30.980392%, 30.980392%)" stroke-opacity="1" stroke-miterlimit="10" d="M 280.136719 428.402344 C 280.136719 432.132812 277.113281 435.160156 273.378906 435.160156 C 269.648438 435.160156 266.625 432.132812 266.625 428.402344 C 266.625 424.671875 269.648438 421.648438 273.378906 421.648438 C 277.113281 421.648438 280.136719 424.671875 280.136719 428.402344 "/>
<path fill="none" stroke-width="0.708661" stroke-linecap="round" stroke-linejoin="round" stroke="rgb(18.431373%, 30.980392%, 30.980392%)" stroke-opacity="1" stroke-miterlimit="10" d="M 295.425781 429.980469 C 295.425781 433.710938 292.402344 436.738281 288.671875 436.738281 C 284.9375 436.738281 281.914062 433.710938 281.914062 429.980469 C 281.914062 426.25 284.9375 423.226562 288.671875 423.226562 C 292.402344 423.226562 295.425781 426.25 295.425781 429.980469 "/>
<path fill-rule="nonzero" fill="rgb(18.431373%, 30.980392%, 30.980392%)" fill-opacity="1" stroke-width="0.708661" stroke-linecap="round" stroke-linejoin="round" stroke="rgb(18.431373%, 30.980392%, 30.980392%)" stroke-opacity="1" stroke-miterlimit="10" d="M 200.800781 412.445312 C 200.800781 416.175781 197.777344 419.203125 194.042969 419.203125 C 190.3125 419.203125 187.289062 416.175781 187.289062 412.445312 C 187.289062 408.714844 190.3125 405.691406 194.042969 405.691406 C 197.777344 405.691406 200.800781 408.714844 200.800781 412.445312 "/>
<path fill="none" stroke-width="0.708661" stroke-linecap="round" stroke-linejoin="round" stroke="rgb(18.431373%, 30.980392%, 30.980392%)" stroke-opacity="1" stroke-miterlimit="10" d="M 381.398438 371.066406 C 381.398438 374.796875 378.371094 377.824219 374.640625 377.824219 C 370.910156 377.824219 367.882812 374.796875 367.882812 371.066406 C 367.882812 367.335938 370.910156 364.308594 374.640625 364.308594 C 378.371094 364.308594 381.398438 367.335938 381.398438 371.066406 "/>
<path fill="none" stroke-width="0.708661" stroke-linecap="round" stroke-linejoin="round" stroke="rgb(18.431373%, 30.980392%, 30.980392%)" stroke-opacity="1" stroke-miterlimit="10" d="M 387.429688 406.132812 C 387.429688 409.863281 384.40625 412.886719 380.675781 412.886719 C 376.945312 412.886719 373.917969 409.863281 373.917969 406.132812 C 373.917969 402.398438 376.945312 399.375 380.675781 399.375 C 384.40625 399.375 387.429688 402.398438 387.429688 406.132812 "/>
<path fill-rule="nonzero" fill="rgb(18.431373%, 30.980392%, 30.980392%)" fill-opacity="1" stroke-width="0.708661" stroke-linecap="round" stroke-linejoin="round" stroke="rgb(18.431373%, 30.980392%, 30.980392%)" stroke-opacity="1" stroke-miterlimit="10" d="M 504.765625 399.351562 C 504.765625 403.082031 501.738281 406.109375 498.007812 406.109375 C 494.277344 406.109375 491.25 403.082031 491.25 399.351562 C 491.25 395.621094 494.277344 392.59375 498.007812 392.59375 C 501.738281 392.59375 504.765625 395.621094 504.765625 399.351562 "/>
<path fill="none" stroke-width="0.708661" stroke-linecap="round" stroke-linejoin="round" stroke="rgb(18.431373%, 30.980392%, 30.980392%)" stroke-opacity="1" stroke-miterlimit="10" d="M 257.269531 414.601562 C 257.269531 418.332031 254.246094 421.355469 250.515625 421.355469 C 246.78125 421.355469 243.757812 418.332031 243.757812 414.601562 C 243.757812 410.871094 246.78125 407.84375 250.515625 407.84375 C 254.246094 407.84375 257.269531 410.871094 257.269531 414.601562 "/>
<path fill="none" stroke-width="0.708661" stroke-linecap="round" stroke-linejoin="round" stroke="rgb(18.431373%, 30.980392%, 30.980392%)" stroke-opacity="1" stroke-miterlimit="10" d="M 198.214844 450.835938 C 198.214844 454.566406 195.191406 457.59375 191.457031 457.59375 C 187.726562 457.59375 184.703125 454.566406 184.703125 450.835938 C 184.703125 447.105469 187.726562 444.078125 191.457031 444.078125 C 195.191406 444.078125 198.214844 447.105469 198.214844 450.835938 "/>
<path fill="none" stroke-width="0.708661" stroke-linecap="round" stroke-linejoin="round" stroke="rgb(18.431373%, 30.980392%, 30.980392%)" stroke-opacity="1" stroke-miterlimit="10" d="M 446.035156 403.789062 C 446.035156 407.523438 443.011719 410.546875 439.28125 410.546875 C 435.546875 410.546875 432.523438 407.523438 432.523438 403.789062 C 432.523438 400.058594 435.546875 397.035156 439.28125 397.035156 C 443.011719 397.035156 446.035156 400.058594 446.035156 403.789062 "/>
<path fill="none" stroke-width="0.708661" stroke-linecap="round" stroke-linejoin="round" stroke="rgb(18.431373%, 30.980392%, 30.980392%)" stroke-opacity="1" stroke-miterlimit="10" d="M 386.238281 431.839844 C 386.238281 435.574219 383.214844 438.597656 379.480469 438.597656 C 375.75 438.597656 372.726562 435.574219 372.726562 431.839844 C 372.726562 428.109375 375.75 425.085938 379.480469 425.085938 C 383.214844 425.085938 386.238281 428.109375 386.238281 431.839844 "/>
<path fill="none" stroke-width="0.708661" stroke-linecap="round" stroke-linejoin="round" stroke="rgb(18.431373%, 30.980392%, 30.980392%)" stroke-opacity="1" stroke-miterlimit="10" d="M 249.667969 442.675781 C 249.667969 446.40625 246.640625 449.433594 242.910156 449.433594 C 239.179688 449.433594 236.15625 446.40625 236.15625 442.675781 C 236.15625 438.945312 239.179688 435.921875 242.910156 435.921875 C 246.640625 435.921875 249.667969 438.945312 249.667969 442.675781 "/>
<path fill="none" stroke-width="0.708661" stroke-linecap="round" stroke-linejoin="round" stroke="rgb(18.431373%, 30.980392%, 30.980392%)" stroke-opacity="1" stroke-miterlimit="10" d="M 373.226562 416.699219 C 373.226562 420.429688 370.203125 423.453125 366.472656 423.453125 C 362.738281 423.453125 359.714844 420.429688 359.714844 416.699219 C 359.714844 412.96875 362.738281 409.941406 366.472656 409.941406 C 370.203125 409.941406 373.226562 412.96875 373.226562 416.699219 "/>
<path fill-rule="nonzero" fill="rgb(18.431373%, 30.980392%, 30.980392%)" fill-opacity="1" stroke-width="0.708661" stroke-linecap="round" stroke-linejoin="round" stroke="rgb(18.431373%, 30.980392%, 30.980392%)" stroke-opacity="1" stroke-miterlimit="10" d="M 435.414062 361.300781 C 435.414062 365.03125 432.386719 368.058594 428.65625 368.058594 C 424.925781 368.058594 421.902344 365.03125 421.902344 361.300781 C 421.902344 357.570312 424.925781 354.542969 428.65625 354.542969 C 432.386719 354.542969 435.414062 357.570312 435.414062 361.300781 "/>
<path fill="none" stroke-width="0.708661" stroke-linecap="round" stroke-linejoin="round" stroke="rgb(18.431373%, 30.980392%, 30.980392%)" stroke-opacity="1" stroke-miterlimit="10" d="M 257.144531 383.742188 C 257.144531 387.472656 254.121094 390.5 250.390625 390.5 C 246.660156 390.5 243.632812 387.472656 243.632812 383.742188 C 243.632812 380.011719 246.660156 376.984375 250.390625 376.984375 C 254.121094 376.984375 257.144531 380.011719 257.144531 383.742188 "/>
<path fill-rule="nonzero" fill="rgb(18.431373%, 30.980392%, 30.980392%)" fill-opacity="1" stroke-width="0.708661" stroke-linecap="round" stroke-linejoin="round" stroke="rgb(18.431373%, 30.980392%, 30.980392%)" stroke-opacity="1" stroke-miterlimit="10" d="M 484.554688 385.019531 C 484.554688 388.75 481.53125 391.777344 477.796875 391.777344 C 474.066406 391.777344 471.042969 388.75 471.042969 385.019531 C 471.042969 381.289062 474.066406 378.265625 477.796875 378.265625 C 481.53125 378.265625 484.554688 381.289062 484.554688 385.019531 "/>
<path fill="none" stroke-width="0.708661" stroke-linecap="round" stroke-linejoin="round" stroke="rgb(18.431373%, 30.980392%, 30.980392%)" stroke-opacity="1" stroke-miterlimit="10" d="M 355.082031 417.003906 C 355.082031 420.738281 352.058594 423.761719 348.328125 423.761719 C 344.59375 423.761719 341.570312 420.738281 341.570312 417.003906 C 341.570312 413.273438 344.59375 410.25 348.328125 410.25 C 352.058594 410.25 355.082031 413.273438 355.082031 417.003906 "/>
<path fill-rule="nonzero" fill="rgb(18.431373%, 30.980392%, 30.980392%)" fill-opacity="1" stroke-width="0.708661" stroke-linecap="round" stroke-linejoin="round" stroke="rgb(18.431373%, 30.980392%, 30.980392%)" stroke-opacity="1" stroke-miterlimit="10" d="M 43.617188 477.125 C 43.617188 480.855469 40.59375 483.878906 36.863281 483.878906 C 33.132812 483.878906 30.105469 480.855469 30.105469 477.125 C 30.105469 473.390625 33.132812 470.367188 36.863281 470.367188 C 40.59375 470.367188 43.617188 473.390625 43.617188 477.125 "/>
<path fill="none" stroke-width="0.708661" stroke-linecap="round" stroke-linejoin="round" stroke="rgb(18.431373%, 30.980392%, 30.980392%)" stroke-opacity="1" stroke-miterlimit="10" d="M 70.414062 471.652344 C 70.414062 475.382812 67.386719 478.40625 63.65625 478.40625 C 59.925781 478.40625 56.898438 475.382812 56.898438 471.652344 C 56.898438 467.917969 59.925781 464.894531 63.65625 464.894531 C 67.386719 464.894531 70.414062 467.917969 70.414062 471.652344 "/>
<path fill-rule="nonzero" fill="rgb(18.431373%, 30.980392%, 30.980392%)" fill-opacity="1" stroke-width="0.708661" stroke-linecap="round" stroke-linejoin="round" stroke="rgb(18.431373%, 30.980392%, 30.980392%)" stroke-opacity="1" stroke-miterlimit="10" d="M 363.074219 390.292969 C 363.074219 394.027344 360.050781 397.050781 356.316406 397.050781 C 352.585938 397.050781 349.5625 394.027344 349.5625 390.292969 C 349.5625 386.5625 352.585938 383.539062 356.316406 383.539062 C 360.050781 383.539062 363.074219 386.5625 363.074219 390.292969 "/>
<path fill="none" stroke-width="0.708661" stroke-linecap="round" stroke-linejoin="round" stroke="rgb(18.431373%, 30.980392%, 30.980392%)" stroke-opacity="1" stroke-miterlimit="10" d="M 245.316406 398.550781 C 245.316406 402.285156 242.292969 405.308594 238.5625 405.308594 C 234.832031 405.308594 231.804688 402.285156 231.804688 398.550781 C 231.804688 394.820312 234.832031 391.796875 238.5625 391.796875 C 242.292969 391.796875 245.316406 394.820312 245.316406 398.550781 "/>
<path fill="none" stroke-width="0.708661" stroke-linecap="round" stroke-linejoin="round" stroke="rgb(18.431373%, 30.980392%, 30.980392%)" stroke-opacity="1" stroke-miterlimit="10" d="M 279.085938 431.554688 C 279.085938 435.285156 276.0625 438.3125 272.332031 438.3125 C 268.597656 438.3125 265.574219 435.285156 265.574219 431.554688 C 265.574219 427.824219 268.597656 424.800781 272.332031 424.800781 C 276.0625 424.800781 279.085938 427.824219 279.085938 431.554688 "/>
<path fill="none" stroke-width="0.708661" stroke-linecap="round" stroke-linejoin="round" stroke="rgb(18.431373%, 30.980392%, 30.980392%)" stroke-opacity="1" stroke-miterlimit="10" d="M 339.636719 379.277344 C 339.636719 383.007812 336.613281 386.035156 332.882812 386.035156 C 329.152344 386.035156 326.125 383.007812 326.125 379.277344 C 326.125 375.546875 329.152344 372.523438 332.882812 372.523438 C 336.613281 372.523438 339.636719 375.546875 339.636719 379.277344 "/>
<path fill="none" stroke-width="0.708661" stroke-linecap="round" stroke-linejoin="round" stroke="rgb(18.431373%, 30.980392%, 30.980392%)" stroke-opacity="1" stroke-miterlimit="10" d="M 310.898438 415.171875 C 310.898438 418.902344 307.871094 421.925781 304.140625 421.925781 C 300.410156 421.925781 297.386719 418.902344 297.386719 415.171875 C 297.386719 411.4375 300.410156 408.414062 304.140625 408.414062 C 307.871094 408.414062 310.898438 411.4375 310.898438 415.171875 "/>
<path fill-rule="nonzero" fill="rgb(18.431373%, 30.980392%, 30.980392%)" fill-opacity="1" stroke-width="0.708661" stroke-linecap="round" stroke-linejoin="round" stroke="rgb(18.431373%, 30.980392%, 30.980392%)" stroke-opacity="1" stroke-miterlimit="10" d="M 236.988281 459.855469 C 236.988281 463.585938 233.964844 466.609375 230.234375 466.609375 C 226.503906 466.609375 223.476562 463.585938 223.476562 459.855469 C 223.476562 456.121094 226.503906 453.097656 230.234375 453.097656 C 233.964844 453.097656 236.988281 456.121094 236.988281 459.855469 "/>
<path fill="none" stroke-width="0.708661" stroke-linecap="round" stroke-linejoin="round" stroke="rgb(18.431373%, 30.980392%, 30.980392%)" stroke-opacity="1" stroke-miterlimit="10" d="M 204.734375 434.402344 C 204.734375 438.132812 201.707031 441.15625 197.976562 441.15625 C 194.246094 441.15625 191.222656 438.132812 191.222656 434.402344 C 191.222656 430.671875 194.246094 427.644531 197.976562 427.644531 C 201.707031 427.644531 204.734375 430.671875 204.734375 434.402344 "/>
<path fill="none" stroke-width="0.708661" stroke-linecap="round" stroke-linejoin="round" stroke="rgb(18.431373%, 30.980392%, 30.980392%)" stroke-opacity="1" stroke-miterlimit="10" d="M 286.9375 411.871094 C 286.9375 415.605469 283.914062 418.628906 280.183594 418.628906 C 276.453125 418.628906 273.425781 415.605469 273.425781 411.871094 C 273.425781 408.140625 276.453125 405.117188 280.183594 405.117188 C 283.914062 405.117188 286.9375 408.140625 286.9375 411.871094 "/>
<path fill-rule="nonzero" fill="rgb(18.431373%, 30.980392%, 30.980392%)" fill-opacity="1" stroke-width="0.708661" stroke-linecap="round" stroke-linejoin="round" stroke="rgb(18.431373%, 30.980392%, 30.980392%)" stroke-opacity="1" stroke-miterlimit="10" d="M 527.15625 401.660156 C 527.15625 405.394531 524.132812 408.417969 520.402344 408.417969 C 516.671875 408.417969 513.644531 405.394531 513.644531 401.660156 C 513.644531 397.929688 516.671875 394.90625 520.402344 394.90625 C 524.132812 394.90625 527.15625 397.929688 527.15625 401.660156 "/>
<path fill="none" stroke-width="0.708661" stroke-linecap="round" stroke-linejoin="round" stroke="rgb(18.431373%, 30.980392%, 30.980392%)" stroke-opacity="1" stroke-miterlimit="10" d="M 478.726562 405.675781 C 478.726562 409.40625 475.703125 412.429688 471.972656 412.429688 C 468.242188 412.429688 465.214844 409.40625 465.214844 405.675781 C 465.214844 401.945312 468.242188 398.917969 471.972656 398.917969 C 475.703125 398.917969 478.726562 401.945312 478.726562 405.675781 "/>
<path fill="none" stroke-width="0.708661" stroke-linecap="round" stroke-linejoin="round" stroke="rgb(18.431373%, 30.980392%, 30.980392%)" stroke-opacity="1" stroke-miterlimit="10" d="M 317.714844 383.691406 C 317.714844 387.425781 314.691406 390.449219 310.957031 390.449219 C 307.226562 390.449219 304.203125 387.425781 304.203125 383.691406 C 304.203125 379.960938 307.226562 376.9375 310.957031 376.9375 C 314.691406 376.9375 317.714844 379.960938 317.714844 383.691406 "/>
<path fill-rule="nonzero" fill="rgb(18.431373%, 30.980392%, 30.980392%)" fill-opacity="1" stroke-width="0.708661" stroke-linecap="round" stroke-linejoin="round" stroke="rgb(18.431373%, 30.980392%, 30.980392%)" stroke-opacity="1" stroke-miterlimit="10" d="M 285.90625 386.796875 C 285.90625 390.527344 282.878906 393.550781 279.148438 393.550781 C 275.417969 393.550781 272.390625 390.527344 272.390625 386.796875 C 272.390625 383.0625 275.417969 380.039062 279.148438 380.039062 C 282.878906 380.039062 285.90625 383.0625 285.90625 386.796875 "/>
<path fill="none" stroke-width="0.708661" stroke-linecap="round" stroke-linejoin="round" stroke="rgb(18.431373%, 30.980392%, 30.980392%)" stroke-opacity="1" stroke-miterlimit="10" d="M 102.082031 398.308594 C 102.082031 402.039062 99.058594 405.066406 95.324219 405.066406 C 91.59375 405.066406 88.570312 402.039062 88.570312 398.308594 C 88.570312 394.578125 91.59375 391.554688 95.324219 391.554688 C 99.058594 391.554688 102.082031 394.578125 102.082031 398.308594 "/>
<path fill="none" stroke-width="0.708661" stroke-linecap="round" stroke-linejoin="round" stroke="rgb(18.431373%, 30.980392%, 30.980392%)" stroke-opacity="1" stroke-miterlimit="10" d="M 295.753906 444.707031 C 295.753906 448.4375 292.726562 451.460938 288.996094 451.460938 C 285.265625 451.460938 282.238281 448.4375 282.238281 444.707031 C 282.238281 440.976562 285.265625 437.949219 288.996094 437.949219 C 292.726562 437.949219 295.753906 440.976562 295.753906 444.707031 "/>
<path fill="none" stroke-width="0.708661" stroke-linecap="round" stroke-linejoin="round" stroke="rgb(18.431373%, 30.980392%, 30.980392%)" stroke-opacity="1" stroke-miterlimit="10" d="M 386.925781 402.039062 C 386.925781 405.769531 383.898438 408.792969 380.167969 408.792969 C 376.4375 408.792969 373.414062 405.769531 373.414062 402.039062 C 373.414062 398.304688 376.4375 395.28125 380.167969 395.28125 C 383.898438 395.28125 386.925781 398.304688 386.925781 402.039062 "/>
<path fill="none" stroke-width="0.708661" stroke-linecap="round" stroke-linejoin="round" stroke="rgb(18.431373%, 30.980392%, 30.980392%)" stroke-opacity="1" stroke-miterlimit="10" d="M 169.636719 414.382812 C 169.636719 418.113281 166.613281 421.140625 162.882812 421.140625 C 159.148438 421.140625 156.125 418.113281 156.125 414.382812 C 156.125 410.652344 159.148438 407.625 162.882812 407.625 C 166.613281 407.625 169.636719 410.652344 169.636719 414.382812 "/>
<path fill-rule="nonzero" fill="rgb(18.431373%, 30.980392%, 30.980392%)" fill-opacity="1" stroke-width="0.708661" stroke-linecap="round" stroke-linejoin="round" stroke="rgb(18.431373%, 30.980392%, 30.980392%)" stroke-opacity="1" stroke-miterlimit="10" d="M 407.164062 377.4375 C 407.164062 381.167969 404.140625 384.191406 400.410156 384.191406 C 396.679688 384.191406 393.652344 381.167969 393.652344 377.4375 C 393.652344 373.703125 396.679688 370.679688 400.410156 370.679688 C 404.140625 370.679688 407.164062 373.703125 407.164062 377.4375 "/>
<path fill="none" stroke-width="0.708661" stroke-linecap="round" stroke-linejoin="round" stroke="rgb(18.431373%, 30.980392%, 30.980392%)" stroke-opacity="1" stroke-miterlimit="10" d="M 414.105469 401.035156 C 414.105469 404.769531 411.078125 407.792969 407.347656 407.792969 C 403.617188 407.792969 400.589844 404.769531 400.589844 401.035156 C 400.589844 397.304688 403.617188 394.28125 407.347656 394.28125 C 411.078125 394.28125 414.105469 397.304688 414.105469 401.035156 "/>
<path fill="none" stroke-width="0.708661" stroke-linecap="round" stroke-linejoin="round" stroke="rgb(18.431373%, 30.980392%, 30.980392%)" stroke-opacity="1" stroke-miterlimit="10" d="M 176.746094 393.566406 C 176.746094 397.296875 173.722656 400.320312 169.988281 400.320312 C 166.257812 400.320312 163.234375 397.296875 163.234375 393.566406 C 163.234375 389.832031 166.257812 386.808594 169.988281 386.808594 C 173.722656 386.808594 176.746094 389.832031 176.746094 393.566406 "/>
<path fill="none" stroke-width="0.708661" stroke-linecap="round" stroke-linejoin="round" stroke="rgb(18.431373%, 30.980392%, 30.980392%)" stroke-opacity="1" stroke-miterlimit="10" d="M 440.078125 327.785156 C 440.078125 331.519531 437.050781 334.542969 433.320312 334.542969 C 429.589844 334.542969 426.5625 331.519531 426.5625 327.785156 C 426.5625 324.054688 429.589844 321.03125 433.320312 321.03125 C 437.050781 321.03125 440.078125 324.054688 440.078125 327.785156 "/>
<path fill="none" stroke-width="0.708661" stroke-linecap="round" stroke-linejoin="round" stroke="rgb(18.431373%, 30.980392%, 30.980392%)" stroke-opacity="1" stroke-miterlimit="10" d="M 271.597656 421.210938 C 271.597656 424.941406 268.574219 427.96875 264.839844 427.96875 C 261.109375 427.96875 258.085938 424.941406 258.085938 421.210938 C 258.085938 417.480469 261.109375 414.453125 264.839844 414.453125 C 268.574219 414.453125 271.597656 417.480469 271.597656 421.210938 "/>
<path fill="none" stroke-width="0.708661" stroke-linecap="round" stroke-linejoin="round" stroke="rgb(18.431373%, 30.980392%, 30.980392%)" stroke-opacity="1" stroke-miterlimit="10" d="M 253.183594 452.210938 C 253.183594 455.945312 250.15625 458.96875 246.425781 458.96875 C 242.695312 458.96875 239.671875 455.945312 239.671875 452.210938 C 239.671875 448.480469 242.695312 445.457031 246.425781 445.457031 C 250.15625 445.457031 253.183594 448.480469 253.183594 452.210938 "/>
<path fill="none" stroke-width="0.708661" stroke-linecap="round" stroke-linejoin="round" stroke="rgb(18.431373%, 30.980392%, 30.980392%)" stroke-opacity="1" stroke-miterlimit="10" d="M 414.792969 396.492188 C 414.792969 400.222656 411.765625 403.246094 408.035156 403.246094 C 404.304688 403.246094 401.28125 400.222656 401.28125 396.492188 C 401.28125 392.761719 404.304688 389.734375 408.035156 389.734375 C 411.765625 389.734375 414.792969 392.761719 414.792969 396.492188 "/>
<path fill-rule="nonzero" fill="rgb(18.431373%, 30.980392%, 30.980392%)" fill-opacity="1" stroke-width="0.708661" stroke-linecap="round" stroke-linejoin="round" stroke="rgb(18.431373%, 30.980392%, 30.980392%)" stroke-opacity="1" stroke-miterlimit="10" d="M 354.660156 449.203125 C 354.660156 452.9375 351.632812 455.960938 347.902344 455.960938 C 344.171875 455.960938 341.148438 452.9375 341.148438 449.203125 C 341.148438 445.472656 344.171875 442.449219 347.902344 442.449219 C 351.632812 442.449219 354.660156 445.472656 354.660156 449.203125 "/>
<path fill="none" stroke-width="0.708661" stroke-linecap="round" stroke-linejoin="round" stroke="rgb(18.431373%, 30.980392%, 30.980392%)" stroke-opacity="1" stroke-miterlimit="10" d="M 264.304688 400.898438 C 264.304688 404.632812 261.28125 407.65625 257.550781 407.65625 C 253.816406 407.65625 250.792969 404.632812 250.792969 400.898438 C 250.792969 397.167969 253.816406 394.144531 257.550781 394.144531 C 261.28125 394.144531 264.304688 397.167969 264.304688 400.898438 "/>
<path fill="none" stroke-width="0.708661" stroke-linecap="round" stroke-linejoin="round" stroke="rgb(18.431373%, 30.980392%, 30.980392%)" stroke-opacity="1" stroke-miterlimit="10" d="M 166.710938 463.027344 C 166.710938 466.757812 163.683594 469.78125 159.953125 469.78125 C 156.222656 469.78125 153.195312 466.757812 153.195312 463.027344 C 153.195312 459.296875 156.222656 456.269531 159.953125 456.269531 C 163.683594 456.269531 166.710938 459.296875 166.710938 463.027344 "/>
<path fill="none" stroke-width="0.708661" stroke-linecap="round" stroke-linejoin="round" stroke="rgb(18.431373%, 30.980392%, 30.980392%)" stroke-opacity="1" stroke-miterlimit="10" d="M 421.46875 373.128906 C 421.46875 376.859375 418.441406 379.886719 414.710938 379.886719 C 410.980469 379.886719 407.957031 376.859375 407.957031 373.128906 C 407.957031 369.398438 410.980469 366.371094 414.710938 366.371094 C 418.441406 366.371094 421.46875 369.398438 421.46875 373.128906 "/>
<path fill="none" stroke-width="0.708661" stroke-linecap="round" stroke-linejoin="round" stroke="rgb(18.431373%, 30.980392%, 30.980392%)" stroke-opacity="1" stroke-miterlimit="10" d="M 177.527344 442.492188 C 177.527344 446.222656 174.503906 449.246094 170.773438 449.246094 C 167.039062 449.246094 164.015625 446.222656 164.015625 442.492188 C 164.015625 438.757812 167.039062 435.734375 170.773438 435.734375 C 174.503906 435.734375 177.527344 438.757812 177.527344 442.492188 "/>
<path fill="none" stroke-width="0.708661" stroke-linecap="round" stroke-linejoin="round" stroke="rgb(18.431373%, 30.980392%, 30.980392%)" stroke-opacity="1" stroke-miterlimit="10" d="M 81.585938 449.636719 C 81.585938 453.367188 78.5625 456.394531 74.828125 456.394531 C 71.097656 456.394531 68.074219 453.367188 68.074219 449.636719 C 68.074219 445.90625 71.097656 442.882812 74.828125 442.882812 C 78.5625 442.882812 81.585938 445.90625 81.585938 449.636719 "/>
<path fill="none" stroke-width="0.708661" stroke-linecap="round" stroke-linejoin="round" stroke="rgb(18.431373%, 30.980392%, 30.980392%)" stroke-opacity="1" stroke-miterlimit="10" d="M 425.871094 419.003906 C 425.871094 422.734375 422.84375 425.761719 419.113281 425.761719 C 415.382812 425.761719 412.359375 422.734375 412.359375 419.003906 C 412.359375 415.273438 415.382812 412.25 419.113281 412.25 C 422.84375 412.25 425.871094 415.273438 425.871094 419.003906 "/>
<path fill-rule="nonzero" fill="rgb(18.431373%, 30.980392%, 30.980392%)" fill-opacity="1" stroke-width="0.708661" stroke-linecap="round" stroke-linejoin="round" stroke="rgb(18.431373%, 30.980392%, 30.980392%)" stroke-opacity="1" stroke-miterlimit="10" d="M 413.648438 387.632812 C 413.648438 391.363281 410.625 394.386719 406.894531 394.386719 C 403.164062 394.386719 400.136719 391.363281 400.136719 387.632812 C 400.136719 383.898438 403.164062 380.875 406.894531 380.875 C 410.625 380.875 413.648438 383.898438 413.648438 387.632812 "/>
<path fill="none" stroke-width="0.708661" stroke-linecap="round" stroke-linejoin="round" stroke="rgb(18.431373%, 30.980392%, 30.980392%)" stroke-opacity="1" stroke-miterlimit="10" d="M 378.09375 409.660156 C 378.09375 413.390625 375.070312 416.414062 371.339844 416.414062 C 367.605469 416.414062 364.582031 413.390625 364.582031 409.660156 C 364.582031 405.925781 367.605469 402.902344 371.339844 402.902344 C 375.070312 402.902344 378.09375 405.925781 378.09375 409.660156 "/>
<path fill="none" stroke-width="0.708661" stroke-linecap="round" stroke-linejoin="round" stroke="rgb(18.431373%, 30.980392%, 30.980392%)" stroke-opacity="1" stroke-miterlimit="10" d="M 29.988281 462.207031 C 29.988281 465.9375 26.964844 468.964844 23.234375 468.964844 C 19.503906 468.964844 16.476562 465.9375 16.476562 462.207031 C 16.476562 458.476562 19.503906 455.453125 23.234375 455.453125 C 26.964844 455.453125 29.988281 458.476562 29.988281 462.207031 "/>
<path fill="none" stroke-width="0.708661" stroke-linecap="round" stroke-linejoin="round" stroke="rgb(18.431373%, 30.980392%, 30.980392%)" stroke-opacity="1" stroke-miterlimit="10" d="M 276.617188 420.152344 C 276.617188 423.886719 273.589844 426.910156 269.859375 426.910156 C 266.128906 426.910156 263.105469 423.886719 263.105469 420.152344 C 263.105469 416.421875 266.128906 413.398438 269.859375 413.398438 C 273.589844 413.398438 276.617188 416.421875 276.617188 420.152344 "/>
<path fill-rule="nonzero" fill="rgb(18.431373%, 30.980392%, 30.980392%)" fill-opacity="1" stroke-width="0.708661" stroke-linecap="round" stroke-linejoin="round" stroke="rgb(18.431373%, 30.980392%, 30.980392%)" stroke-opacity="1" stroke-miterlimit="10" d="M 319.683594 384.191406 C 319.683594 387.925781 316.660156 390.949219 312.925781 390.949219 C 309.195312 390.949219 306.171875 387.925781 306.171875 384.191406 C 306.171875 380.460938 309.195312 377.4375 312.925781 377.4375 C 316.660156 377.4375 319.683594 380.460938 319.683594 384.191406 "/>
<path fill="none" stroke-width="0.708661" stroke-linecap="round" stroke-linejoin="round" stroke="rgb(18.431373%, 30.980392%, 30.980392%)" stroke-opacity="1" stroke-miterlimit="10" d="M 453.035156 419.738281 C 453.035156 423.46875 450.011719 426.496094 446.277344 426.496094 C 442.546875 426.496094 439.523438 423.46875 439.523438 419.738281 C 439.523438 416.007812 442.546875 412.984375 446.277344 412.984375 C 450.011719 412.984375 453.035156 416.007812 453.035156 419.738281 "/>
<path fill="none" stroke-width="0.708661" stroke-linecap="round" stroke-linejoin="round" stroke="rgb(18.431373%, 30.980392%, 30.980392%)" stroke-opacity="1" stroke-miterlimit="10" d="M 346.046875 409.074219 C 346.046875 412.804688 343.023438 415.832031 339.292969 415.832031 C 335.558594 415.832031 332.535156 412.804688 332.535156 409.074219 C 332.535156 405.34375 335.558594 402.320312 339.292969 402.320312 C 343.023438 402.320312 346.046875 405.34375 346.046875 409.074219 "/>
<path fill-rule="nonzero" fill="rgb(18.431373%, 30.980392%, 30.980392%)" fill-opacity="1" stroke-width="0.708661" stroke-linecap="round" stroke-linejoin="round" stroke="rgb(18.431373%, 30.980392%, 30.980392%)" stroke-opacity="1" stroke-miterlimit="10" d="M 156.648438 439.8125 C 156.648438 443.542969 153.621094 446.566406 149.890625 446.566406 C 146.160156 446.566406 143.136719 443.542969 143.136719 439.8125 C 143.136719 436.082031 146.160156 433.054688 149.890625 433.054688 C 153.621094 433.054688 156.648438 436.082031 156.648438 439.8125 "/>
<path fill="none" stroke-width="0.708661" stroke-linecap="round" stroke-linejoin="round" stroke="rgb(18.431373%, 30.980392%, 30.980392%)" stroke-opacity="1" stroke-miterlimit="10" d="M 727.863281 23.4375 C 727.863281 27.171875 724.835938 30.195312 721.105469 30.195312 C 717.375 30.195312 714.351562 27.171875 714.351562 23.4375 C 714.351562 19.707031 717.375 16.683594 721.105469 16.683594 C 724.835938 16.683594 727.863281 19.707031 727.863281 23.4375 "/>
<path fill="none" stroke-width="0.708661" stroke-linecap="round" stroke-linejoin="round" stroke="rgb(18.431373%, 30.980392%, 30.980392%)" stroke-opacity="1" stroke-miterlimit="10" d="M 727.863281 23.4375 C 727.863281 27.171875 724.835938 30.195312 721.105469 30.195312 C 717.375 30.195312 714.351562 27.171875 714.351562 23.4375 C 714.351562 19.707031 717.375 16.683594 721.105469 16.683594 C 724.835938 16.683594 727.863281 19.707031 727.863281 23.4375 "/>
<path fill="none" stroke-width="4.267913" stroke-linecap="butt" stroke-linejoin="round" stroke="rgb(0%, 0%, 0%)" stroke-opacity="0.298039" stroke-dasharray="17.071654 17.071654" stroke-miterlimit="10" d="M -779.320312 600.300781 L 1523.660156 202.234375 "/>
<path fill="none" stroke-width="4.267913" stroke-linecap="butt" stroke-linejoin="round" stroke="rgb(0%, 0%, 0%)" stroke-opacity="0.298039" stroke-dasharray="17.071654 17.071654" stroke-miterlimit="10" d="M -779.320312 580.332031 L 1523.660156 216.234375 "/>
<path fill="none" stroke-width="4.267913" stroke-linecap="butt" stroke-linejoin="round" stroke="rgb(0%, 0%, 0%)" stroke-opacity="1" stroke-dasharray="17.071654 17.071654" stroke-miterlimit="10" d="M -779.320312 549.289062 L 1523.660156 257.339844 "/>
</svg>
