<?xml version="1.0" encoding="UTF-8"?>
<svg xmlns="http://www.w3.org/2000/svg" xmlns:xlink="http://www.w3.org/1999/xlink" width="756" height="504" viewBox="0 0 756 504">
<rect x="-75.6" y="-50.4" width="907.2" height="604.8" fill="rgb(100%, 100%, 100%)" fill-opacity="1"/>
<path fill="none" stroke-width="6.40187" stroke-linecap="butt" stroke-linejoin="round" stroke="rgb(90.196078%, 25.490196%, 45.098039%)" stroke-opacity="1" stroke-miterlimit="10" d="M -779.320312 680.28125 L 1523.660156 110.753906 "/>
<path fill-rule="nonzero" fill="rgb(18.431373%, 30.980392%, 30.980392%)" fill-opacity="1" stroke-width="0.708661" stroke-linecap="round" stroke-linejoin="round" stroke="rgb(18.431373%, 30.980392%, 30.980392%)" stroke-opacity="1" stroke-miterlimit="10" d="M 309.425781 399.28125 C 309.425781 404.191406 305.445312 408.171875 300.535156 408.171875 C 295.625 408.171875 291.644531 404.191406 291.644531 399.28125 C 291.644531 394.371094 295.625 390.390625 300.535156 390.390625 C 305.445312 390.390625 309.425781 394.371094 309.425781 399.28125 "/>
<path fill-rule="nonzero" fill="rgb(18.431373%, 30.980392%, 30.980392%)" fill-opacity="1" stroke-width="0.708661" stroke-linecap="round" stroke-linejoin="round" stroke="rgb(18.431373%, 30.980392%, 30.980392%)" stroke-opacity="1" stroke-miterlimit="10" d="M 167.214844 394.300781 C 167.214844 399.210938 163.234375 403.191406 158.324219 403.191406 C 153.414062 403.191406 149.433594 399.210938 149.433594 394.300781 C 149.433594 389.390625 153.414062 385.410156 158.324219 385.410156 C 163.234375 385.410156 167.214844 389.390625 167.214844 394.300781 "/>
<path fill-rule="nonzero" fill="rgb(18.431373%, 30.980392%, 30.980392%)" fill-opacity="1" stroke-width="0.708661" stroke-linecap="round" stroke-linejoin="round" stroke="rgb(18.431373%, 30.980392%, 30.980392%)" stroke-opacity="1" stroke-miterlimit="10" d="M 371.929688 492.222656 C 371.929688 497.132812 367.949219 501.109375 363.039062 501.109375 C 358.128906 501.109375 354.148438 497.132812 354.148438 492.222656 C 354.148438 487.3125 358.128906 483.332031 363.039062 483.332031 C 367.949219 483.332031 371.929688 487.3125 371.929688 492.222656 "/>
<path fill-rule="nonzero" fill="rgb(18.431373%, 30.980392%, 30.980392%)" fill-opacity="1" stroke-width="0.708661" stroke-linecap="round" stroke-linejoin="round" stroke="rgb(18.431373%, 30.980392%, 30.980392%)" stroke-opacity="1" stroke-miterlimit="10" d="M 327.152344 434.257812 C 327.152344 439.167969 323.171875 443.148438 318.261719 443.148438 C 313.351562 443.148438 309.371094 439.167969 309.371094 434.257812 C 309.371094 429.347656 313.351562 425.367188 318.261719 425.367188 C 323.171875 425.367188 327.152344 429.347656 327.152344 434.257812 "/>
<path fill-rule="nonzero" fill="rgb(18.431373%, 30.980392%, 30.980392%)" fill-opacity="1" stroke-width="0.708661" stroke-linecap="round" stroke-linejoin="round" stroke="rgb(18.431373%, 30.980392%, 30.980392%)" stroke-opacity="1" stroke-miterlimit="10" d="M 261.1875 389.414062 C 261.1875 394.324219 257.210938 398.300781 252.300781 398.300781 C 247.390625 398.300781 243.410156 394.324219 243.410156 389.414062 C 243.410156 384.503906 247.390625 380.523438 252.300781 380.523438 C 257.210938 380.523438 261.1875 384.503906 261.1875 389.414062 "/>
<path fill-rule="nonzero" fill="rgb(18.431373%, 30.980392%, 30.980392%)" fill-opacity="1" stroke-width="0.708661" stroke-linecap="round" stroke-linejoin="round" stroke="rgb(18.431373%, 30.980392%, 30.980392%)" stroke-opacity="1" stroke-miterlimit="10" d="M 331.472656 423.816406 C 331.472656 428.726562 327.492188 432.707031 322.582031 432.707031 C 317.671875 432.707031 313.691406 428.726562 313.691406 423.816406 C 313.691406 418.90625 317.671875 414.925781 322.582031 414.925781 C 327.492188 414.925781 331.472656 418.90625 331.472656 423.816406 "/>
<path fill-rule="nonzero" fill="rgb(18.431373%, 30.980392%, 30.980392%)" fill-opacity="1" stroke-width="0.708661" stroke-linecap="round" stroke-linejoin="round" stroke="rgb(18.431373%, 30.980392%, 30.980392%)" stroke-opacity="1" stroke-miterlimit="10" d="M 326.183594 390.132812 C 326.183594 395.042969 322.203125 399.023438 317.292969 399.023438 C 312.382812 399.023438 308.402344 395.042969 308.402344 390.132812 C 308.402344 385.222656 312.382812 381.242188 317.292969 381.242188 C 322.203125 381.242188 326.183594 385.222656 326.183594 390.132812 "/>
<path fill-rule="nonzero" fill="rgb(18.431373%, 30.980392%, 30.980392%)" fill-opacity="1" stroke-width="0.708661" stroke-linecap="round" stroke-linejoin="round" stroke="rgb(18.431373%, 30.980392%, 30.980392%)" stroke-opacity="1" stroke-miterlimit="10" d="M 235.496094 460.878906 C 235.496094 465.789062 231.515625 469.769531 226.605469 469.769531 C 221.695312 469.769531 217.714844 465.789062 217.714844 460.878906 C 217.714844 455.96875 221.695312 451.988281 226.605469 451.988281 C 231.515625 451.988281 235.496094 455.96875 235.496094 460.878906 "/>
<path fill-rule="nonzero" fill="rgb(18.431373%, 30.980392%, 30.980392%)" fill-opacity="1" stroke-width="0.708661" stroke-linecap="round" stroke-linejoin="round" stroke="rgb(18.431373%, 30.980392%, 30.980392%)" stroke-opacity="1" stroke-miterlimit="10" d="M 396.605469 411 C 396.605469 415.910156 392.625 419.890625 387.714844 419.890625 C 382.804688 419.890625 378.824219 415.910156 378.824219 411 C 378.824219 406.089844 382.804688 402.109375 387.714844 402.109375 C 392.625 402.109375 396.605469 406.089844 396.605469 411 "/>
<path fill-rule="nonzero" fill="rgb(18.431373%, 30.980392%, 30.980392%)" fill-opacity="1" stroke-width="0.708661" stroke-linecap="round" stroke-linejoin="round" stroke="rgb(18.431373%, 30.980392%, 30.980392%)" stroke-opacity="1" stroke-miterlimit="10" d="M 475.464844 350.117188 C 475.464844 355.027344 471.484375 359.007812 466.574219 359.007812 C 461.667969 359.007812 457.6875 355.027344 457.6875 350.117188 C 457.6875 345.210938 461.667969 341.230469 466.574219 341.230469 C 471.484375 341.230469 475.464844 345.210938 475.464844 350.117188 "/>
<path fill-rule="nonzero" fill="rgb(18.431373%, 30.980392%, 30.980392%)" fill-opacity="1" stroke-width="0.708661" stroke-linecap="round" stroke-linejoin="round" stroke="rgb(18.431373%, 30.980392%, 30.980392%)" stroke-opacity="1" stroke-miterlimit="10" d="M 250.167969 469.503906 C 250.167969 474.410156 246.1875 478.390625 241.277344 478.390625 C 236.367188 478.390625 232.386719 474.410156 232.386719 469.503906 C 232.386719 464.59375 236.367188 460.613281 241.277344 460.613281 C 246.1875 460.613281 250.167969 464.59375 250.167969 469.503906 "/>
<path fill-rule="nonzero" fill="rgb(18.431373%, 30.980392%, 30.980392%)" fill-opacity="1" stroke-width="0.708661" stroke-linecap="round" stroke-linejoin="round" stroke="rgb(18.431373%, 30.980392%, 30.980392%)" stroke-opacity="1" stroke-miterlimit="10" d="M 214.8125 408.300781 C 214.8125 413.210938 210.832031 417.191406 205.921875 417.191406 C 201.011719 417.191406 197.03125 413.210938 197.03125 408.300781 C 197.03125 403.390625 201.011719 399.414062 205.921875 399.414062 C 210.832031 399.414062 214.8125 403.390625 214.8125 408.300781 "/>
<path fill-rule="nonzero" fill="rgb(18.431373%, 30.980392%, 30.980392%)" fill-opacity="1" stroke-width="0.708661" stroke-linecap="round" stroke-linejoin="round" stroke="rgb(18.431373%, 30.980392%, 30.980392%)" stroke-opacity="1" stroke-miterlimit="10" d="M 331.875 433.152344 C 331.875 438.0625 327.894531 442.042969 322.984375 442.042969 C 318.074219 442.042969 314.09375 438.0625 314.09375 433.152344 C 314.09375 428.242188 318.074219 424.261719 322.984375 424.261719 C 327.894531 424.261719 331.875 428.242188 331.875 433.152344 "/>
<path fill-rule="nonzero" fill="rgb(18.431373%, 30.980392%, 30.980392%)" fill-opacity="1" stroke-width="0.708661" stroke-linecap="round" stroke-linejoin="round" stroke="rgb(18.431373%, 30.980392%, 30.980392%)" stroke-opacity="1" stroke-miterlimit="10" d="M 257.035156 429.800781 C 257.035156 434.710938 253.054688 438.691406 248.144531 438.691406 C 243.234375 438.691406 239.253906 434.710938 239.253906 429.800781 C 239.253906 424.890625 243.234375 420.910156 248.144531 420.910156 C 253.054688 420.910156 257.035156 424.890625 257.035156 429.800781 "/>
<path fill-rule="nonzero" fill="rgb(18.431373%, 30.980392%, 30.980392%)" fill-opacity="1" stroke-width="0.708661" stroke-linecap="round" stroke-linejoin="round" stroke="rgb(18.431373%, 30.980392%, 30.980392%)" stroke-opacity="1" stroke-miterlimit="10" d="M 484.15625 391.246094 C 484.15625 396.15625 480.175781 400.136719 475.269531 400.136719 C 470.359375 400.136719 466.378906 396.15625 466.378906 391.246094 C 466.378906 386.335938 470.359375 382.355469 475.269531 382.355469 C 480.175781 382.355469 484.15625 386.335938 484.15625 391.246094 "/>
<path fill-rule="nonzero" fill="rgb(18.431373%, 30.980392%, 30.980392%)" fill-opacity="1" stroke-width="0.708661" stroke-linecap="round" stroke-linejoin="round" stroke="rgb(18.431373%, 30.980392%, 30.980392%)" stroke-opacity="1" stroke-miterlimit="10" d="M 248.097656 373.621094 C 248.097656 378.53125 244.117188 382.511719 239.207031 382.511719 C 234.296875 382.511719 230.316406 378.53125 230.316406 373.621094 C 230.316406 368.710938 234.296875 364.730469 239.207031 364.730469 C 244.117188 364.730469 248.097656 368.710938 248.097656 373.621094 "/>
<path fill-rule="nonzero" fill="rgb(18.431373%, 30.980392%, 30.980392%)" fill-opacity="1" stroke-width="0.708661" stroke-linecap="round" stroke-linejoin="round" stroke="rgb(18.431373%, 30.980392%, 30.980392%)" stroke-opacity="1" stroke-miterlimit="10" d="M 386.296875 389.273438 C 386.296875 394.179688 382.316406 398.160156 377.40625 398.160156 C 372.496094 398.160156 368.515625 394.179688 368.515625 389.273438 C 368.515625 384.363281 372.496094 380.382812 377.40625 380.382812 C 382.316406 380.382812 386.296875 384.363281 386.296875 389.273438 "/>
<path fill-rule="nonzero" fill="rgb(18.431373%, 30.980392%, 30.980392%)" fill-opacity="1" stroke-width="0.708661" stroke-linecap="round" stroke-linejoin="round" stroke="rgb(18.431373%, 30.980392%, 30.980392%)" stroke-opacity="1" stroke-miterlimit="10" d="M 464.144531 425.734375 C 464.144531 430.644531 460.164062 434.621094 455.253906 434.621094 C 450.34375 434.621094 446.363281 430.644531 446.363281 425.734375 C 446.363281 420.824219 450.34375 416.84375 455.253906 416.84375 C 460.164062 416.84375 464.144531 420.824219 464.144531 425.734375 "/>
<path fill-rule="nonzero" fill="rgb(18.431373%, 30.980392%, 30.980392%)" fill-opacity="1" stroke-width="0.708661" stroke-linecap="round" stroke-linejoin="round" stroke="rgb(18.431373%, 30.980392%, 30.980392%)" stroke-opacity="1" stroke-miterlimit="10" d="M 592.433594 357.84375 C 592.433594 362.753906 588.453125 366.734375 583.542969 366.734375 C 578.632812 366.734375 574.652344 362.753906 574.652344 357.84375 C 574.652344 352.933594 578.632812 348.953125 583.542969 348.953125 C 588.453125 348.953125 592.433594 352.933594 592.433594 357.84375 "/>
<path fill-rule="nonzero" fill="rgb(18.431373%, 30.980392%, 30.980392%)" fill-opacity="1" stroke-width="0.708661" stroke-linecap="round" stroke-linejoin="round" stroke="rgb(18.431373%, 30.980392%, 30.980392%)" stroke-opacity="1" stroke-miterlimit="10" d="M 349.996094 428.171875 C 349.996094 433.082031 346.015625 437.0625 341.105469 437.0625 C 336.195312 437.0625 332.214844 433.082031 332.214844 428.171875 C 332.214844 423.261719 336.195312 419.28125 341.105469 419.28125 C 346.015625 419.28125 349.996094 423.261719 349.996094 428.171875 "/>
<path fill-rule="nonzero" fill="rgb(18.431373%, 30.980392%, 30.980392%)" fill-opacity="1" stroke-width="0.708661" stroke-linecap="round" stroke-linejoin="round" stroke="rgb(18.431373%, 30.980392%, 30.980392%)" stroke-opacity="1" stroke-miterlimit="10" d="M 501.742188 404.871094 C 501.742188 409.78125 497.761719 413.761719 492.851562 413.761719 C 487.941406 413.761719 483.960938 409.78125 483.960938 404.871094 C 483.960938 399.960938 487.941406 395.980469 492.851562 395.980469 C 497.761719 395.980469 501.742188 399.960938 501.742188 404.871094 "/>
<path fill-rule="nonzero" fill="rgb(18.431373%, 30.980392%, 30.980392%)" fill-opacity="1" stroke-width="0.708661" stroke-linecap="round" stroke-linejoin="round" stroke="rgb(18.431373%, 30.980392%, 30.980392%)" stroke-opacity="1" stroke-miterlimit="10" d="M 369.582031 436.644531 C 369.582031 441.554688 365.601562 445.535156 360.691406 445.535156 C 355.78125 445.535156 351.800781 441.554688 351.800781 436.644531 C 351.800781 431.734375 355.78125 427.753906 360.691406 427.753906 C 365.601562 427.753906 369.582031 431.734375 369.582031 436.644531 "/>
<path fill-rule="nonzero" fill="rgb(18.431373%, 30.980392%, 30.980392%)" fill-opacity="1" stroke-width="0.708661" stroke-linecap="round" stroke-linejoin="round" stroke="rgb(18.431373%, 30.980392%, 30.980392%)" stroke-opacity="1" stroke-miterlimit="10" d="M 321.957031 429.136719 C 321.957031 434.046875 317.976562 438.027344 313.070312 438.027344 C 308.160156 438.027344 304.179688 434.046875 304.179688 429.136719 C 304.179688 424.226562 308.160156 420.246094 313.070312 420.246094 C 317.976562 420.246094 321.957031 424.226562 321.957031 429.136719 "/>
<path fill-rule="nonzero" fill="rgb(18.431373%, 30.980392%, 30.980392%)" fill-opacity="1" stroke-width="0.708661" stroke-linecap="round" stroke-linejoin="round" stroke="rgb(18.431373%, 30.980392%, 30.980392%)" stroke-opacity="1" stroke-miterlimit="10" d="M 350.15625 420.378906 C 350.15625 425.289062 346.175781 429.269531 341.265625 429.269531 C 336.355469 429.269531 332.375 425.289062 332.375 420.378906 C 332.375 415.46875 336.355469 411.488281 341.265625 411.488281 C 346.175781 411.488281 350.15625 415.46875 350.15625 420.378906 "/>
<path fill-rule="nonzero" fill="rgb(18.431373%, 30.980392%, 30.980392%)" fill-opacity="1" stroke-width="0.708661" stroke-linecap="round" stroke-linejoin="round" stroke="rgb(18.431373%, 30.980392%, 30.980392%)" stroke-opacity="1" stroke-miterlimit="10" d="M 466.070312 408.707031 C 466.070312 413.617188 462.089844 417.597656 457.179688 417.597656 C 452.269531 417.597656 448.289062 413.617188 448.289062 408.707031 C 448.289062 403.796875 452.269531 399.816406 457.179688 399.816406 C 462.089844 399.816406 466.070312 403.796875 466.070312 408.707031 "/>
<path fill-rule="nonzero" fill="rgb(18.431373%, 30.980392%, 30.980392%)" fill-opacity="1" stroke-width="0.708661" stroke-linecap="round" stroke-linejoin="round" stroke="rgb(18.431373%, 30.980392%, 30.980392%)" stroke-opacity="1" stroke-miterlimit="10" d="M 336.253906 416.402344 C 336.253906 421.3125 332.273438 425.292969 327.363281 425.292969 C 322.453125 425.292969 318.472656 421.3125 318.472656 416.402344 C 318.472656 411.492188 322.453125 407.511719 327.363281 407.511719 C 332.273438 407.511719 336.253906 411.492188 336.253906 416.402344 "/>
<path fill-rule="nonzero" fill="rgb(18.431373%, 30.980392%, 30.980392%)" fill-opacity="1" stroke-width="0.708661" stroke-linecap="round" stroke-linejoin="round" stroke="rgb(18.431373%, 30.980392%, 30.980392%)" stroke-opacity="1" stroke-miterlimit="10" d="M 297.816406 388.648438 C 297.816406 393.558594 293.835938 397.539062 288.925781 397.539062 C 284.019531 397.539062 280.039062 393.558594 280.039062 388.648438 C 280.039062 383.738281 284.019531 379.757812 288.925781 379.757812 C 293.835938 379.757812 297.816406 383.738281 297.816406 388.648438 "/>
<path fill-rule="nonzero" fill="rgb(18.431373%, 30.980392%, 30.980392%)" fill-opacity="1" stroke-width="0.708661" stroke-linecap="round" stroke-linejoin="round" stroke="rgb(18.431373%, 30.980392%, 30.980392%)" stroke-opacity="1" stroke-miterlimit="10" d="M 222.265625 421.695312 C 222.265625 426.605469 218.285156 430.582031 213.375 430.582031 C 208.46875 430.582031 204.488281 426.605469 204.488281 421.695312 C 204.488281 416.785156 208.46875 412.804688 213.375 412.804688 C 218.285156 412.804688 222.265625 416.785156 222.265625 421.695312 "/>
<path fill-rule="nonzero" fill="rgb(18.431373%, 30.980392%, 30.980392%)" fill-opacity="1" stroke-width="0.708661" stroke-linecap="round" stroke-linejoin="round" stroke="rgb(18.431373%, 30.980392%, 30.980392%)" stroke-opacity="1" stroke-miterlimit="10" d="M 111.441406 471.828125 C 111.441406 476.738281 107.460938 480.71875 102.550781 480.71875 C 97.640625 480.71875 93.664062 476.738281 93.664062 471.828125 C 93.664062 466.917969 97.640625 462.9375 102.550781 462.9375 C 107.460938 462.9375 111.441406 466.917969 111.441406 471.828125 "/>
<path fill-rule="nonzero" fill="rgb(18.431373%, 30.980392%, 30.980392%)" fill-opacity="1" stroke-width="0.708661" stroke-linecap="round" stroke-linejoin="round" stroke="rgb(18.431373%, 30.980392%, 30.980392%)" stroke-opacity="1" stroke-miterlimit="10" d="M 444.753906 340.488281 C 444.753906 345.398438 440.773438 349.378906 435.863281 349.378906 C 430.953125 349.378906 426.972656 345.398438 426.972656 340.488281 C 426.972656 335.578125 430.953125 331.597656 435.863281 331.597656 C 440.773438 331.597656 444.753906 335.578125 444.753906 340.488281 "/>
<path fill-rule="nonzero" fill="rgb(18.431373%, 30.980392%, 30.980392%)" fill-opacity="1" stroke-width="0.708661" stroke-linecap="round" stroke-linejoin="round" stroke="rgb(18.431373%, 30.980392%, 30.980392%)" stroke-opacity="1" stroke-miterlimit="10" d="M 241.601562 414.886719 C 241.601562 419.796875 237.621094 423.777344 232.710938 423.777344 C 227.800781 423.777344 223.820312 419.796875 223.820312 414.886719 C 223.820312 409.976562 227.800781 405.996094 232.710938 405.996094 C 237.621094 405.996094 241.601562 409.976562 241.601562 414.886719 "/>
<path fill-rule="nonzero" fill="rgb(18.431373%, 30.980392%, 30.980392%)" fill-opacity="1" stroke-width="0.708661" stroke-linecap="round" stroke-linejoin="round" stroke="rgb(18.431373%, 30.980392%, 30.980392%)" stroke-opacity="1" stroke-miterlimit="10" d="M 360.882812 442.539062 C 360.882812 447.445312 356.902344 451.425781 351.992188 451.425781 C 347.082031 451.425781 343.101562 447.445312 343.101562 442.539062 C 343.101562 437.628906 347.082031 433.648438 351.992188 433.648438 C 356.902344 433.648438 360.882812 437.628906 360.882812 442.539062 "/>
<path fill-rule="nonzero" fill="rgb(18.431373%, 30.980392%, 30.980392%)" fill-opacity="1" stroke-width="0.708661" stroke-linecap="round" stroke-linejoin="round" stroke="rgb(18.431373%, 30.980392%, 30.980392%)" stroke-opacity="1" stroke-miterlimit="10" d="M 398.296875 389.273438 C 398.296875 394.183594 394.316406 398.164062 389.40625 398.164062 C 384.496094 398.164062 380.515625 394.183594 380.515625 389.273438 C 380.515625 384.363281 384.496094 380.382812 389.40625 380.382812 C 394.316406 380.382812 398.296875 384.363281 398.296875 389.273438 "/>
<path fill-rule="nonzero" fill="rgb(18.431373%, 30.980392%, 30.980392%)" fill-opacity="1" stroke-width="0.708661" stroke-linecap="round" stroke-linejoin="round" stroke="rgb(18.431373%, 30.980392%, 30.980392%)" stroke-opacity="1" stroke-miterlimit="10" d="M 419.339844 389.902344 C 419.339844 394.8125 415.359375 398.792969 410.449219 398.792969 C 405.539062 398.792969 401.558594 394.8125 401.558594 389.902344 C 401.558594 384.992188 405.539062 381.011719 410.449219 381.011719 C 415.359375 381.011719 419.339844 384.992188 419.339844 389.902344 "/>
<path fill-rule="nonzero" fill="rgb(18.431373%, 30.980392%, 30.980392%)" fill-opacity="1" stroke-width="0.708661" stroke-linecap="round" stroke-linejoin="round" stroke="rgb(18.431373%, 30.980392%, 30.980392%)" stroke-opacity="1" stroke-miterlimit="10" d="M 212.957031 460.871094 C 212.957031 465.78125 208.976562 469.761719 204.066406 469.761719 C 199.15625 469.761719 195.175781 465.78125 195.175781 460.871094 C 195.175781 455.960938 199.15625 451.980469 204.066406 451.980469 C 208.976562 451.980469 212.957031 455.960938 212.957031 460.871094 "/>
<path fill-rule="nonzero" fill="rgb(18.431373%, 30.980392%, 30.980392%)" fill-opacity="1" stroke-width="0.708661" stroke-linecap="round" stroke-linejoin="round" stroke="rgb(18.431373%, 30.980392%, 30.980392%)" stroke-opacity="1" stroke-miterlimit="10" d="M 534.148438 324.289062 C 534.148438 329.199219 530.167969 333.179688 525.257812 333.179688 C 520.347656 333.179688 516.371094 329.199219 516.371094 324.289062 C 516.371094 319.378906 520.347656 315.398438 525.257812 315.398438 C 530.167969 315.398438 534.148438 319.378906 534.148438 324.289062 "/>
<path fill-rule="nonzero" fill="rgb(18.431373%, 30.980392%, 30.980392%)" fill-opacity="1" stroke-width="0.708661" stroke-linecap="round" stroke-linejoin="round" stroke="rgb(18.431373%, 30.980392%, 30.980392%)" stroke-opacity="1" stroke-miterlimit="10" d="M 535.355469 369.976562 C 535.355469 374.886719 531.375 378.867188 526.464844 378.867188 C 521.554688 378.867188 517.574219 374.886719 517.574219 369.976562 C 517.574219 365.066406 521.554688 361.085938 526.464844 361.085938 C 531.375 361.085938 535.355469 365.066406 535.355469 369.976562 "/>
<path fill-rule="nonzero" fill="rgb(18.431373%, 30.980392%, 30.980392%)" fill-opacity="1" stroke-width="0.708661" stroke-linecap="round" stroke-linejoin="round" stroke="rgb(18.431373%, 30.980392%, 30.980392%)" stroke-opacity="1" stroke-miterlimit="10" d="M 475.019531 373.976562 C 475.019531 378.886719 471.039062 382.867188 466.128906 382.867188 C 461.21875 382.867188 457.238281 378.886719 457.238281 373.976562 C 457.238281 369.066406 461.21875 365.085938 466.128906 365.085938 C 471.039062 365.085938 475.019531 369.066406 475.019531 373.976562 "/>
<path fill-rule="nonzero" fill="rgb(18.431373%, 30.980392%, 30.980392%)" fill-opacity="1" stroke-width="0.708661" stroke-linecap="round" stroke-linejoin="round" stroke="rgb(18.431373%, 30.980392%, 30.980392%)" stroke-opacity="1" stroke-miterlimit="10" d="M 392.976562 416.28125 C 392.976562 421.191406 388.996094 425.171875 384.085938 425.171875 C 379.175781 425.171875 375.195312 421.191406 375.195312 416.28125 C 375.195312 411.371094 379.175781 407.390625 384.085938 407.390625 C 388.996094 407.390625 392.976562 411.371094 392.976562 416.28125 "/>
<path fill-rule="nonzero" fill="rgb(18.431373%, 30.980392%, 30.980392%)" fill-opacity="1" stroke-width="0.708661" stroke-linecap="round" stroke-linejoin="round" stroke="rgb(18.431373%, 30.980392%, 30.980392%)" stroke-opacity="1" stroke-miterlimit="10" d="M 324.199219 404.390625 C 324.199219 409.300781 320.21875 413.28125 315.308594 413.28125 C 310.398438 413.28125 306.417969 409.300781 306.417969 404.390625 C 306.417969 399.484375 310.398438 395.503906 315.308594 395.503906 C 320.21875 395.503906 324.199219 399.484375 324.199219 404.390625 "/>
<path fill-rule="nonzero" fill="rgb(18.431373%, 30.980392%, 30.980392%)" fill-opacity="1" stroke-width="0.708661" stroke-linecap="round" stroke-linejoin="round" stroke="rgb(18.431373%, 30.980392%, 30.980392%)" stroke-opacity="1" stroke-miterlimit="10" d="M 393.9375 391.835938 C 393.9375 396.746094 389.957031 400.726562 385.046875 400.726562 C 380.136719 400.726562 376.15625 396.746094 376.15625 391.835938 C 376.15625 386.925781 380.136719 382.945312 385.046875 382.945312 C 389.957031 382.945312 393.9375 386.925781 393.9375 391.835938 "/>
<path fill-rule="nonzero" fill="rgb(18.431373%, 30.980392%, 30.980392%)" fill-opacity="1" stroke-width="0.708661" stroke-linecap="round" stroke-linejoin="round" stroke="rgb(18.431373%, 30.980392%, 30.980392%)" stroke-opacity="1" stroke-miterlimit="10" d="M 418.484375 376.960938 C 418.484375 381.871094 414.503906 385.851562 409.597656 385.851562 C 404.6875 385.851562 400.707031 381.871094 400.707031 376.960938 C 400.707031 372.050781 404.6875 368.070312 409.597656 368.070312 C 414.503906 368.070312 418.484375 372.050781 418.484375 376.960938 "/>
<path fill-rule="nonzero" fill="rgb(18.431373%, 30.980392%, 30.980392%)" fill-opacity="1" stroke-width="0.708661" stroke-linecap="round" stroke-linejoin="round" stroke="rgb(18.431373%, 30.980392%, 30.980392%)" stroke-opacity="1" stroke-miterlimit="10" d="M 454.152344 417.296875 C 454.152344 422.207031 450.171875 426.1875 445.261719 426.1875 C 440.351562 426.1875 436.371094 422.207031 436.371094 417.296875 C 436.371094 412.390625 440.351562 408.410156 445.261719 408.410156 C 450.171875 408.410156 454.152344 412.390625 454.152344 417.296875 "/>
<path fill-rule="nonzero" fill="rgb(18.431373%, 30.980392%, 30.980392%)" fill-opacity="1" stroke-width="0.708661" stroke-linecap="round" stroke-linejoin="round" stroke="rgb(18.431373%, 30.980392%, 30.980392%)" stroke-opacity="1" stroke-miterlimit="10" d="M 274.554688 415.089844 C 274.554688 420 270.574219 423.980469 265.664062 423.980469 C 260.753906 423.980469 256.773438 420 256.773438 415.089844 C 256.773438 410.179688 260.753906 406.199219 265.664062 406.199219 C 270.574219 406.199219 274.554688 410.179688 274.554688 415.089844 "/>
<path fill-rule="nonzero" fill="rgb(18.431373%, 30.980392%, 30.980392%)" fill-opacity="1" stroke-width="0.708661" stroke-linecap="round" stroke-linejoin="round" stroke="rgb(18.431373%, 30.980392%, 30.980392%)" stroke-opacity="1" stroke-miterlimit="10" d="M 282.269531 428.402344 C 282.269531 433.3125 278.289062 437.292969 273.378906 437.292969 C 268.46875 437.292969 264.488281 433.3125 264.488281 428.402344 C 264.488281 423.492188 268.46875 419.511719 273.378906 419.511719 C 278.289062 419.511719 282.269531 423.492188 282.269531 428.402344 "/>
<path fill-rule="nonzero" fill="rgb(18.431373%, 30.980392%, 30.980392%)" fill-opacity="1" stroke-width="0.708661" stroke-linecap="round" stroke-linejoin="round" stroke="rgb(18.431373%, 30.980392%, 30.980392%)" stroke-opacity="1" stroke-miterlimit="10" d="M 297.5625 429.980469 C 297.5625 434.890625 293.582031 438.871094 288.671875 438.871094 C 283.761719 438.871094 279.78125 434.890625 279.78125 429.980469 C 279.78125 425.070312 283.761719 421.089844 288.671875 421.089844 C 293.582031 421.089844 297.5625 425.070312 297.5625 429.980469 "/>
<path fill-rule="nonzero" fill="rgb(18.431373%, 30.980392%, 30.980392%)" fill-opacity="1" stroke-width="0.708661" stroke-linecap="round" stroke-linejoin="round" stroke="rgb(18.431373%, 30.980392%, 30.980392%)" stroke-opacity="1" stroke-miterlimit="10" d="M 202.933594 412.445312 C 202.933594 417.355469 198.953125 421.335938 194.042969 421.335938 C 189.132812 421.335938 185.152344 417.355469 185.152344 412.445312 C 185.152344 407.535156 189.132812 403.554688 194.042969 403.554688 C 198.953125 403.554688 202.933594 407.535156 202.933594 412.445312 "/>
<path fill-rule="nonzero" fill="rgb(18.431373%, 30.980392%, 30.980392%)" fill-opacity="1" stroke-width="0.708661" stroke-linecap="round" stroke-linejoin="round" stroke="rgb(18.431373%, 30.980392%, 30.980392%)" stroke-opacity="1" stroke-miterlimit="10" d="M 383.53125 371.066406 C 383.53125 375.976562 379.550781 379.957031 374.640625 379.957031 C 369.730469 379.957031 365.75 375.976562 365.75 371.066406 C 365.75 366.15625 369.730469 362.175781 374.640625 362.175781 C 379.550781 362.175781 383.53125 366.15625 383.53125 371.066406 "/>
<path fill-rule="nonzero" fill="rgb(18.431373%, 30.980392%, 30.980392%)" fill-opacity="1" stroke-width="0.708661" stroke-linecap="round" stroke-linejoin="round" stroke="rgb(18.431373%, 30.980392%, 30.980392%)" stroke-opacity="1" stroke-miterlimit="10" d="M 389.566406 406.132812 C 389.566406 411.042969 385.585938 415.023438 380.675781 415.023438 C 375.765625 415.023438 371.785156 411.042969 371.785156 406.132812 C 371.785156 401.222656 375.765625 397.242188 380.675781 397.242188 C 385.585938 397.242188 389.566406 401.222656 389.566406 406.132812 "/>
<path fill-rule="nonzero" fill="rgb(18.431373%, 30.980392%, 30.980392%)" fill-opacity="1" stroke-width="0.708661" stroke-linecap="round" stroke-linejoin="round" stroke="rgb(18.431373%, 30.980392%, 30.980392%)" stroke-opacity="1" stroke-miterlimit="10" d="M 506.898438 399.351562 C 506.898438 404.261719 502.917969 408.242188 498.007812 408.242188 C 493.097656 408.242188 489.117188 404.261719 489.117188 399.351562 C 489.117188 394.441406 493.097656 390.460938 498.007812 390.460938 C 502.917969 390.460938 506.898438 394.441406 506.898438 399.351562 "/>
<path fill-rule="nonzero" fill="rgb(18.431373%, 30.980392%, 30.980392%)" fill-opacity="1" stroke-width="0.708661" stroke-linecap="round" stroke-linejoin="round" stroke="rgb(18.431373%, 30.980392%, 30.980392%)" stroke-opacity="1" stroke-miterlimit="10" d="M 259.402344 414.601562 C 259.402344 419.511719 255.425781 423.492188 250.515625 423.492188 C 245.605469 423.492188 241.625 419.511719 241.625 414.601562 C 241.625 409.691406 245.605469 405.710938 250.515625 405.710938 C 255.425781 405.710938 259.402344 409.691406 259.402344 414.601562 "/>
<path fill-rule="nonzero" fill="rgb(18.431373%, 30.980392%, 30.980392%)" fill-opacity="1" stroke-width="0.708661" stroke-linecap="round" stroke-linejoin="round" stroke="rgb(18.431373%, 30.980392%, 30.980392%)" stroke-opacity="1" stroke-miterlimit="10" d="M 200.347656 450.835938 C 200.347656 455.746094 196.367188 459.726562 191.457031 459.726562 C 186.546875 459.726562 182.566406 455.746094 182.566406 450.835938 C 182.566406 445.925781 186.546875 441.945312 191.457031 441.945312 C 196.367188 441.945312 200.347656 445.925781 200.347656 450.835938 "/>
<path fill-rule="nonzero" fill="rgb(18.431373%, 30.980392%, 30.980392%)" fill-opacity="1" stroke-width="0.708661" stroke-linecap="round" stroke-linejoin="round" stroke="rgb(18.431373%, 30.980392%, 30.980392%)" stroke-opacity="1" stroke-miterlimit="10" d="M 448.167969 403.789062 C 448.167969 408.699219 444.1875 412.679688 439.28125 412.679688 C 434.371094 412.679688 430.390625 408.699219 430.390625 403.789062 C 430.390625 398.882812 434.371094 394.902344 439.28125 394.902344 C 444.1875 394.902344 448.167969 398.882812 448.167969 403.789062 "/>
<path fill-rule="nonzero" fill="rgb(18.431373%, 30.980392%, 30.980392%)" fill-opacity="1" stroke-width="0.708661" stroke-linecap="round" stroke-linejoin="round" stroke="rgb(18.431373%, 30.980392%, 30.980392%)" stroke-opacity="1" stroke-miterlimit="10" d="M 388.371094 431.839844 C 388.371094 436.75 384.390625 440.730469 379.480469 440.730469 C 374.570312 440.730469 370.59375 436.75 370.59375 431.839844 C 370.59375 426.929688 374.570312 422.953125 379.480469 422.953125 C 384.390625 422.953125 388.371094 426.929688 388.371094 431.839844 "/>
<path fill-rule="nonzero" fill="rgb(18.431373%, 30.980392%, 30.980392%)" fill-opacity="1" stroke-width="0.708661" stroke-linecap="round" stroke-linejoin="round" stroke="rgb(18.431373%, 30.980392%, 30.980392%)" stroke-opacity="1" stroke-miterlimit="10" d="M 251.800781 442.675781 C 251.800781 447.585938 247.820312 451.566406 242.910156 451.566406 C 238 451.566406 234.019531 447.585938 234.019531 442.675781 C 234.019531 437.765625 238 433.785156 242.910156 433.785156 C 247.820312 433.785156 251.800781 437.765625 251.800781 442.675781 "/>
<path fill-rule="nonzero" fill="rgb(18.431373%, 30.980392%, 30.980392%)" fill-opacity="1" stroke-width="0.708661" stroke-linecap="round" stroke-linejoin="round" stroke="rgb(18.431373%, 30.980392%, 30.980392%)" stroke-opacity="1" stroke-miterlimit="10" d="M 375.359375 416.699219 C 375.359375 421.609375 371.378906 425.589844 366.472656 425.589844 C 361.5625 425.589844 357.582031 421.609375 357.582031 416.699219 C 357.582031 411.789062 361.5625 407.808594 366.472656 407.808594 C 371.378906 407.808594 375.359375 411.789062 375.359375 416.699219 "/>
<path fill-rule="nonzero" fill="rgb(18.431373%, 30.980392%, 30.980392%)" fill-opacity="1" stroke-width="0.708661" stroke-linecap="round" stroke-linejoin="round" stroke="rgb(18.431373%, 30.980392%, 30.980392%)" stroke-opacity="1" stroke-miterlimit="10" d="M 437.546875 361.300781 C 437.546875 366.210938 433.566406 370.191406 428.65625 370.191406 C 423.746094 370.191406 419.765625 366.210938 419.765625 361.300781 C 419.765625 356.390625 423.746094 352.410156 428.65625 352.410156 C 433.566406 352.410156 437.546875 356.390625 437.546875 361.300781 "/>
<path fill-rule="nonzero" fill="rgb(18.431373%, 30.980392%, 30.980392%)" fill-opacity="1" stroke-width="0.708661" stroke-linecap="round" stroke-linejoin="round" stroke="rgb(18.431373%, 30.980392%, 30.980392%)" stroke-opacity="1" stroke-miterlimit="10" d="M 259.28125 383.742188 C 259.28125 388.652344 255.300781 392.632812 250.390625 392.632812 C 245.480469 392.632812 241.5 388.652344 241.5 383.742188 C 241.5 378.832031 245.480469 374.851562 250.390625 374.851562 C 255.300781 374.851562 259.28125 378.832031 259.28125 383.742188 "/>
<path fill-rule="nonzero" fill="rgb(18.431373%, 30.980392%, 30.980392%)" fill-opacity="1" stroke-width="0.708661" stroke-linecap="round" stroke-linejoin="round" stroke="rgb(18.431373%, 30.980392%, 30.980392%)" stroke-opacity="1" stroke-miterlimit="10" d="M 486.6875 385.019531 C 486.6875 389.929688 482.707031 393.910156 477.796875 393.910156 C 472.886719 393.910156 468.90625 389.929688 468.90625 385.019531 C 468.90625 380.109375 472.886719 376.128906 477.796875 376.128906 C 482.707031 376.128906 486.6875 380.109375 486.6875 385.019531 "/>
<path fill-rule="nonzero" fill="rgb(18.431373%, 30.980392%, 30.980392%)" fill-opacity="1" stroke-width="0.708661" stroke-linecap="round" stroke-linejoin="round" stroke="rgb(18.431373%, 30.980392%, 30.980392%)" stroke-opacity="1" stroke-miterlimit="10" d="M 357.214844 417.003906 C 357.214844 421.914062 353.238281 425.894531 348.328125 425.894531 C 343.417969 425.894531 339.4375 421.914062 339.4375 417.003906 C 339.4375 412.09375 343.417969 408.113281 348.328125 408.113281 C 353.238281 408.113281 357.214844 412.09375 357.214844 417.003906 "/>
<path fill-rule="nonzero" fill="rgb(18.431373%, 30.980392%, 30.980392%)" fill-opacity="1" stroke-width="0.708661" stroke-linecap="round" stroke-linejoin="round" stroke="rgb(18.431373%, 30.980392%, 30.980392%)" stroke-opacity="1" stroke-miterlimit="10" d="M 45.753906 477.125 C 45.753906 482.035156 41.773438 486.015625 36.863281 486.015625 C 31.953125 486.015625 27.972656 482.035156 27.972656 477.125 C 27.972656 472.214844 31.953125 468.234375 36.863281 468.234375 C 41.773438 468.234375 45.753906 472.214844 45.753906 477.125 "/>
<path fill-rule="nonzero" fill="rgb(18.431373%, 30.980392%, 30.980392%)" fill-opacity="1" stroke-width="0.708661" stroke-linecap="round" stroke-linejoin="round" stroke="rgb(18.431373%, 30.980392%, 30.980392%)" stroke-opacity="1" stroke-miterlimit="10" d="M 72.546875 471.652344 C 72.546875 476.5625 68.566406 480.542969 63.65625 480.542969 C 58.746094 480.542969 54.765625 476.5625 54.765625 471.652344 C 54.765625 466.742188 58.746094 462.761719 63.65625 462.761719 C 68.566406 462.761719 72.546875 466.742188 72.546875 471.652344 "/>
<path fill-rule="nonzero" fill="rgb(18.431373%, 30.980392%, 30.980392%)" fill-opacity="1" stroke-width="0.708661" stroke-linecap="round" stroke-linejoin="round" stroke="rgb(18.431373%, 30.980392%, 30.980392%)" stroke-opacity="1" stroke-miterlimit="10" d="M 365.207031 390.292969 C 365.207031 395.203125 361.226562 399.183594 356.316406 399.183594 C 351.410156 399.183594 347.429688 395.203125 347.429688 390.292969 C 347.429688 385.382812 351.410156 381.402344 356.316406 381.402344 C 361.226562 381.402344 365.207031 385.382812 365.207031 390.292969 "/>
<path fill-rule="nonzero" fill="rgb(18.431373%, 30.980392%, 30.980392%)" fill-opacity="1" stroke-width="0.708661" stroke-linecap="round" stroke-linejoin="round" stroke="rgb(18.431373%, 30.980392%, 30.980392%)" stroke-opacity="1" stroke-miterlimit="10" d="M 247.453125 398.550781 C 247.453125 403.460938 243.472656 407.441406 238.5625 407.441406 C 233.652344 407.441406 229.671875 403.460938 229.671875 398.550781 C 229.671875 393.644531 233.652344 389.664062 238.5625 389.664062 C 243.472656 389.664062 247.453125 393.644531 247.453125 398.550781 "/>
<path fill-rule="nonzero" fill="rgb(18.431373%, 30.980392%, 30.980392%)" fill-opacity="1" stroke-width="0.708661" stroke-linecap="round" stroke-linejoin="round" stroke="rgb(18.431373%, 30.980392%, 30.980392%)" stroke-opacity="1" stroke-miterlimit="10" d="M 281.222656 431.554688 C 281.222656 436.464844 277.242188 440.445312 272.332031 440.445312 C 267.421875 440.445312 263.441406 436.464844 263.441406 431.554688 C 263.441406 426.644531 267.421875 422.664062 272.332031 422.664062 C 277.242188 422.664062 281.222656 426.644531 281.222656 431.554688 "/>
<path fill-rule="nonzero" fill="rgb(18.431373%, 30.980392%, 30.980392%)" fill-opacity="1" stroke-width="0.708661" stroke-linecap="round" stroke-linejoin="round" stroke="rgb(18.431373%, 30.980392%, 30.980392%)" stroke-opacity="1" stroke-miterlimit="10" d="M 341.773438 379.277344 C 341.773438 384.1875 337.792969 388.167969 332.882812 388.167969 C 327.972656 388.167969 323.992188 384.1875 323.992188 379.277344 C 323.992188 374.367188 327.972656 370.386719 332.882812 370.386719 C 337.792969 370.386719 341.773438 374.367188 341.773438 379.277344 "/>
<path fill-rule="nonzero" fill="rgb(18.431373%, 30.980392%, 30.980392%)" fill-opacity="1" stroke-width="0.708661" stroke-linecap="round" stroke-linejoin="round" stroke="rgb(18.431373%, 30.980392%, 30.980392%)" stroke-opacity="1" stroke-miterlimit="10" d="M 313.03125 415.171875 C 313.03125 420.082031 309.050781 424.0625 304.140625 424.0625 C 299.230469 424.0625 295.25 420.082031 295.25 415.171875 C 295.25 410.261719 299.230469 406.28125 304.140625 406.28125 C 309.050781 406.28125 313.03125 410.261719 313.03125 415.171875 "/>
<path fill-rule="nonzero" fill="rgb(18.431373%, 30.980392%, 30.980392%)" fill-opacity="1" stroke-width="0.708661" stroke-linecap="round" stroke-linejoin="round" stroke="rgb(18.431373%, 30.980392%, 30.980392%)" stroke-opacity="1" stroke-miterlimit="10" d="M 239.125 459.855469 C 239.125 464.761719 235.144531 468.742188 230.234375 468.742188 C 225.324219 468.742188 221.34375 464.761719 221.34375 459.855469 C 221.34375 454.945312 225.324219 450.964844 230.234375 450.964844 C 235.144531 450.964844 239.125 454.945312 239.125 459.855469 "/>
<path fill-rule="nonzero" fill="rgb(18.431373%, 30.980392%, 30.980392%)" fill-opacity="1" stroke-width="0.708661" stroke-linecap="round" stroke-linejoin="round" stroke="rgb(18.431373%, 30.980392%, 30.980392%)" stroke-opacity="1" stroke-miterlimit="10" d="M 206.867188 434.402344 C 206.867188 439.3125 202.886719 443.292969 197.976562 443.292969 C 193.066406 443.292969 189.085938 439.3125 189.085938 434.402344 C 189.085938 429.492188 193.066406 425.511719 197.976562 425.511719 C 202.886719 425.511719 206.867188 429.492188 206.867188 434.402344 "/>
<path fill-rule="nonzero" fill="rgb(18.431373%, 30.980392%, 30.980392%)" fill-opacity="1" stroke-width="0.708661" stroke-linecap="round" stroke-linejoin="round" stroke="rgb(18.431373%, 30.980392%, 30.980392%)" stroke-opacity="1" stroke-miterlimit="10" d="M 289.074219 411.871094 C 289.074219 416.78125 285.09375 420.761719 280.183594 420.761719 C 275.273438 420.761719 271.292969 416.78125 271.292969 411.871094 C 271.292969 406.960938 275.273438 402.984375 280.183594 402.984375 C 285.09375 402.984375 289.074219 406.960938 289.074219 411.871094 "/>
<path fill-rule="nonzero" fill="rgb(18.431373%, 30.980392%, 30.980392%)" fill-opacity="1" stroke-width="0.708661" stroke-linecap="round" stroke-linejoin="round" stroke="rgb(18.431373%, 30.980392%, 30.980392%)" stroke-opacity="1" stroke-miterlimit="10" d="M 529.292969 401.660156 C 529.292969 406.570312 525.3125 410.550781 520.402344 410.550781 C 515.492188 410.550781 511.511719 406.570312 511.511719 401.660156 C 511.511719 396.75 515.492188 392.769531 520.402344 392.769531 C 525.3125 392.769531 529.292969 396.75 529.292969 401.660156 "/>
<path fill-rule="nonzero" fill="rgb(18.431373%, 30.980392%, 30.980392%)" fill-opacity="1" stroke-width="0.708661" stroke-linecap="round" stroke-linejoin="round" stroke="rgb(18.431373%, 30.980392%, 30.980392%)" stroke-opacity="1" stroke-miterlimit="10" d="M 480.863281 405.675781 C 480.863281 410.585938 476.882812 414.566406 471.972656 414.566406 C 467.0625 414.566406 463.082031 410.585938 463.082031 405.675781 C 463.082031 400.765625 467.0625 396.785156 471.972656 396.785156 C 476.882812 396.785156 480.863281 400.765625 480.863281 405.675781 "/>
<path fill-rule="nonzero" fill="rgb(18.431373%, 30.980392%, 30.980392%)" fill-opacity="1" stroke-width="0.708661" stroke-linecap="round" stroke-linejoin="round" stroke="rgb(18.431373%, 30.980392%, 30.980392%)" stroke-opacity="1" stroke-miterlimit="10" d="M 319.847656 383.691406 C 319.847656 388.601562 315.867188 392.582031 310.957031 392.582031 C 306.050781 392.582031 302.070312 388.601562 302.070312 383.691406 C 302.070312 378.78125 306.050781 374.804688 310.957031 374.804688 C 315.867188 374.804688 319.847656 378.78125 319.847656 383.691406 "/>
<path fill-rule="nonzero" fill="rgb(18.431373%, 30.980392%, 30.980392%)" fill-opacity="1" stroke-width="0.708661" stroke-linecap="round" stroke-linejoin="round" stroke="rgb(18.431373%, 30.980392%, 30.980392%)" stroke-opacity="1" stroke-miterlimit="10" d="M 288.039062 386.796875 C 288.039062 391.707031 284.058594 395.6875 279.148438 395.6875 C 274.238281 395.6875 270.257812 391.707031 270.257812 386.796875 C 270.257812 381.886719 274.238281 377.90625 279.148438 377.90625 C 284.058594 377.90625 288.039062 381.886719 288.039062 386.796875 "/>
<path fill-rule="nonzero" fill="rgb(18.431373%, 30.980392%, 30.980392%)" fill-opacity="1" stroke-width="0.708661" stroke-linecap="round" stroke-linejoin="round" stroke="rgb(18.431373%, 30.980392%, 30.980392%)" stroke-opacity="1" stroke-miterlimit="10" d="M 104.214844 398.308594 C 104.214844 403.21875 100.234375 407.199219 95.324219 407.199219 C 90.414062 407.199219 86.4375 403.21875 86.4375 398.308594 C 86.4375 393.398438 90.414062 389.417969 95.324219 389.417969 C 100.234375 389.417969 104.214844 393.398438 104.214844 398.308594 "/>
<path fill-rule="nonzero" fill="rgb(18.431373%, 30.980392%, 30.980392%)" fill-opacity="1" stroke-width="0.708661" stroke-linecap="round" stroke-linejoin="round" stroke="rgb(18.431373%, 30.980392%, 30.980392%)" stroke-opacity="1" stroke-miterlimit="10" d="M 297.886719 444.707031 C 297.886719 449.617188 293.90625 453.597656 288.996094 453.597656 C 284.085938 453.597656 280.105469 449.617188 280.105469 444.707031 C 280.105469 439.796875 284.085938 435.816406 288.996094 435.816406 C 293.90625 435.816406 297.886719 439.796875 297.886719 444.707031 "/>
<path fill-rule="nonzero" fill="rgb(18.431373%, 30.980392%, 30.980392%)" fill-opacity="1" stroke-width="0.708661" stroke-linecap="round" stroke-linejoin="round" stroke="rgb(18.431373%, 30.980392%, 30.980392%)" stroke-opacity="1" stroke-miterlimit="10" d="M 389.058594 402.039062 C 389.058594 406.945312 385.078125 410.925781 380.167969 410.925781 C 375.257812 410.925781 371.277344 406.945312 371.277344 402.039062 C 371.277344 397.128906 375.257812 393.148438 380.167969 393.148438 C 385.078125 393.148438 389.058594 397.128906 389.058594 402.039062 "/>
<path fill-rule="nonzero" fill="rgb(18.431373%, 30.980392%, 30.980392%)" fill-opacity="1" stroke-width="0.708661" stroke-linecap="round" stroke-linejoin="round" stroke="rgb(18.431373%, 30.980392%, 30.980392%)" stroke-opacity="1" stroke-miterlimit="10" d="M 171.773438 414.382812 C 171.773438 419.292969 167.792969 423.273438 162.882812 423.273438 C 157.972656 423.273438 153.992188 419.292969 153.992188 414.382812 C 153.992188 409.472656 157.972656 405.492188 162.882812 405.492188 C 167.792969 405.492188 171.773438 409.472656 171.773438 414.382812 "/>
<path fill-rule="nonzero" fill="rgb(18.431373%, 30.980392%, 30.980392%)" fill-opacity="1" stroke-width="0.708661" stroke-linecap="round" stroke-linejoin="round" stroke="rgb(18.431373%, 30.980392%, 30.980392%)" stroke-opacity="1" stroke-miterlimit="10" d="M 409.300781 377.4375 C 409.300781 382.347656 405.320312 386.324219 400.410156 386.324219 C 395.5 386.324219 391.519531 382.347656 391.519531 377.4375 C 391.519531 372.527344 395.5 368.546875 400.410156 368.546875 C 405.320312 368.546875 409.300781 372.527344 409.300781 377.4375 "/>
<path fill-rule="nonzero" fill="rgb(18.431373%, 30.980392%, 30.980392%)" fill-opacity="1" stroke-width="0.708661" stroke-linecap="round" stroke-linejoin="round" stroke="rgb(18.431373%, 30.980392%, 30.980392%)" stroke-opacity="1" stroke-miterlimit="10" d="M 416.238281 401.035156 C 416.238281 405.945312 412.257812 409.925781 407.347656 409.925781 C 402.4375 409.925781 398.457031 405.945312 398.457031 401.035156 C 398.457031 396.128906 402.4375 392.148438 407.347656 392.148438 C 412.257812 392.148438 416.238281 396.128906 416.238281 401.035156 "/>
<path fill-rule="nonzero" fill="rgb(18.431373%, 30.980392%, 30.980392%)" fill-opacity="1" stroke-width="0.708661" stroke-linecap="round" stroke-linejoin="round" stroke="rgb(18.431373%, 30.980392%, 30.980392%)" stroke-opacity="1" stroke-miterlimit="10" d="M 178.878906 393.566406 C 178.878906 398.472656 174.898438 402.453125 169.988281 402.453125 C 165.082031 402.453125 161.101562 398.472656 161.101562 393.566406 C 161.101562 388.65625 165.082031 384.675781 169.988281 384.675781 C 174.898438 384.675781 178.878906 388.65625 178.878906 393.566406 "/>
<path fill-rule="nonzero" fill="rgb(18.431373%, 30.980392%, 30.980392%)" fill-opacity="1" stroke-width="0.708661" stroke-linecap="round" stroke-linejoin="round" stroke="rgb(18.431373%, 30.980392%, 30.980392%)" stroke-opacity="1" stroke-miterlimit="10" d="M 442.210938 327.785156 C 442.210938 332.695312 438.230469 336.675781 433.320312 336.675781 C 428.410156 336.675781 424.429688 332.695312 424.429688 327.785156 C 424.429688 322.875 428.410156 318.894531 433.320312 318.894531 C 438.230469 318.894531 442.210938 322.875 442.210938 327.785156 "/>
<path fill-rule="nonzero" fill="rgb(18.431373%, 30.980392%, 30.980392%)" fill-opacity="1" stroke-width="0.708661" stroke-linecap="round" stroke-linejoin="round" stroke="rgb(18.431373%, 30.980392%, 30.980392%)" stroke-opacity="1" stroke-miterlimit="10" d="M 273.730469 421.210938 C 273.730469 426.121094 269.75 430.101562 264.839844 430.101562 C 259.929688 430.101562 255.949219 426.121094 255.949219 421.210938 C 255.949219 416.300781 259.929688 412.320312 264.839844 412.320312 C 269.75 412.320312 273.730469 416.300781 273.730469 421.210938 "/>
<path fill-rule="nonzero" fill="rgb(18.431373%, 30.980392%, 30.980392%)" fill-opacity="1" stroke-width="0.708661" stroke-linecap="round" stroke-linejoin="round" stroke="rgb(18.431373%, 30.980392%, 30.980392%)" stroke-opacity="1" stroke-miterlimit="10" d="M 255.316406 452.210938 C 255.316406 457.121094 251.335938 461.101562 246.425781 461.101562 C 241.515625 461.101562 237.535156 457.121094 237.535156 452.210938 C 237.535156 447.300781 241.515625 443.320312 246.425781 443.320312 C 251.335938 443.320312 255.316406 447.300781 255.316406 452.210938 "/>
<path fill-rule="nonzero" fill="rgb(18.431373%, 30.980392%, 30.980392%)" fill-opacity="1" stroke-width="0.708661" stroke-linecap="round" stroke-linejoin="round" stroke="rgb(18.431373%, 30.980392%, 30.980392%)" stroke-opacity="1" stroke-miterlimit="10" d="M 416.925781 396.492188 C 416.925781 401.402344 412.945312 405.382812 408.035156 405.382812 C 403.125 405.382812 399.144531 401.402344 399.144531 396.492188 C 399.144531 391.582031 403.125 387.601562 408.035156 387.601562 C 412.945312 387.601562 416.925781 391.582031 416.925781 396.492188 "/>
<path fill-rule="nonzero" fill="rgb(18.431373%, 30.980392%, 30.980392%)" fill-opacity="1" stroke-width="0.708661" stroke-linecap="round" stroke-linejoin="round" stroke="rgb(18.431373%, 30.980392%, 30.980392%)" stroke-opacity="1" stroke-miterlimit="10" d="M 356.792969 449.203125 C 356.792969 454.113281 352.8125 458.09375 347.902344 458.09375 C 342.992188 458.09375 339.011719 454.113281 339.011719 449.203125 C 339.011719 444.292969 342.992188 440.3125 347.902344 440.3125 C 352.8125 440.3125 356.792969 444.292969 356.792969 449.203125 "/>
<path fill-rule="nonzero" fill="rgb(18.431373%, 30.980392%, 30.980392%)" fill-opacity="1" stroke-width="0.708661" stroke-linecap="round" stroke-linejoin="round" stroke="rgb(18.431373%, 30.980392%, 30.980392%)" stroke-opacity="1" stroke-miterlimit="10" d="M 266.4375 400.898438 C 266.4375 405.808594 262.457031 409.789062 257.550781 409.789062 C 252.640625 409.789062 248.660156 405.808594 248.660156 400.898438 C 248.660156 395.988281 252.640625 392.007812 257.550781 392.007812 C 262.457031 392.007812 266.4375 395.988281 266.4375 400.898438 "/>
<path fill-rule="nonzero" fill="rgb(18.431373%, 30.980392%, 30.980392%)" fill-opacity="1" stroke-width="0.708661" stroke-linecap="round" stroke-linejoin="round" stroke="rgb(18.431373%, 30.980392%, 30.980392%)" stroke-opacity="1" stroke-miterlimit="10" d="M 168.84375 463.027344 C 168.84375 467.9375 164.863281 471.917969 159.953125 471.917969 C 155.042969 471.917969 151.0625 467.9375 151.0625 463.027344 C 151.0625 458.117188 155.042969 454.136719 159.953125 454.136719 C 164.863281 454.136719 168.84375 458.117188 168.84375 463.027344 "/>
<path fill-rule="nonzero" fill="rgb(18.431373%, 30.980392%, 30.980392%)" fill-opacity="1" stroke-width="0.708661" stroke-linecap="round" stroke-linejoin="round" stroke="rgb(18.431373%, 30.980392%, 30.980392%)" stroke-opacity="1" stroke-miterlimit="10" d="M 423.601562 373.128906 C 423.601562 378.039062 419.621094 382.019531 414.710938 382.019531 C 409.800781 382.019531 405.820312 378.039062 405.820312 373.128906 C 405.820312 368.21875 409.800781 364.238281 414.710938 364.238281 C 419.621094 364.238281 423.601562 368.21875 423.601562 373.128906 "/>
<path fill-rule="nonzero" fill="rgb(18.431373%, 30.980392%, 30.980392%)" fill-opacity="1" stroke-width="0.708661" stroke-linecap="round" stroke-linejoin="round" stroke="rgb(18.431373%, 30.980392%, 30.980392%)" stroke-opacity="1" stroke-miterlimit="10" d="M 179.660156 442.492188 C 179.660156 447.402344 175.679688 451.378906 170.773438 451.378906 C 165.863281 451.378906 161.882812 447.402344 161.882812 442.492188 C 161.882812 437.582031 165.863281 433.601562 170.773438 433.601562 C 175.679688 433.601562 179.660156 437.582031 179.660156 442.492188 "/>
<path fill-rule="nonzero" fill="rgb(18.431373%, 30.980392%, 30.980392%)" fill-opacity="1" stroke-width="0.708661" stroke-linecap="round" stroke-linejoin="round" stroke="rgb(18.431373%, 30.980392%, 30.980392%)" stroke-opacity="1" stroke-miterlimit="10" d="M 83.71875 449.636719 C 83.71875 454.546875 79.738281 458.527344 74.828125 458.527344 C 69.921875 458.527344 65.941406 454.546875 65.941406 449.636719 C 65.941406 444.726562 69.921875 440.746094 74.828125 440.746094 C 79.738281 440.746094 83.71875 444.726562 83.71875 449.636719 "/>
<path fill-rule="nonzero" fill="rgb(18.431373%, 30.980392%, 30.980392%)" fill-opacity="1" stroke-width="0.708661" stroke-linecap="round" stroke-linejoin="round" stroke="rgb(18.431373%, 30.980392%, 30.980392%)" stroke-opacity="1" stroke-miterlimit="10" d="M 428.003906 419.003906 C 428.003906 423.914062 424.023438 427.894531 419.113281 427.894531 C 414.203125 427.894531 410.222656 423.914062 410.222656 419.003906 C 410.222656 414.09375 414.203125 410.113281 419.113281 410.113281 C 424.023438 410.113281 428.003906 414.09375 428.003906 419.003906 "/>
<path fill-rule="nonzero" fill="rgb(18.431373%, 30.980392%, 30.980392%)" fill-opacity="1" stroke-width="0.708661" stroke-linecap="round" stroke-linejoin="round" stroke="rgb(18.431373%, 30.980392%, 30.980392%)" stroke-opacity="1" stroke-miterlimit="10" d="M 415.785156 387.632812 C 415.785156 392.542969 411.804688 396.519531 406.894531 396.519531 C 401.984375 396.519531 398.003906 392.542969 398.003906 387.632812 C 398.003906 382.722656 401.984375 378.742188 406.894531 378.742188 C 411.804688 378.742188 415.785156 382.722656 415.785156 387.632812 "/>
<path fill-rule="nonzero" fill="rgb(18.431373%, 30.980392%, 30.980392%)" fill-opacity="1" stroke-width="0.708661" stroke-linecap="round" stroke-linejoin="round" stroke="rgb(18.431373%, 30.980392%, 30.980392%)" stroke-opacity="1" stroke-miterlimit="10" d="M 380.230469 409.660156 C 380.230469 414.566406 376.25 418.546875 371.339844 418.546875 C 366.429688 418.546875 362.449219 414.566406 362.449219 409.660156 C 362.449219 404.75 366.429688 400.769531 371.339844 400.769531 C 376.25 400.769531 380.230469 404.75 380.230469 409.660156 "/>
<path fill-rule="nonzero" fill="rgb(18.431373%, 30.980392%, 30.980392%)" fill-opacity="1" stroke-width="0.708661" stroke-linecap="round" stroke-linejoin="round" stroke="rgb(18.431373%, 30.980392%, 30.980392%)" stroke-opacity="1" stroke-miterlimit="10" d="M 32.125 462.207031 C 32.125 467.117188 28.144531 471.097656 23.234375 471.097656 C 18.324219 471.097656 14.34375 467.117188 14.34375 462.207031 C 14.34375 457.296875 18.324219 453.316406 23.234375 453.316406 C 28.144531 453.316406 32.125 457.296875 32.125 462.207031 "/>
<path fill-rule="nonzero" fill="rgb(18.431373%, 30.980392%, 30.980392%)" fill-opacity="1" stroke-width="0.708661" stroke-linecap="round" stroke-linejoin="round" stroke="rgb(18.431373%, 30.980392%, 30.980392%)" stroke-opacity="1" stroke-miterlimit="10" d="M 278.75 420.152344 C 278.75 425.0625 274.769531 429.042969 269.859375 429.042969 C 264.949219 429.042969 260.96875 425.0625 260.96875 420.152344 C 260.96875 415.242188 264.949219 411.265625 269.859375 411.265625 C 274.769531 411.265625 278.75 415.242188 278.75 420.152344 "/>
<path fill-rule="nonzero" fill="rgb(18.431373%, 30.980392%, 30.980392%)" fill-opacity="1" stroke-width="0.708661" stroke-linecap="round" stroke-linejoin="round" stroke="rgb(18.431373%, 30.980392%, 30.980392%)" stroke-opacity="1" stroke-miterlimit="10" d="M 321.816406 384.191406 C 321.816406 389.101562 317.835938 393.082031 312.925781 393.082031 C 308.019531 393.082031 304.039062 389.101562 304.039062 384.191406 C 304.039062 379.28125 308.019531 375.300781 312.925781 375.300781 C 317.835938 375.300781 321.816406 379.28125 321.816406 384.191406 "/>
<path fill-rule="nonzero" fill="rgb(18.431373%, 30.980392%, 30.980392%)" fill-opacity="1" stroke-width="0.708661" stroke-linecap="round" stroke-linejoin="round" stroke="rgb(18.431373%, 30.980392%, 30.980392%)" stroke-opacity="1" stroke-miterlimit="10" d="M 455.167969 419.738281 C 455.167969 424.648438 451.1875 428.628906 446.277344 428.628906 C 441.371094 428.628906 437.390625 424.648438 437.390625 419.738281 C 437.390625 414.828125 441.371094 410.847656 446.277344 410.847656 C 451.1875 410.847656 455.167969 414.828125 455.167969 419.738281 "/>
<path fill-rule="nonzero" fill="rgb(18.431373%, 30.980392%, 30.980392%)" fill-opacity="1" stroke-width="0.708661" stroke-linecap="round" stroke-linejoin="round" stroke="rgb(18.431373%, 30.980392%, 30.980392%)" stroke-opacity="1" stroke-miterlimit="10" d="M 348.183594 409.074219 C 348.183594 413.984375 344.203125 417.964844 339.292969 417.964844 C 334.382812 417.964844 330.402344 413.984375 330.402344 409.074219 C 330.402344 404.164062 334.382812 400.183594 339.292969 400.183594 C 344.203125 400.183594 348.183594 404.164062 348.183594 409.074219 "/>
<path fill-rule="nonzero" fill="rgb(18.431373%, 30.980392%, 30.980392%)" fill-opacity="1" stroke-width="0.708661" stroke-linecap="round" stroke-linejoin="round" stroke="rgb(18.431373%, 30.980392%, 30.980392%)" stroke-opacity="1" stroke-miterlimit="10" d="M 158.78125 439.8125 C 158.78125 444.722656 154.800781 448.703125 149.890625 448.703125 C 144.980469 448.703125 141 444.722656 141 439.8125 C 141 434.902344 144.980469 430.921875 149.890625 430.921875 C 154.800781 430.921875 158.78125 434.902344 158.78125 439.8125 "/>
<path fill-rule="nonzero" fill="rgb(100%, 64.705882%, 0%)" fill-opacity="1" stroke-width="0.708661" stroke-linecap="round" stroke-linejoin="round" stroke="rgb(100%, 64.705882%, 0%)" stroke-opacity="1" stroke-miterlimit="10" d="M 729.996094 23.4375 C 729.996094 28.347656 726.015625 32.328125 721.105469 32.328125 C 716.195312 32.328125 712.214844 28.347656 712.214844 23.4375 C 712.214844 18.527344 716.195312 14.550781 721.105469 14.550781 C 726.015625 14.550781 729.996094 18.527344 729.996094 23.4375 "/>
<path fill-rule="nonzero" fill="rgb(100%, 64.705882%, 0%)" fill-opacity="1" stroke-width="0.708661" stroke-linecap="round" stroke-linejoin="round" stroke="rgb(100%, 64.705882%, 0%)" stroke-opacity="1" stroke-miterlimit="10" d="M 729.996094 23.4375 C 729.996094 28.347656 726.015625 32.328125 721.105469 32.328125 C 716.195312 32.328125 712.214844 28.347656 712.214844 23.4375 C 712.214844 18.527344 716.195312 14.550781 721.105469 14.550781 C 726.015625 14.550781 729.996094 18.527344 729.996094 23.4375 "/>
</svg>
